<?xml version="1.0" standalone="no"?>
<!DOCTYPE svg PUBLIC "-//W3C//DTD SVG 20010904//EN"
 "http://www.w3.org/TR/2001/REC-SVG-20010904/DTD/svg10.dtd">
<svg version="1.0" xmlns="http://www.w3.org/2000/svg"
 width="284.000000pt" height="177.000000pt" viewBox="0 0 284.000000 177.000000"
 preserveAspectRatio="xMidYMid meet">

<g transform="translate(0.000000,177.000000) scale(0.100000,-0.100000)"
fill="#000000" stroke="none">
<path d="M0 1695 c0 -72 1 -76 26 -85 18 -7 24 -15 20 -26 -7 -18 37 -62 71
-70 23 -6 32 -37 13 -49 -11 -7 -32 -77 -34 -113 -2 -28 13 -40 24 -21 7 11
13 11 34 -1 22 -11 30 -11 50 0 21 11 29 10 59 -9 19 -12 38 -28 41 -37 3 -8
10 -13 15 -10 5 3 11 -1 15 -9 3 -8 17 -15 31 -15 23 0 25 -4 26 -42 1 -28 3
-34 6 -18 3 14 9 30 14 36 5 6 1 17 -11 27 -11 9 -20 22 -20 29 0 9 3 8 10 -2
5 -8 12 -11 17 -6 4 4 -24 36 -62 72 -102 93 -115 104 -123 104 -4 0 -18 16
-32 34 -14 18 -44 59 -67 89 -44 58 -53 80 -29 71 11 -4 13 0 9 16 -3 11 -8
18 -11 15 -10 -10 -32 18 -32 40 0 39 -11 55 -36 55 -23 0 -24 -3 -24 -75z"/>
<path d="M340 1756 c0 -8 -8 -17 -17 -20 -12 -5 -14 -9 -5 -18 7 -7 12 -22 12
-35 0 -13 1 -23 3 -23 2 0 25 20 51 43 42 39 45 45 31 57 -13 11 -21 11 -36 2
-11 -7 -19 -8 -19 -2 0 5 -4 10 -10 10 -5 0 -10 -6 -10 -14z"/>
<path d="M850 1753 c0 -11 4 -11 22 -2 17 9 24 9 33 -5 13 -17 25 -12 25 11 0
9 -13 12 -40 11 -26 -1 -40 -6 -40 -15z"/>
<path d="M942 1729 c-9 -31 -10 -45 -1 -55 19 -23 34 4 30 52 -1 24 -6 44 -10
44 -3 0 -12 -18 -19 -41z"/>
<path d="M1178 1760 c-2 -6 -24 -11 -51 -12 -26 -1 -47 -6 -47 -9 0 -4 17 -16
38 -26 29 -14 36 -23 34 -40 -3 -20 0 -22 27 -17 24 5 39 1 65 -20 19 -14 39
-26 44 -26 5 0 15 -7 22 -15 10 -13 9 -15 -12 -15 -13 0 -28 4 -34 10 -12 12
-54 -15 -54 -35 0 -22 76 -30 105 -11 13 9 38 16 55 16 17 0 48 11 70 25 28
18 54 25 89 25 42 0 54 5 79 30 33 32 67 43 39 13 -15 -18 -20 -35 -18 -63 1
-20 61 -47 70 -32 4 7 21 11 39 9 32 -2 37 -10 34 -50 -1 -12 10 -23 31 -32
45 -19 87 -53 97 -81 14 -35 63 -33 79 2 l12 27 57 -64 c31 -34 56 -67 55 -71
-2 -4 4 -8 12 -8 8 0 34 -19 58 -43 86 -88 183 -194 203 -225 l21 -32 25 19
c14 11 47 28 73 36 57 20 298 75 326 75 12 0 19 7 19 19 0 20 17 22 -215 -18
-137 -24 -153 -25 -139 -11 8 8 139 43 302 80 l52 12 0 183 c0 175 -1 184 -20
190 -11 3 -20 13 -20 21 0 8 -8 14 -18 14 -11 0 -27 9 -37 20 -17 19 -17 20 9
30 15 5 41 10 57 10 28 0 29 1 29 50 l0 50 -125 0 c-106 0 -124 -2 -119 -15
10 -24 -59 -24 -87 1 -10 9 -39 14 -82 14 -77 0 -78 -2 -47 -75 12 -27 20 -69
20 -100 0 -47 -2 -53 -19 -48 -10 3 -22 0 -25 -6 -17 -26 -96 0 -96 32 0 9
-33 86 -63 147 l-22 45 -497 3 c-331 1 -497 -1 -500 -8z m1477 -30 c3 -5 1
-10 -4 -10 -6 0 -11 5 -11 10 0 6 2 10 4 10 3 0 8 -4 11 -10z m-906 -39 c14
-10 37 -21 51 -22 20 -3 25 -10 27 -34 0 -16 2 -36 2 -44 1 -7 32 -44 70 -82
38 -38 63 -69 56 -69 -15 0 -105 68 -147 111 -14 15 -36 30 -47 34 -12 3 -18
11 -15 17 4 6 -1 8 -15 3 -15 -4 -21 -2 -21 8 0 8 -9 26 -21 41 -16 20 -17 26
-6 26 8 0 17 7 21 15 7 19 12 19 45 -4z m973 -398 c21 -19 23 -36 4 -52 -21
-18 -61 18 -52 47 9 26 23 28 48 5z"/>
<path d="M633 1725 c-16 -17 -17 -35 -3 -35 6 0 10 -7 10 -15 0 -9 7 -18 15
-21 8 -4 15 -14 15 -23 0 -9 11 -32 25 -51 14 -19 25 -40 25 -48 0 -7 8 -12
18 -10 12 2 18 15 20 46 2 23 7 42 13 42 5 0 9 5 9 10 0 6 -6 10 -14 10 -7 0
-18 15 -24 33 l-10 32 -1 -45 -1 -44 -17 24 c-12 17 -13 25 -5 28 16 5 15 42
0 43 -20 2 -21 2 -45 -6 -17 -5 -23 -2 -23 9 0 9 5 16 10 16 6 0 10 5 10 10 0
14 -13 12 -27 -5z"/>
<path d="M1004 1680 c1 -39 18 -39 33 0 10 28 10 30 -11 30 -19 0 -23 -5 -22
-30z"/>
<path d="M1090 1676 c0 -8 -7 -22 -16 -31 -24 -23 -11 -29 25 -10 27 13 30 19
21 35 -12 23 -30 26 -30 6z"/>
<path d="M970 1660 c0 -5 5 -10 11 -10 5 0 7 5 4 10 -3 6 -8 10 -11 10 -2 0
-4 -4 -4 -10z"/>
<path d="M855 1566 c-46 -20 -69 -50 -56 -73 18 -35 36 -42 112 -47 91 -6 87
-4 69 -16 -11 -7 -5 -13 30 -29 l45 -20 13 32 c19 43 9 97 -23 124 -46 41
-134 54 -190 29z"/>
<path d="M1175 1570 c-3 -5 1 -10 9 -10 9 0 16 5 16 10 0 6 -4 10 -9 10 -6 0
-13 -4 -16 -10z"/>
<path d="M1565 1572 c-10 -10 -5 -20 13 -26 9 -3 23 -9 30 -12 7 -3 12 2 12
14 0 13 -8 21 -25 24 -13 3 -27 3 -30 0z"/>
<path d="M1162 1529 c-18 -7 -22 -14 -16 -31 9 -31 9 -31 32 -17 17 10 23 10
36 0 9 -8 16 -19 16 -25 0 -7 15 -23 33 -36 l32 -24 -18 27 c-10 15 -15 32
-12 37 7 12 -16 50 -31 50 -6 0 -17 7 -24 15 -14 17 -16 17 -48 4z"/>
<path d="M310 1517 c0 -19 48 -70 59 -63 5 3 11 15 14 26 4 16 0 20 -18 20
-13 0 -31 7 -39 16 -13 13 -16 13 -16 1z"/>
<path d="M1390 1504 c19 -9 44 -19 55 -21 31 -6 95 -52 95 -67 0 -8 6 -17 13
-19 19 -7 -35 1 -58 8 l-20 7 20 -17 c48 -39 96 -57 133 -48 l37 9 -33 28
c-37 34 -39 42 -12 51 34 11 22 23 -18 18 -30 -4 -49 1 -91 27 -35 20 -73 33
-105 36 l-51 5 35 -17z"/>
<path d="M1340 1476 c0 -2 8 -10 18 -17 15 -13 16 -12 3 4 -13 16 -21 21 -21
13z"/>
<path d="M452 1356 c-21 -67 -18 -77 29 -96 26 -11 31 -10 44 6 8 12 10 21 3
25 -16 10 -5 43 19 54 48 21 30 49 -43 65 -32 7 -32 7 -52 -54z m63 34 c3 -5
1 -10 -4 -10 -6 0 -11 5 -11 10 0 6 2 10 4 10 3 0 8 -4 11 -10z m5 -110 c0 -5
-2 -10 -4 -10 -3 0 -8 5 -11 10 -3 6 -1 10 4 10 6 0 11 -4 11 -10z"/>
<path d="M690 1411 c-46 -8 -18 -20 34 -13 26 3 34 7 25 13 -8 5 -16 8 -19 8
-3 -1 -21 -4 -40 -8z"/>
<path d="M1240 1401 c0 -14 -35 -19 -54 -9 -9 5 -22 8 -29 5 -7 -2 8 -11 33
-19 32 -11 44 -20 42 -32 -2 -9 3 -16 9 -16 7 0 9 3 6 7 -4 3 2 12 13 20 17
12 18 17 7 33 -12 21 -27 27 -27 11z"/>
<path d="M1645 1400 c3 -5 15 -10 26 -10 11 0 17 5 14 10 -3 6 -15 10 -26 10
-11 0 -17 -4 -14 -10z"/>
<path d="M1767 1365 c26 -32 43 -44 43 -29 0 7 -60 64 -66 64 -3 0 8 -16 23
-35z"/>
<path d="M2016 1324 c-4 -10 -13 -14 -26 -11 -25 6 -25 -1 0 -33 11 -14 20
-19 20 -12 0 7 5 10 11 7 6 -4 8 -14 4 -22 -6 -18 23 -56 36 -47 5 3 6 -3 2
-12 -4 -11 -2 -15 4 -11 6 4 16 -13 23 -41 7 -26 22 -55 32 -65 10 -10 16 -22
13 -27 -3 -5 10 -16 30 -26 19 -9 35 -20 35 -24 0 -4 8 -10 18 -14 9 -3 34
-17 55 -30 34 -21 43 -22 75 -12 l37 11 -30 5 c-24 4 -30 10 -31 30 0 14 -4
36 -8 49 -6 16 -5 21 3 17 6 -4 11 -3 11 3 0 16 -59 53 -75 47 -9 -3 -15 1
-15 9 0 8 -4 15 -8 15 -18 0 -50 36 -65 72 -10 24 -27 42 -46 50 -17 7 -40 28
-53 47 -27 40 -43 48 -52 25z m274 -248 c0 -2 -7 -6 -15 -10 -8 -3 -15 -1 -15
4 0 6 7 10 15 10 8 0 15 -2 15 -4z"/>
<path d="M0 1271 c0 -59 0 -60 28 -58 17 1 26 -3 24 -11 -1 -7 9 -18 23 -24
14 -6 25 -15 25 -20 0 -5 5 -6 10 -3 5 3 10 1 10 -5 0 -6 5 -8 10 -5 6 3 10 2
10 -3 0 -5 9 -12 20 -15 11 -3 19 -11 18 -17 -3 -12 42 -25 142 -44 26 -5 30
-4 15 3 -11 5 -14 10 -7 10 7 1 10 6 6 12 -5 9 1 10 20 5 23 -6 26 -4 26 20 0
40 -43 107 -88 136 -61 41 -114 54 -154 37 -18 -7 -37 -14 -43 -15 -5 -1 -19
-6 -29 -10 -15 -6 -18 -4 -13 9 4 11 -3 23 -23 37 l-30 21 0 -60z m223 -4 c-2
-4 -3 -11 -3 -17 0 -5 -6 -10 -13 -10 -8 0 5 -20 28 -44 23 -24 44 -53 48 -65
5 -19 2 -21 -16 -15 -70 20 -173 108 -162 137 4 9 15 14 26 12 10 -2 19 0 19
5 0 5 17 8 38 6 20 -1 36 -6 35 -9z m107 -100 c12 -21 20 -41 17 -44 -3 -2
-13 10 -22 29 -10 18 -29 46 -44 62 l-26 29 27 -19 c15 -10 36 -36 48 -57z"/>
<path d="M1230 1313 c0 -15 63 -39 93 -35 33 4 36 21 5 23 -38 2 -62 6 -80 14
-10 4 -18 3 -18 -2z"/>
<path d="M1778 1280 c-6 -42 6 -59 32 -42 11 6 27 12 35 12 8 0 15 5 15 11 0
6 -7 8 -17 5 -10 -4 -14 -4 -11 0 7 6 -33 44 -45 44 -3 0 -7 -13 -9 -30z"/>
<path d="M1085 1270 c27 -12 43 -12 25 0 -8 5 -22 9 -30 9 -10 0 -8 -3 5 -9z"/>
<path d="M1130 1264 c0 -19 87 -77 106 -70 20 8 -2 42 -36 56 -30 12 -70 21
-70 14z"/>
<path d="M1777 1206 c-17 -13 -15 -15 20 -26 21 -7 56 -22 77 -33 l40 -19 -26
30 c-14 17 -28 36 -30 41 -5 18 -62 22 -81 7z"/>
<path d="M1391 1159 c-47 -42 -55 -54 -54 -84 1 -39 22 -65 53 -65 17 0 19 -3
10 -20 -8 -16 -6 -21 12 -31 13 -7 35 -12 49 -11 19 2 32 -5 43 -23 13 -20 25
-25 56 -25 22 0 40 -4 40 -10 0 -18 29 -11 50 12 18 19 18 23 5 38 -14 15 -14
19 -1 29 8 7 21 9 28 5 7 -4 5 1 -4 11 -15 16 -19 16 -34 5 -19 -16 -47 -23
-38 -9 3 5 -8 9 -25 9 -16 0 -32 4 -35 9 -3 4 -18 11 -33 14 -16 3 -37 12 -47
20 -18 14 -18 15 4 45 12 16 32 33 43 36 20 5 20 6 -7 31 -23 21 -31 24 -38
13 -7 -9 -8 -6 -5 10 4 18 2 22 -10 18 -11 -4 -13 -2 -9 9 7 20 9 21 -53 -36z"/>
<path d="M2 1098 c2 -40 6 -54 18 -55 8 0 31 -3 50 -6 32 -5 33 -5 15 8 -49
34 -65 51 -65 72 0 12 -5 25 -10 28 -7 4 -10 -13 -8 -47z"/>
<path d="M1974 1139 c-17 -7 -17 -8 -1 -8 10 -1 17 -9 17 -21 0 -13 7 -20 20
-20 13 0 18 5 14 15 -4 8 -1 15 5 15 6 0 11 4 11 9 0 12 -43 19 -66 10z"/>
<path d="M1127 1116 c-6 -16 1 -26 19 -26 7 0 10 8 7 20 -6 23 -19 26 -26 6z"/>
<path d="M2740 1075 c-68 -14 -227 -56 -270 -73 -14 -6 -32 -18 -40 -27 -13
-15 -10 -21 28 -56 23 -22 42 -48 42 -57 0 -10 4 -22 9 -28 21 -22 131 -232
131 -251 0 -13 11 -17 43 -14 10 2 17 -5 17 -16 0 -15 -2 -16 -10 -3 -8 13
-10 12 -10 -4 0 -12 5 -16 16 -12 9 3 18 6 20 6 3 0 2 4 -1 10 -3 5 0 7 9 4 8
-3 32 6 55 20 22 14 45 26 51 26 6 0 10 85 10 245 0 227 -1 245 -17 244 -10
-1 -47 -7 -83 -14z"/>
<path d="M680 1071 c0 -5 -3 -16 -6 -25 -10 -26 12 -18 24 9 10 21 9 25 -3 25
-8 0 -15 -4 -15 -9z"/>
<path d="M706 1020 c-9 -22 -16 -53 -15 -68 0 -18 7 -5 20 37 21 74 19 91 -5
31z"/>
<path d="M1196 1053 c-3 -4 -6 -24 -6 -46 0 -22 3 -37 7 -34 3 4 12 -1 19 -11
11 -15 13 -14 19 11 4 15 4 38 1 51 -6 24 -29 40 -40 29z"/>
<path d="M800 1015 c1 -26 2 -28 11 -12 8 14 8 22 0 30 -8 8 -11 3 -11 -18z"/>
<path d="M2020 1030 c0 -5 10 -15 23 -21 22 -12 22 -12 3 10 -21 23 -26 26
-26 11z"/>
<path d="M877 1003 c-3 -5 -8 -25 -12 -46 -6 -30 -4 -37 9 -37 9 0 15 -3 15
-7 -2 -14 1 -28 10 -42 7 -11 13 -10 31 7 13 12 26 20 29 17 4 -2 5 12 3 31
-2 19 -8 34 -12 34 -5 0 -15 6 -22 13 -30 27 -46 38 -51 30z"/>
<path d="M2095 970 c11 -13 26 -31 33 -39 8 -8 25 -32 39 -54 13 -21 27 -36
30 -33 10 9 -56 98 -97 131 l-25 20 20 -25z"/>
<path d="M953 969 c10 -6 22 -20 27 -32 7 -17 9 -18 9 -5 1 11 6 15 16 12 27
-11 16 5 -15 21 -33 17 -66 21 -37 4z"/>
<path d="M653 918 c-15 -73 7 -138 23 -71 l7 26 19 -26 c11 -15 25 -27 32 -27
13 0 66 105 66 129 0 14 -13 14 -28 -1 -9 -9 -15 -9 -24 0 -17 17 -31 15 -24
-4 3 -8 2 -13 -3 -10 -5 3 -16 -9 -25 -27 l-16 -32 0 43 c0 23 -4 42 -9 42 -6
0 -14 -19 -18 -42z"/>
<path d="M35 920 c3 -5 11 -10 16 -10 6 0 7 5 4 10 -3 6 -11 10 -16 10 -6 0
-7 -4 -4 -10z"/>
<path d="M171 906 c-24 -13 -51 -21 -61 -19 -10 3 -21 0 -24 -6 -4 -6 -12 -11
-17 -11 -6 0 -8 4 -4 10 5 8 -43 40 -60 40 -3 0 -5 -16 -3 -35 2 -20 6 -34 10
-33 10 4 57 -43 80 -81 20 -32 21 -34 3 -47 -23 -17 -12 -48 15 -41 12 3 18 1
14 -5 -4 -6 1 -8 15 -3 17 5 21 2 21 -14 0 -16 5 -20 23 -17 21 3 38 35 20 37
-4 1 -18 3 -31 4 -26 3 -56 36 -40 46 6 4 -1 27 -17 60 l-27 54 29 -27 c16
-16 34 -28 41 -28 6 0 19 -12 29 -27 10 -16 22 -31 27 -34 5 -4 5 -12 2 -18
-4 -6 0 -11 8 -11 9 0 16 -4 16 -10 0 -5 8 -10 18 -10 16 1 16 1 0 11 -29 16
-10 42 25 35 48 -10 60 -46 16 -46 -11 0 -18 -4 -14 -9 3 -5 1 -12 -4 -15 -5
-3 -7 -15 -4 -26 4 -15 1 -18 -16 -15 -19 4 -27 -9 -22 -37 0 -5 -4 -8 -11 -8
-9 0 -9 -3 0 -12 9 -9 15 -9 24 0 17 17 33 15 18 -3 -7 -8 -21 -15 -32 -15
-17 0 -18 -3 -8 -15 10 -12 10 -15 0 -15 -9 0 -8 -6 4 -19 10 -11 15 -25 11
-30 -7 -13 35 -31 71 -31 29 0 32 20 4 27 -11 3 -20 13 -20 22 0 13 -2 13 -9
2 -10 -16 -17 -5 -19 32 -1 18 3 27 14 27 8 0 12 5 9 10 -4 6 23 -1 59 -14 36
-14 68 -21 71 -16 3 4 0 10 -6 12 -16 5 -1 48 17 48 16 0 19 16 4 25 -8 5 -7
11 0 21 7 7 13 51 15 96 1 46 4 88 5 93 1 6 2 33 1 60 l-2 50 -14 -33 -14 -33
-35 23 c-20 13 -30 25 -24 29 6 4 0 7 -13 8 -13 0 -51 3 -84 5 -50 5 -67 2
-104 -18z"/>
<path d="M1680 901 c0 -6 -6 -11 -14 -11 -19 0 -31 -19 -20 -30 5 -5 21 -6 35
-3 20 4 25 9 22 24 -6 21 -23 36 -23 20z"/>
<path d="M2200 896 c0 -9 4 -15 9 -12 4 3 16 -3 26 -14 10 -11 26 -20 36 -20
10 0 25 -13 33 -29 8 -15 29 -34 46 -41 17 -7 37 -22 45 -33 10 -15 29 -21 70
-25 61 -5 79 14 23 25 -27 5 -29 7 -13 14 18 6 17 7 -7 14 -15 4 -30 16 -33
26 -4 10 -13 19 -21 19 -8 0 -14 5 -14 10 0 6 -12 11 -27 12 -16 1 4 4 42 7
l70 6 -42 14 c-24 8 -43 19 -43 24 0 6 -9 2 -19 -7 -31 -28 -125 -25 -156 4
-22 20 -25 21 -25 6z"/>
<path d="M602 870 c0 -19 2 -27 5 -17 2 9 2 25 0 35 -3 9 -5 1 -5 -18z"/>
<path d="M846 891 c-4 -6 -9 -34 -11 -63 l-5 -53 14 60 c14 59 14 76 2 56z"/>
<path d="M1147 882 c5 -4 12 -13 14 -20 3 -8 7 -7 15 5 9 15 7 18 -14 20 -14
0 -21 -2 -15 -5z"/>
<path d="M1536 864 c-4 -10 -1 -14 6 -12 15 5 23 28 10 28 -5 0 -13 -7 -16
-16z"/>
<path d="M861 854 c0 -11 3 -14 6 -6 3 7 2 16 -1 19 -3 4 -6 -2 -5 -13z"/>
<path d="M2008 842 c19 -21 27 -20 19 3 -4 8 -13 15 -22 15 -13 0 -12 -3 3
-18z"/>
<path d="M1570 795 c-13 -14 -21 -27 -18 -30 2 -3 15 6 28 20 13 14 21 27 18
30 -2 3 -15 -6 -28 -20z"/>
<path d="M1090 794 c0 -8 5 -12 10 -9 6 3 10 10 10 16 0 5 -4 9 -10 9 -5 0
-10 -7 -10 -16z"/>
<path d="M2090 780 c0 -8 24 -20 41 -20 6 0 8 4 5 9 -8 12 -46 21 -46 11z"/>
<path d="M864 770 c-11 -4 -35 -21 -53 -37 -25 -23 -33 -42 -41 -88 -5 -32 -7
-62 -4 -67 16 -25 88 -49 151 -49 41 -1 75 -6 89 -16 13 -8 28 -12 34 -8 5 3
16 3 23 -2 6 -4 21 -9 32 -10 18 -2 18 -2 3 8 -10 5 -21 9 -24 9 -18 -4 -20
26 -3 54 39 64 13 167 -51 198 -37 19 -120 23 -156 8z m101 -94 c27 -12 35
-21 35 -40 0 -34 -25 -56 -65 -56 -63 0 -93 62 -47 98 20 16 35 15 77 -2z"/>
<path d="M2490 700 c-24 -6 -24 -6 -5 -17 11 -7 19 -14 18 -17 -12 -27 16 -36
36 -12 9 11 9 15 -1 19 -8 4 -7 6 5 6 9 1 17 5 17 10 0 12 -40 18 -70 11z"/>
<path d="M1579 674 c19 -8 36 -12 39 -9 3 3 11 0 19 -6 10 -9 13 -8 13 3 0 10
-14 18 -37 22 -60 9 -71 6 -34 -10z"/>
<path d="M1902 667 c-11 -13 -9 -18 10 -31 32 -23 48 -20 48 9 0 29 -14 33
-25 8 -7 -16 -9 -15 -14 6 -6 21 -8 22 -19 8z"/>
<path d="M225 650 c3 -5 8 -10 11 -10 2 0 4 5 4 10 0 6 -5 10 -11 10 -5 0 -7
-4 -4 -10z"/>
<path d="M1700 630 l-23 -20 23 0 c13 0 20 3 17 7 -4 3 -2 12 4 20 17 19 5 16
-21 -7z"/>
<path d="M210 630 c0 -5 5 -10 11 -10 5 0 7 5 4 10 -3 6 -8 10 -11 10 -2 0 -4
-4 -4 -10z"/>
<path d="M180 615 c0 -8 4 -15 10 -15 5 0 7 7 4 15 -4 8 -8 15 -10 15 -2 0 -4
-7 -4 -15z"/>
<path d="M2372 623 c-6 -3 -10 -9 -6 -14 3 -5 0 -9 -5 -9 -13 0 -10 -27 5 -54
9 -15 12 -11 17 30 6 55 6 53 -11 47z"/>
<path d="M1730 600 c0 -5 5 -10 11 -10 5 0 7 5 4 10 -3 6 -8 10 -11 10 -2 0
-4 -4 -4 -10z"/>
<path d="M2568 570 c12 -5 25 -16 28 -24 3 -8 13 -12 25 -9 28 8 23 20 -12 32
-39 13 -75 14 -41 1z"/>
<path d="M2305 560 c4 -6 11 -8 16 -5 14 9 11 15 -7 15 -8 0 -12 -5 -9 -10z"/>
<path d="M178 533 c-10 -2 -18 -8 -18 -13 0 -17 12 -40 22 -40 5 0 7 4 3 9 -3
5 2 16 10 24 25 25 21 30 -17 20z"/>
<path d="M830 506 c19 -18 64 -63 100 -100 35 -36 68 -66 74 -66 5 0 -2 10
-16 23 -13 12 -40 42 -59 67 -18 25 -41 51 -49 58 -13 10 -12 11 5 6 l20 -6
-20 14 c-11 8 -36 20 -55 27 l-35 11 35 -34z"/>
<path d="M740 516 c0 -9 5 -16 10 -16 6 0 10 4 10 9 0 6 -4 13 -10 16 -5 3
-10 -1 -10 -9z"/>
<path d="M1202 500 c-18 -16 -36 -30 -41 -30 -5 0 -11 -11 -13 -24 -3 -21 -6
-22 -28 -13 -84 35 -88 35 -98 13 -8 -18 -3 -28 35 -66 24 -25 51 -60 60 -77
8 -18 19 -33 24 -33 5 0 9 -13 9 -29 0 -23 5 -30 25 -33 26 -5 34 9 15 28 -20
20 -49 86 -43 100 5 13 8 12 25 -2 10 -10 16 -24 13 -31 -2 -8 -1 -12 3 -9 4
2 17 -9 27 -25 14 -19 26 -27 38 -23 12 4 17 0 17 -13 0 -10 5 -25 10 -33 9
-13 11 -13 19 -1 8 12 16 9 48 -18 21 -18 76 -57 123 -87 47 -31 94 -64 106
-75 19 -18 39 -19 360 -18 l339 0 -65 24 c-35 13 -87 29 -115 36 -27 6 -54 15
-60 19 -5 4 -32 13 -60 20 -27 7 -59 19 -70 27 -11 7 -29 13 -41 13 -12 0 -35
6 -51 14 -78 40 -181 72 -143 45 12 -9 11 -10 -5 -6 -11 3 -34 11 -51 18 -27
11 -37 10 -67 -4 -44 -21 -44 -21 -50 3 -3 11 -16 24 -30 29 -30 11 -108 86
-100 95 4 3 1 6 -5 6 -7 0 -12 5 -12 10 0 15 30 12 36 -4 7 -19 130 -96 153
-96 10 0 31 -5 48 -10 36 -13 85 2 77 23 -4 10 3 15 21 15 15 0 29 -7 32 -15
3 -8 12 -12 20 -9 8 3 11 2 8 -3 -3 -5 -1 -12 4 -16 6 -3 8 -12 4 -20 -3 -8 0
-15 6 -15 17 0 9 51 -10 63 -9 6 -14 18 -12 27 4 17 -24 37 -35 25 -3 -3 0 -5
6 -5 7 0 12 -7 12 -16 0 -13 -3 -14 -14 -5 -11 9 -15 9 -18 0 -3 -9 -11 -6
-26 9 -21 21 -22 21 -22 3 0 -23 -16 -36 -25 -21 -3 5 -17 10 -30 10 -48 0
-40 28 13 50 28 11 31 15 17 22 -11 7 -22 5 -34 -6 -21 -19 -111 -22 -111 -5
0 8 13 9 39 5 29 -4 42 -2 54 12 9 10 13 22 9 28 -4 6 -45 24 -92 39 -47 15
-114 43 -149 61 -35 19 -72 34 -81 34 -9 0 -31 -13 -48 -30z m160 -187 c63
-65 91 -90 95 -83 1 3 10 -5 19 -18 9 -13 13 -26 9 -30 -3 -3 -10 0 -15 8 -8
13 -10 12 -10 -2 0 -23 -17 -31 -37 -18 -16 10 -15 11 5 7 12 -3 22 -1 22 4 0
5 -4 9 -9 9 -6 0 -24 15 -42 33 -17 17 -28 26 -24 19 6 -11 3 -11 -14 0 -13 8
-21 23 -21 40 0 14 -6 33 -12 40 -28 29 -40 48 -31 48 6 0 35 -26 65 -57z
m-75 -95 c-3 -8 -6 -5 -6 6 -1 11 2 17 5 13 3 -3 4 -12 1 -19z"/>
<path d="M2640 521 c0 -7 -6 -11 -14 -8 -9 4 -12 0 -9 -12 2 -10 -3 -25 -12
-35 -22 -21 -13 -20 36 5 22 11 39 25 37 30 -2 6 -7 10 -12 9 -5 -1 -13 4 -17
12 -7 11 -9 11 -9 -1z"/>
<path d="M2526 510 c-17 -6 -18 -7 -3 -13 9 -3 19 -2 23 4 9 15 2 18 -20 9z"/>
<path d="M763 493 c-17 -6 -16 -23 1 -23 8 0 24 -9 37 -20 l24 -20 -30 15
c-50 24 -143 44 -199 44 -41 -1 -55 -5 -65 -21 -14 -23 -2 -38 31 -38 10 0 39
-20 66 -44 40 -35 64 -47 122 -61 61 -15 74 -16 81 -4 8 12 11 12 19 -1 9 -13
11 -13 20 0 6 8 8 29 6 45 -5 28 -4 28 6 8 6 -13 17 -23 24 -23 7 0 15 -6 18
-12 3 -7 4 1 0 17 -3 17 -10 32 -15 34 -6 2 -14 14 -19 27 -6 14 -15 22 -23
18 -8 -3 -23 6 -33 19 -23 28 -54 46 -71 40z m-28 -85 c25 -12 45 -26 45 -30
0 -15 -51 -8 -90 12 -77 39 -34 56 45 18z"/>
<path d="M846 456 c3 -9 11 -16 16 -16 13 0 5 23 -10 28 -7 2 -10 -2 -6 -12z"/>
<path d="M387 403 c-4 -3 -7 -12 -7 -19 0 -11 5 -11 25 -2 14 6 25 15 25 20 0
10 -34 11 -43 1z"/>
<path d="M498 363 c7 -3 16 -2 19 1 4 3 -2 6 -13 5 -11 0 -14 -3 -6 -6z"/>
<path d="M1669 342 c11 -8 11 -10 0 -14 -10 -3 -9 -6 3 -10 11 -5 15 -2 14 10
-2 9 -9 18 -17 20 -12 3 -12 2 0 -6z"/>
<path d="M1010 320 c0 -5 5 -10 11 -10 5 0 7 5 4 10 -3 6 -8 10 -11 10 -2 0
-4 -4 -4 -10z"/>
<path d="M530 281 c0 -12 38 -21 58 -14 13 6 13 8 -4 14 -27 11 -54 11 -54 0z"/>
<path d="M460 270 c0 -5 5 -10 10 -10 6 0 10 5 10 10 0 6 -4 10 -10 10 -5 0
-10 -4 -10 -10z"/>
<path d="M760 256 c0 -8 8 -21 18 -28 23 -16 44 -53 35 -62 -3 -3 1 -6 10 -6
25 0 21 11 -19 63 -40 51 -44 54 -44 33z"/>
<path d="M0 199 c0 -57 2 -62 37 -95 36 -34 60 -31 30 4 -10 12 -12 25 -6 47
8 29 11 30 56 28 36 -2 43 -1 28 6 -11 5 -30 10 -42 10 -13 1 -23 4 -23 9 0 8
-62 52 -73 52 -4 0 -7 -27 -7 -61z"/>
<path d="M510 250 c20 -13 33 -13 25 0 -3 6 -14 10 -23 10 -15 0 -15 -2 -2
-10z"/>
<path d="M585 250 c3 -5 11 -10 16 -10 6 0 7 5 4 10 -3 6 -11 10 -16 10 -6 0
-7 -4 -4 -10z"/>
<path d="M1886 213 c7 -31 12 -38 18 -32 7 7 -6 59 -15 59 -5 0 -6 -12 -3 -27z"/>
<path d="M1710 219 c0 -5 5 -7 10 -4 6 3 10 8 10 11 0 2 -4 4 -10 4 -5 0 -10
-5 -10 -11z"/>
<path d="M1933 210 c4 -14 7 -28 7 -32 0 -5 6 -8 14 -8 18 0 10 34 -12 52 -13
11 -15 10 -9 -12z"/>
<path d="M1856 205 c-9 -26 -7 -32 5 -12 6 10 9 21 6 23 -2 3 -7 -2 -11 -11z"/>
<path d="M1210 179 c0 -5 -4 -8 -9 -4 -5 3 -3 -9 6 -25 8 -17 25 -35 37 -40
11 -4 43 -31 71 -59 39 -40 56 -51 80 -50 16 0 24 3 17 6 -6 2 -10 9 -7 14 4
5 -2 6 -11 2 -13 -5 -16 -2 -11 9 4 12 1 14 -14 11 -14 -4 -19 0 -19 16 0 14
-5 19 -15 15 -15 -6 -64 40 -93 89 -17 27 -32 36 -32 16z"/>
<path d="M175 170 c3 -5 16 -10 28 -10 21 0 87 -34 87 -45 0 -15 -34 -55 -46
-55 -8 0 -17 -7 -20 -15 -8 -19 -44 -19 -70 0 -25 19 -44 19 -44 0 0 -29 62
-46 161 -43 l93 3 7 32 c3 18 12 39 18 47 10 12 -2 21 -68 55 -76 38 -162 57
-146 31z"/>
<path d="M1850 160 c0 -5 5 -10 10 -10 6 0 10 5 10 10 0 6 -4 10 -10 10 -5 0
-10 -4 -10 -10z"/>
<path d="M1880 165 c0 -2 10 -10 23 -16 20 -11 21 -11 8 4 -13 16 -31 23 -31
12z"/>
<path d="M695 120 c-13 -5 -15 -9 -7 -14 20 -12 13 -24 -10 -20 -15 3 -12 -1
10 -11 18 -8 32 -23 32 -32 0 -14 3 -13 16 5 10 15 26 22 47 22 30 0 31 1 10
13 -65 37 -81 43 -98 37z"/>
<path d="M1056 101 c-7 -11 8 -44 38 -78 17 -21 29 -23 105 -23 l85 0 -39 41
c-22 22 -47 44 -55 49 -26 14 -127 23 -134 11z"/>
<path d="M2160 100 c0 -6 7 -10 15 -10 8 0 15 2 15 4 0 2 -7 6 -15 10 -8 3
-15 1 -15 -4z"/>
<path d="M2263 93 c-13 -2 -23 -8 -23 -13 0 -10 38 -1 46 11 3 5 4 8 2 8 -2
-1 -13 -4 -25 -6z"/>
<path d="M890 79 c0 -8 11 -26 25 -39 32 -30 33 -10 0 27 -17 20 -24 23 -25
12z"/>
<path d="M2320 70 c0 -5 5 -10 11 -10 5 0 7 5 4 10 -3 6 -8 10 -11 10 -2 0 -4
-4 -4 -10z"/>
<path d="M2455 50 c-3 -6 1 -7 9 -4 18 7 21 14 7 14 -6 0 -13 -4 -16 -10z"/>
<path d="M2488 33 c7 -3 16 -2 19 1 4 3 -2 6 -13 5 -11 0 -14 -3 -6 -6z"/>
</g>
</svg>
