<?xml version="1.0" standalone="no"?>
<!DOCTYPE svg PUBLIC "-//W3C//DTD SVG 20010904//EN"
 "http://www.w3.org/TR/2001/REC-SVG-20010904/DTD/svg10.dtd">
<svg version="1.0" xmlns="http://www.w3.org/2000/svg"
 width="275.000000pt" height="183.000000pt" viewBox="0 0 275.000000 183.000000"
 preserveAspectRatio="xMidYMid meet">

<g transform="translate(0.000000,183.000000) scale(0.100000,-0.100000)"
fill="#000000" stroke="none">
<path d="M0 915 l0 -915 1375 0 1375 0 0 915 0 915 -1375 0 -1375 0 0 -915z
m1868 330 c16 -16 16 -17 -7 -10 -13 4 -30 8 -37 9 -7 1 -16 5 -20 8 -3 4 -13
4 -22 1 -10 -4 -13 -2 -8 5 10 17 74 8 94 -13z m162 19 c0 -3 -10 -9 -22 -13
-22 -9 -22 -9 7 -16 17 -4 35 -13 40 -19 12 -13 164 -76 185 -76 8 -1 24 -7
34 -15 11 -8 28 -15 37 -15 10 0 23 -8 28 -17 10 -17 10 -17 11 0 0 10 5 15
10 12 19 -12 11 -45 -11 -45 -11 0 -17 -4 -14 -10 10 -17 -11 -35 -55 -50 -22
-7 -40 -17 -40 -21 0 -4 -10 -9 -22 -12 -22 -3 -21 -4 7 -17 17 -8 36 -14 44
-14 26 -2 23 -25 -4 -32 -19 -5 -24 -9 -15 -18 8 -8 13 -8 18 0 4 6 21 14 37
18 17 4 52 18 78 32 84 42 132 23 52 -20 -28 -15 -33 -22 -23 -33 9 -11 6 -15
-13 -21 -22 -6 -21 -7 11 -12 20 -3 34 -11 32 -18 -1 -7 3 -12 9 -12 5 0 8 -4
5 -9 -3 -5 -16 -7 -28 -3 -15 4 -19 2 -13 -7 6 -10 3 -11 -13 -2 -12 6 -24 16
-28 22 -3 6 -9 7 -13 2 -3 -5 -26 -17 -51 -28 -25 -11 -48 -23 -51 -28 -3 -4
-35 -11 -70 -16 -57 -7 -61 -8 -34 -16 17 -5 56 -4 94 3 36 6 68 9 73 6 11 -7
-17 -34 -34 -34 -10 0 -9 -3 2 -11 11 -7 5 -8 -20 -4 -30 5 -42 1 -74 -24 -23
-19 -50 -31 -68 -31 -17 0 -27 -4 -23 -10 3 -5 0 -19 -8 -30 -12 -18 -15 -18
-43 -4 -26 14 -32 14 -57 -1 -15 -9 -36 -14 -46 -10 -13 4 -20 0 -24 -16 -4
-15 -11 -19 -24 -15 -10 3 -31 2 -48 -3 -25 -8 -26 -9 -7 -10 23 -1 29 -15 11
-26 -6 -4 -26 -7 -45 -7 -22 0 -34 -5 -34 -13 0 -21 -19 -28 -36 -14 -9 7 -36
12 -62 11 -125 -7 -187 -15 -206 -27 -12 -8 -31 -12 -44 -8 -25 6 -30 23 -7
23 9 0 18 6 21 14 3 8 14 16 25 19 12 3 17 11 13 20 -7 20 -32 11 -64 -25
l-26 -28 -214 -6 c-162 -4 -221 -9 -237 -20 -22 -14 -23 -13 -23 23 0 50 22
65 76 52 22 -4 48 -8 59 -8 11 1 1 5 -23 11 -39 9 -41 11 -31 31 l12 22 -23
-20 c-12 -11 -23 -20 -25 -20 -2 0 -13 9 -26 20 -21 18 -22 18 -9 1 14 -18 13
-18 -10 -12 -19 6 -22 5 -10 -3 13 -10 12 -14 -9 -30 -13 -10 -21 -23 -18 -28
6 -9 -92 -6 -102 3 -2 2 4 15 13 29 14 22 24 26 54 23 28 -2 38 1 40 14 3 13
-4 17 -30 16 -42 0 -65 5 -79 19 -13 13 2 12 32 -1 10 -4 37 -2 60 5 37 10 41
13 24 20 -19 7 -19 8 2 8 12 1 24 -3 27 -8 9 -13 46 -1 46 15 0 7 6 11 14 8
16 -6 56 41 56 67 0 13 -7 19 -22 19 -21 0 -21 0 -2 14 19 15 70 12 89 -5 16
-15 53 -10 64 9 6 9 11 12 11 6 0 -22 72 -25 108 -4 27 16 34 17 38 6 3 -8 22
-17 43 -21 24 -4 40 -13 46 -28 9 -19 19 -22 90 -24 45 -2 74 0 67 5 -9 6 -6
12 13 20 22 10 25 10 23 -4 -2 -10 4 -19 12 -21 13 -4 13 -3 0 6 -13 9 -13 11
3 11 9 0 17 -4 17 -10 0 -5 5 -10 10 -10 6 0 3 11 -6 25 l-16 25 55 0 c34 0
59 -5 66 -14 13 -15 5 -46 -13 -46 -6 0 -2 -7 8 -15 10 -8 23 -12 28 -9 5 3
16 3 25 0 12 -5 13 -9 3 -21 -10 -12 -10 -15 3 -15 9 0 27 4 41 10 14 5 26 6
26 1 0 -15 38 -19 44 -5 3 9 20 14 42 14 21 0 46 7 56 17 11 9 18 11 18 5 0
-7 -5 -12 -12 -12 -6 0 -9 -2 -6 -5 3 -3 11 -3 19 0 17 7 22 75 6 76 -7 1 -16
2 -22 4 -5 1 -18 3 -28 3 -13 2 -17 9 -15 29 2 16 -2 28 -9 29 -7 1 -20 2 -29
3 -8 0 -13 5 -10 10 6 10 -39 19 -67 13 -9 -2 -15 -8 -12 -13 5 -8 -29 -13
-72 -12 -7 1 -13 -4 -13 -9 0 -5 -10 -8 -22 -6 -16 2 -24 11 -26 28 -2 23 -1
24 11 8 15 -19 33 -25 22 -8 -4 6 1 7 11 3 10 -4 15 -2 11 3 -3 6 9 8 31 6 50
-5 22 15 -33 23 -44 7 -85 24 -85 36 0 6 33 17 80 25 8 1 31 7 51 12 20 5 43
6 50 2 8 -5 26 -6 41 -3 23 4 26 8 18 23 -12 22 -4 30 31 30 15 0 31 5 35 12
4 7 3 8 -4 4 -7 -4 -12 -1 -12 8 0 9 -8 16 -17 16 -12 1 -5 8 17 20 l35 20
-30 -6 c-16 -3 -35 -7 -41 -9 -18 -5 -56 26 -50 41 3 9 -4 16 -20 20 -30 8
-36 3 -38 -29 -1 -21 -6 -25 -33 -24 -26 1 -30 4 -21 14 14 18 8 22 -17 12
-11 -4 -15 -8 -10 -8 6 -1 11 -10 12 -21 2 -22 -10 -24 -42 -9 -19 9 -18 9 3
5 12 -2 22 0 22 5 0 18 -28 20 -57 6 -32 -17 -71 -57 -56 -57 6 0 14 -11 17
-24 3 -14 17 -28 33 -34 l28 -10 -29 -11 c-20 -8 -32 -8 -41 -1 -9 7 -16 6
-25 -5 -7 -8 -9 -15 -5 -15 4 0 2 -7 -5 -15 -7 -8 -20 -15 -29 -15 -13 1 -13
3 4 16 l20 16 -20 -6 c-11 -3 -26 -2 -33 2 -9 6 -6 12 13 20 14 6 25 17 25 24
0 6 7 3 15 -8 14 -19 16 -17 19 23 2 26 -33 28 -55 4 -11 -12 -29 -21 -41 -21
-12 0 -37 -12 -57 -27 -20 -14 -30 -20 -23 -13 15 18 16 34 0 24 -8 -5 -9 -2
-5 10 12 30 -31 -1 -49 -37 -16 -29 -18 -30 -25 -12 -6 17 -8 17 -8 3 -1 -10
-5 -18 -11 -18 -5 0 -10 -5 -10 -10 0 -7 13 -8 38 -4 59 12 176 10 189 -3 7
-6 18 -13 25 -16 10 -3 10 -8 2 -17 -9 -9 -15 -7 -26 8 -10 15 -18 18 -28 11
-8 -5 -10 -9 -5 -10 6 0 1 -4 -10 -8 -11 -5 -28 -4 -37 1 -19 9 -26 -6 -8 -17
6 -3 10 -11 10 -18 0 -8 -3 -8 -11 0 -6 6 -18 9 -25 6 -10 -4 -12 0 -7 13 6
17 5 17 -10 6 -9 -8 -22 -12 -29 -10 -7 3 -18 -2 -24 -10 -15 -21 -54 5 -54
37 0 18 -4 22 -20 18 -11 -3 -23 -1 -26 4 -5 8 9 13 29 10 4 0 7 6 7 14 0 9 6
12 15 9 11 -5 15 1 15 18 0 14 9 33 20 43 19 17 19 18 -1 34 -15 12 -18 23
-13 48 3 18 10 31 14 28 3 -2 7 2 7 8 0 9 -10 12 -28 9 -18 -3 -26 -9 -23 -17
4 -10 -6 -13 -39 -13 -24 1 -67 -7 -95 -17 -45 -16 -49 -20 -34 -31 16 -13 16
-13 0 -14 -21 0 -24 -16 -5 -24 6 -4 1 -4 -12 -2 -13 3 -31 0 -41 -7 -14 -8
-22 -8 -34 2 -20 17 -73 5 -86 -19 -6 -12 -18 -17 -30 -15 -11 2 -20 0 -20 -6
0 -5 6 -10 13 -10 103 -10 157 -20 157 -30 0 -6 4 -8 9 -4 5 3 12 1 15 -4 7
-10 -44 -51 -63 -51 -6 0 -11 5 -11 11 0 6 -7 8 -17 5 -15 -6 -15 -5 -1 11 8
10 19 24 23 32 9 16 0 12 -47 -21 -29 -20 -58 -24 -58 -7 0 6 -7 8 -16 5 -11
-4 -15 -2 -11 8 4 9 -2 13 -19 14 -13 0 -21 -4 -18 -9 3 -5 -2 -6 -10 -3 -23
9 -20 13 15 28 44 18 23 25 -31 10 -25 -7 -39 -13 -31 -13 9 -1 11 -9 7 -26
-5 -18 -2 -25 9 -25 34 0 12 -18 -31 -25 -61 -9 -74 -38 -31 -74 28 -23 28
-25 11 -38 -17 -13 -16 -14 11 -9 17 3 37 1 45 -4 13 -9 13 -10 0 -11 -27 -3
-84 -7 -120 -9 -35 -2 -35 -2 -7 -10 37 -11 87 -65 76 -82 -5 -7 -9 -9 -9 -4
0 5 -9 1 -20 -9 -18 -17 -26 -17 -68 -7 -26 6 -62 14 -81 17 -19 3 -39 9 -45
13 -6 3 -15 7 -21 8 -5 0 -16 2 -22 2 -8 1 -10 12 -6 32 4 23 2 30 -10 30 -8
0 -17 6 -20 13 -3 9 -7 9 -20 -2 -21 -17 -54 -7 -39 12 6 7 7 19 3 26 -6 10
-17 4 -41 -23 -38 -41 -55 -45 -70 -16 -6 11 -15 20 -21 20 -6 0 -6 -7 1 -19
17 -33 12 -41 -17 -25 -16 7 -34 14 -40 14 -7 0 -13 5 -13 10 0 6 6 10 14 10
7 0 19 6 25 14 9 11 5 15 -21 19 -18 2 -38 1 -43 -4 -16 -12 -55 -7 -55 8 0 7
-4 13 -10 13 -37 0 33 -84 102 -124 57 -32 63 -42 11 -18 -90 40 -163 104
-188 164 -20 49 -19 76 5 121 11 20 20 45 20 55 0 20 45 72 62 72 7 0 23 11
37 24 35 32 139 86 165 85 14 0 9 -5 -17 -14 -49 -18 -88 -45 -65 -45 9 0 23
6 30 13 7 7 49 21 93 31 44 9 88 21 97 27 10 5 24 9 32 9 8 0 21 9 28 19 13
18 102 71 119 71 5 0 9 -7 9 -15 0 -8 9 -15 21 -15 11 0 18 4 14 9 -11 18 21
26 107 26 61 0 89 -4 93 -12 2 -7 12 -13 20 -13 9 0 13 5 10 10 -3 6 0 10 7
10 7 0 23 3 36 6 13 4 22 2 22 -5 0 -6 -7 -11 -16 -11 -8 0 -12 -5 -9 -10 5
-8 12 -7 22 2 21 17 40 18 54 2 9 -11 7 -14 -12 -15 -13 -1 -28 -1 -32 0 -5 1
-6 -3 -3 -8 6 -9 59 -19 121 -24 17 -1 36 -6 43 -10 15 -10 69 0 78 15 4 6 -3
20 -16 30 -27 22 -19 36 45 76 38 25 108 34 124 16 3 -4 -6 -4 -22 -2 -28 5
-46 -6 -27 -17 6 -4 8 -10 5 -15 -7 -11 66 0 82 12 6 5 23 6 37 2 14 -3 26 -2
26 3 0 5 6 10 13 10 6 0 31 3 55 7 28 5 42 4 42 -3 0 -6 5 -11 10 -11 5 0 9 6
8 13 -2 7 11 13 35 15 28 2 37 0 37 -12 0 -9 9 -16 21 -16 11 0 18 -4 15 -8
-6 -10 33 -8 58 3 14 6 24 3 38 -14 11 -14 18 -18 18 -10 0 19 45 38 71 32 12
-4 27 2 38 13 16 17 61 30 61 18z m-776 -19 c-4 -8 -12 -15 -20 -15 -20 0 -17
18 4 23 9 3 18 5 19 6 1 0 0 -6 -3 -14z m193 -1 c-3 -3 -12 -4 -19 -1 -8 3 -5
6 6 6 11 1 17 -2 13 -5z m-622 -34 c3 -5 1 -10 -4 -10 -6 0 -11 5 -11 10 0 6
2 10 4 10 3 0 8 -4 11 -10z m35 0 c0 -5 -2 -10 -4 -10 -3 0 -8 5 -11 10 -3 6
-1 10 4 10 6 0 11 -4 11 -10z m1464 -65 c11 -8 16 -15 10 -15 -5 0 -18 7 -28
15 -11 8 -16 15 -10 15 5 0 18 -7 28 -15z m96 -71 c0 -2 -7 -4 -15 -4 -8 0
-15 4 -15 10 0 5 7 7 15 4 8 -4 15 -8 15 -10z m0 -25 c0 -5 4 -7 10 -4 6 3 7
-1 4 -10 -4 -9 -7 -15 -8 -13 -1 2 -8 11 -15 21 -9 11 -10 17 -2 17 6 0 11 -5
11 -11z m140 -54 c0 -30 -20 -33 -45 -5 -10 11 -13 20 -7 20 6 0 14 -4 17 -10
9 -15 25 -12 25 5 0 8 2 15 5 15 3 0 5 -11 5 -25z m-790 -14 c0 -10 -50 -25
-58 -16 -3 3 2 5 11 5 10 0 17 5 17 10 0 6 7 10 15 10 8 0 15 -4 15 -9z m-436
-42 c8 -9 8 -10 -1 -5 -12 7 -53 -13 -53 -25 0 -4 10 -5 23 -2 19 4 18 2 -5
-12 -16 -8 -28 -18 -28 -21 0 -2 12 -1 28 2 l27 7 -28 -27 c-28 -26 -57 -35
-57 -16 0 6 12 11 28 11 16 1 20 3 10 6 -12 3 -18 14 -18 32 0 20 -5 27 -19
27 -15 0 -17 -3 -9 -13 7 -9 7 -13 -1 -13 -7 0 -9 -5 -5 -12 5 -8 2 -9 -9 -5
-20 8 -21 3 -5 -23 11 -17 9 -22 -10 -36 -12 -8 -20 -19 -17 -23 2 -5 -6 -13
-19 -19 -21 -9 -23 -8 -23 19 0 16 5 29 11 28 34 -4 38 1 32 36 -4 21 -3 35 3
35 6 0 8 7 5 15 -9 23 54 57 95 51 19 -3 39 -11 45 -17z m1200 -5 c8 -22 7
-61 -2 -49 -11 15 -45 12 -59 -5 -11 -13 -12 -13 -13 2 0 10 14 25 30 33 17 9
28 20 25 25 -4 6 -2 10 3 10 6 0 13 -7 16 -16z m-1373 -27 c-10 -9 -11 -8 -5
6 3 10 9 15 12 12 3 -3 0 -11 -7 -18z m1439 3 c13 -9 13 -10 0 -10 -8 0 -22 5
-30 10 -13 9 -13 10 0 10 8 0 22 -5 30 -10z m77 -36 c-7 -7 -37 7 -37 17 0 6
9 5 21 -1 11 -7 19 -14 16 -16z m-129 -11 c-8 -10 -6 -13 5 -13 17 0 33 -18
24 -26 -3 -3 -15 0 -27 6 -17 9 -21 9 -15 0 4 -7 1 -10 -11 -8 -13 2 -19 -3
-18 -15 2 -14 -1 -15 -11 -7 -8 6 -12 17 -9 24 3 8 -4 16 -18 19 -21 6 -22 7
-5 19 24 18 99 18 85 1z m-1278 -64 c0 -11 -4 -18 -8 -15 -5 3 -21 -1 -35 -9
-25 -13 -26 -13 -17 5 10 19 37 39 53 40 4 0 7 -9 7 -21z m1191 -32 c-10 -9
-11 -8 -5 6 3 10 9 15 12 12 3 -3 0 -11 -7 -18z m-1502 -3 c2 -2 -20 -5 -50
-5 -41 -1 -47 -3 -25 -8 43 -9 46 -31 4 -30 -18 0 -42 4 -53 8 -19 8 -19 8 0
19 11 6 16 12 10 12 -5 1 -1 5 10 10 18 7 94 3 104 -6z m1471 -13 c0 -4 -9
-14 -19 -23 -18 -16 -20 -16 -23 0 -4 21 13 41 29 35 7 -3 13 -8 13 -12z
m-575 -1 c3 -5 1 -10 -4 -10 -6 0 -11 5 -11 10 0 6 2 10 4 10 3 0 8 -4 11 -10z
m-965 -49 c0 -9 -59 -1 -64 8 -3 4 11 5 30 3 19 -2 34 -7 34 -11z m129 -7
c-14 -18 -24 -11 -15 11 3 9 11 13 16 10 8 -5 7 -11 -1 -21z m1231 -56 c0 -6
8 -17 18 -24 9 -7 12 -14 5 -14 -6 0 -19 7 -27 16 -9 8 -16 11 -16 5 0 -6 -10
-9 -22 -7 -13 3 -29 5 -35 5 -25 2 -13 18 20 28 35 10 57 7 57 -9z m271 -18
c-13 -11 -28 -20 -35 -20 -6 0 3 9 19 20 38 25 47 25 16 0z m-381 6 c0 -3 -4
-8 -10 -11 -5 -3 -10 -1 -10 4 0 6 5 11 10 11 6 0 10 -2 10 -4z m300 -56 c-8
-5 -19 -10 -25 -10 -5 0 -3 5 5 10 8 5 20 10 25 10 6 0 3 -5 -5 -10z m-73 -31
c-23 -14 -187 -69 -201 -68 -11 0 191 76 209 77 6 1 2 -3 -8 -9z m-245 -79
c-34 -14 -180 -42 -194 -38 -13 5 163 46 197 46 18 1 18 0 -3 -8z m-1252 -21
c0 -14 -88 -20 -119 -7 -30 12 -28 13 43 14 42 0 76 -3 76 -7z"/>
<path d="M1588 1213 c7 -3 16 -2 19 1 4 3 -2 6 -13 5 -11 0 -14 -3 -6 -6z"/>
<path d="M1913 1183 c0 -7 6 -13 14 -13 7 0 13 -5 13 -11 0 -6 12 -9 28 -7 15
2 26 8 25 16 -2 6 2 12 7 12 6 0 10 4 10 9 0 5 -22 8 -48 7 -32 -1 -49 -5 -49
-13z"/>
<path d="M1438 1182 c-52 -3 -56 -11 -33 -52 19 -33 19 -37 -7 -44 -22 -7 -22
-7 -3 -16 18 -7 19 -8 3 -15 -10 -4 -15 -11 -12 -17 3 -5 13 -3 23 7 13 11 32
14 68 11 61 -4 133 12 157 37 17 16 16 17 -11 17 -27 1 -26 2 15 27 34 20 41
28 29 35 -17 9 -153 15 -229 10z"/>
<path d="M1780 1180 c-13 -9 -13 -10 0 -9 8 0 24 4 35 9 l20 9 -20 0 c-11 0
-27 -4 -35 -9z"/>
<path d="M1327 1169 c7 -7 15 -10 18 -7 3 3 -2 9 -12 12 -14 6 -15 5 -6 -5z"/>
<path d="M1845 1170 c-3 -5 -1 -10 4 -10 6 0 11 5 11 10 0 6 -2 10 -4 10 -3 0
-8 -4 -11 -10z"/>
<path d="M748 1163 c7 -3 16 -2 19 1 4 3 -2 6 -13 5 -11 0 -14 -3 -6 -6z"/>
<path d="M845 1150 c3 -6 -5 -10 -19 -10 -14 0 -28 -5 -32 -12 -4 -7 -3 -8 4
-4 7 4 24 -4 39 -18 28 -26 50 -35 38 -16 -8 12 -3 13 28 1 30 -12 61 3 37 18
-8 5 -18 7 -22 5 -5 -3 -15 1 -23 8 -42 38 -64 50 -50 28z"/>
<path d="M1705 1130 c-3 -5 -1 -10 4 -10 6 0 11 5 11 10 0 6 -2 10 -4 10 -3 0
-8 -4 -11 -10z"/>
<path d="M1947 1133 c-4 -4 -30 -6 -58 -4 -84 4 -46 -16 42 -22 99 -6 126 1
72 19 -44 16 -47 16 -56 7z"/>
<path d="M2105 1110 c-3 -5 3 -10 15 -10 12 0 18 5 15 10 -3 6 -10 10 -15 10
-5 0 -12 -4 -15 -10z"/>
<path d="M580 1100 c0 -5 5 -10 11 -10 5 0 7 5 4 10 -3 6 -8 10 -11 10 -2 0
-4 -4 -4 -10z"/>
<path d="M2010 1088 c-32 -9 -49 -23 -50 -39 0 -3 24 -4 53 -2 46 4 50 2 31
-9 -12 -7 -19 -18 -17 -24 5 -16 49 -5 68 16 15 17 15 20 0 44 -19 28 -30 30
-85 14z"/>
<path d="M730 1066 c-11 -5 -20 -13 -20 -19 0 -5 -11 -6 -25 -3 -18 5 -27 2
-31 -9 -5 -12 -14 -14 -34 -10 -16 3 -31 2 -34 -3 -3 -6 -15 -8 -25 -5 -10 3
-22 0 -25 -6 -4 -6 -19 -11 -34 -12 -52 -2 39 -22 97 -21 50 0 53 -1 49 -23
-4 -19 1 -25 32 -34 48 -14 113 -14 161 1 36 10 53 28 28 28 -6 0 -9 7 -5 15
6 17 -19 45 -42 45 -13 0 -13 -2 4 -15 22 -17 15 -19 -18 -6 -13 5 -36 13 -53
16 -29 6 -29 7 -11 21 11 8 35 14 53 14 34 0 42 10 21 28 -15 12 -59 11 -88
-2z m-20 -56 c0 -5 -2 -10 -4 -10 -3 0 -8 5 -11 10 -3 6 -1 10 4 10 6 0 11 -4
11 -10z m-120 -20 c0 -5 -4 -10 -9 -10 -6 0 -13 5 -16 10 -3 6 1 10 9 10 9 0
16 -4 16 -10z"/>
<path d="M2288 1053 c7 -3 16 -2 19 1 4 3 -2 6 -13 5 -11 0 -14 -3 -6 -6z"/>
<path d="M2217 1043 c-4 -3 -7 -13 -7 -22 0 -13 2 -14 9 -2 5 8 16 11 25 8 10
-4 16 -1 16 8 0 15 -31 21 -43 8z"/>
<path d="M1120 1030 c0 -5 5 -10 10 -10 6 0 10 5 10 10 0 6 -4 10 -10 10 -5 0
-10 -4 -10 -10z"/>
<path d="M1595 1020 c3 -5 10 -10 16 -10 5 0 9 5 9 10 0 6 -7 10 -16 10 -8 0
-12 -4 -9 -10z"/>
<path d="M240 991 c0 -16 -4 -21 -15 -17 -8 3 -22 3 -30 0 -12 -5 -12 -9 0
-28 13 -19 13 -24 -3 -38 -30 -29 -42 -47 -42 -64 0 -13 -3 -14 -14 -5 -10 9
-16 8 -26 -4 -10 -13 -9 -15 9 -15 21 0 21 -1 6 -30 l-16 -30 38 0 c31 1 35 3
21 11 -20 11 -25 39 -7 39 5 0 7 5 4 10 -6 9 8 14 28 11 4 0 7 3 7 9 0 6 10
10 23 11 16 0 18 2 7 7 -8 4 -16 17 -17 30 -3 23 11 30 22 12 4 -6 15 -8 25
-5 15 5 17 2 13 -14 -6 -23 27 -41 75 -41 23 -1 25 -2 10 -11 -29 -16 -21 -44
17 -62 20 -9 44 -17 55 -17 10 0 22 -4 25 -10 7 -11 82 -12 105 -2 8 4 16 19
18 33 2 22 -4 27 -47 41 -45 14 -48 14 -44 -1 4 -14 -2 -16 -34 -13 -21 3 -32
7 -26 9 10 4 10 7 0 17 -10 10 -42 26 -57 28 -3 0 -11 9 -19 20 -8 12 -21 18
-32 15 -11 -3 -19 -1 -19 4 0 6 -12 20 -27 33 -22 19 -25 26 -15 38 9 12 9 19
-3 34 -14 18 -14 18 -15 -5z"/>
<path d="M2100 995 c0 -7 -6 -16 -12 -18 -10 -4 -9 -6 1 -6 11 -1 11 -4 1 -15
-6 -8 -18 -12 -25 -9 -20 7 -107 -28 -102 -41 5 -14 131 -10 135 4 2 6 9 7 15
3 7 -3 9 -3 5 2 -4 4 -1 17 7 29 21 29 19 53 -5 59 -13 3 -20 0 -20 -8z"/>
<path d="M1098 973 c7 -3 16 -2 19 1 4 3 -2 6 -13 5 -11 0 -14 -3 -6 -6z"/>
<path d="M140 931 c-14 -4 -20 -10 -15 -13 6 -3 21 0 35 8 27 14 20 16 -20 5z"/>
<path d="M336 920 c7 -7 19 -7 35 -1 23 9 22 10 -10 10 -24 1 -32 -2 -25 -9z"/>
<path d="M450 873 c8 -3 19 -11 23 -17 6 -7 7 -6 4 4 -2 8 -12 16 -23 17 -13
2 -15 1 -4 -4z"/>
<path d="M2163 855 c15 -11 7 -14 -58 -20 -41 -4 -73 -11 -69 -16 3 -5 -2 -9
-10 -9 -8 0 -17 -4 -20 -9 -3 -4 6 -6 19 -3 14 2 28 8 31 13 7 12 74 11 74 -1
0 -16 60 -12 77 5 19 20 4 41 -35 48 -24 5 -25 4 -9 -8z"/>
<path d="M1936 838 c5 -7 -1 -9 -19 -4 -14 3 -28 3 -30 -1 -3 -5 10 -9 28 -10
36 -3 55 11 29 21 -10 4 -13 2 -8 -6z"/>
<path d="M2252 843 c-10 -4 -10 -8 0 -21 8 -10 9 -13 1 -9 -17 10 -28 -12 -13
-26 10 -9 14 -9 17 1 3 6 11 12 19 12 8 0 14 9 14 19 0 14 8 21 28 24 19 3 15
4 -13 5 -22 0 -46 -2 -53 -5z"/>
<path d="M160 790 c0 -5 4 -10 9 -10 6 0 13 5 16 10 3 6 -1 10 -9 10 -9 0 -16
-4 -16 -10z"/>
<path d="M660 789 c0 -5 5 -7 10 -4 6 3 10 8 10 11 0 2 -4 4 -10 4 -5 0 -10
-5 -10 -11z"/>
<path d="M718 783 c7 -3 16 -2 19 1 4 3 -2 6 -13 5 -11 0 -14 -3 -6 -6z"/>
<path d="M1215 720 c-4 -6 -10 -8 -15 -5 -5 3 -11 1 -15 -5 -4 -6 5 -10 19
-10 16 0 26 6 26 15 0 17 -6 19 -15 5z"/>
<path d="M115 710 c3 -5 8 -10 11 -10 2 0 4 5 4 10 0 6 -5 10 -11 10 -5 0 -7
-4 -4 -10z"/>
<path d="M1660 710 c0 -5 5 -10 10 -10 6 0 10 5 10 10 0 6 -4 10 -10 10 -5 0
-10 -4 -10 -10z"/>
<path d="M658 693 c7 -3 16 -2 19 1 4 3 -2 6 -13 5 -11 0 -14 -3 -6 -6z"/>
<path d="M620 661 c0 -6 5 -13 12 -17 6 -4 8 -3 4 4 -3 5 0 13 6 15 8 3 6 6
-4 6 -10 1 -18 -3 -18 -8z"/>
<path d="M696 661 c-3 -5 10 -9 31 -9 24 0 32 3 22 9 -18 11 -46 11 -53 0z"/>
<path d="M1272 656 c-37 -10 -42 -14 -29 -24 12 -11 18 -10 28 1 14 14 59 11
59 -4 0 -5 24 -8 54 -8 47 1 53 4 49 20 -6 22 -19 25 -27 7 -4 -10 -8 -10 -11
-2 -4 8 -21 10 -47 6 -30 -3 -39 -2 -34 6 4 7 6 11 4 11 -2 -1 -23 -7 -46 -13z"/>
<path d="M1445 640 c9 -31 11 -33 24 -29 5 2 0 15 -11 29 l-21 25 8 -25z"/>
<path d="M1515 640 c3 -5 12 -7 20 -3 21 7 19 13 -6 13 -11 0 -18 -4 -14 -10z"/>
<path d="M1606 642 c-3 -4 4 -9 15 -9 23 -2 25 3 4 10 -8 4 -16 3 -19 -1z"/>
<path d="M1725 611 c-20 -8 -20 -8 1 -15 23 -7 54 1 54 15 0 11 -27 11 -55 0z"/>
<path d="M1166 581 c-10 -11 -24 -17 -31 -15 -7 3 -16 0 -20 -7 -6 -9 -1 -10
19 -7 20 4 26 2 24 -11 -2 -11 5 -16 25 -16 15 0 26 5 25 10 0 6 -11 9 -22 8
-20 -3 -20 -2 -1 6 13 5 28 3 43 -7 12 -8 22 -11 22 -7 0 4 6 2 14 -4 14 -12
116 -13 116 -2 0 6 -135 33 -178 35 -17 1 -22 6 -18 19 5 22 3 21 -18 -2z"/>
<path d="M1040 570 c0 -5 7 -10 16 -10 8 0 12 5 9 10 -3 6 -10 10 -16 10 -5 0
-9 -4 -9 -10z"/>
<path d="M1568 563 c6 -2 18 -2 25 0 6 3 1 5 -13 5 -14 0 -19 -2 -12 -5z"/>
</g>
</svg>
