<?xml version="1.0" standalone="no"?>
<!DOCTYPE svg PUBLIC "-//W3C//DTD SVG 20010904//EN"
 "http://www.w3.org/TR/2001/REC-SVG-20010904/DTD/svg10.dtd">
<svg version="1.0" xmlns="http://www.w3.org/2000/svg"
 width="329.000000pt" height="153.000000pt" viewBox="0 0 329.000000 153.000000"
 preserveAspectRatio="xMidYMid meet">

<g transform="translate(0.000000,153.000000) scale(0.100000,-0.100000)"
fill="#000000" stroke="none">
<path d="M2035 1491 c-3 -5 6 -18 20 -29 17 -14 21 -22 13 -25 -17 -7 19 -37
44 -37 10 0 18 -4 18 -10 0 -5 11 -9 25 -8 33 3 32 23 -1 25 -38 2 -50 25 -20
38 21 9 22 12 8 24 -13 13 -13 15 4 22 12 5 -5 8 -43 8 -34 1 -64 -3 -68 -8z
m60 -11 c-3 -5 -13 -10 -21 -10 -8 0 -12 5 -9 10 3 6 13 10 21 10 8 0 12 -4 9
-10z"/>
<path d="M1840 1480 c-23 -7 -22 -8 10 -8 19 0 44 3 55 8 17 7 15 9 -10 8 -16
0 -41 -4 -55 -8z"/>
<path d="M1779 1464 c-12 -14 -11 -16 5 -13 11 2 21 10 24 17 5 17 -13 15 -29
-4z"/>
<path d="M2195 1470 c19 -8 73 -14 64 -6 -2 2 -22 6 -44 9 -28 5 -34 4 -20 -3z"/>
<path d="M1470 1460 c-11 -8 -7 -9 15 -4 37 8 45 14 19 14 -10 0 -26 -5 -34
-10z"/>
<path d="M1561 1458 c8 -9 32 -12 73 -9 60 4 61 4 21 12 -22 4 -55 8 -73 8
-26 1 -30 -2 -21 -11z"/>
<path d="M1905 1460 c-4 -6 7 -10 24 -10 17 0 31 5 31 10 0 6 -11 10 -24 10
-14 0 -28 -4 -31 -10z"/>
<path d="M2278 1463 c7 -3 16 -2 19 1 4 3 -2 6 -13 5 -11 0 -14 -3 -6 -6z"/>
<path d="M2433 1453 c9 -2 23 -2 30 0 6 3 -1 5 -18 5 -16 0 -22 -2 -12 -5z"/>
<path d="M2516 1451 c-3 -5 1 -11 9 -15 8 -3 17 -1 20 5 4 5 10 7 15 4 5 -3
11 -1 15 5 4 6 -6 10 -24 10 -16 0 -32 -4 -35 -9z"/>
<path d="M1210 1416 l-25 -14 30 -4 c19 -2 31 -9 33 -21 4 -17 2 -17 -26 -3
-16 8 -32 12 -36 9 -3 -4 -6 -1 -6 5 0 7 -8 12 -17 12 -15 0 -16 2 -3 10 13 8
13 10 -1 10 -9 0 -22 -7 -29 -15 -7 -8 -18 -15 -25 -15 -16 0 -26 -25 -19 -45
5 -11 29 -14 123 -13 117 1 157 -6 130 -23 -7 -4 -18 -4 -24 1 -6 5 -21 7 -33
3 -21 -5 -21 -6 -5 -18 15 -11 14 -14 -15 -29 -42 -22 -40 -34 4 -42 22 -4 54
-23 81 -48 46 -43 94 -59 127 -43 13 7 21 5 27 -4 21 -35 28 -43 33 -38 3 3
-2 24 -12 47 -14 34 -26 45 -69 64 -29 12 -53 26 -53 30 0 13 24 9 48 -8 13
-9 24 -14 25 -13 1 2 9 18 18 34 17 32 41 35 71 8 9 -8 25 -13 35 -12 10 1 35
-1 56 -6 31 -6 41 -4 52 11 17 22 20 48 5 39 -6 -4 -24 -4 -40 0 -35 8 -41 40
-10 50 15 5 19 12 15 26 -5 14 -2 19 13 19 20 0 46 23 37 32 -10 10 -185 -10
-184 -20 3 -18 -2 -35 -7 -29 -4 3 -19 0 -35 -9 -18 -9 -39 -12 -55 -8 -16 4
-25 3 -21 -2 5 -9 -19 -11 -61 -6 -7 1 -10 7 -6 14 5 8 2 9 -9 5 -10 -4 -17
-1 -17 5 0 20 -53 68 -74 68 -12 -1 -32 -7 -46 -14z m-5 -46 c3 -5 -1 -10 -10
-10 -9 0 -13 5 -10 10 3 6 8 10 10 10 2 0 7 -4 10 -10z m412 -26 c-3 -3 -12
-4 -19 -1 -8 3 -5 6 6 6 11 1 17 -2 13 -5z"/>
<path d="M1460 1411 c0 -5 -17 -16 -37 -24 -21 -9 -32 -16 -25 -16 7 -1 22 4
33 9 13 7 19 7 19 0 0 -14 23 -13 38 2 8 8 9 15 1 25 -13 15 -29 17 -29 4z"/>
<path d="M2269 1404 c-1 -5 0 -19 1 -31 2 -27 -6 -29 -26 -8 -8 8 -21 12 -29
9 -23 -9 -18 -24 8 -24 30 0 40 -10 27 -26 -8 -8 -6 -16 5 -27 22 -23 18 -30
-11 -23 -22 6 -24 5 -13 -7 8 -7 23 -17 34 -21 15 -6 16 -10 6 -13 -23 -9
-120 17 -133 35 -7 9 -22 24 -32 32 -18 14 -18 13 -12 -10 20 -68 28 -78 86
-104 32 -14 65 -24 73 -20 8 3 18 1 22 -5 3 -6 16 -11 28 -10 21 0 21 1 2 9
-16 7 -14 9 15 9 23 1 30 -2 22 -8 -11 -6 -8 -10 10 -14 31 -8 68 2 68 19 0
23 17 24 64 4 53 -24 82 -16 92 26 8 33 41 45 103 37 39 -4 56 -1 83 15 18 11
47 23 65 27 17 3 34 13 37 22 4 11 2 14 -9 9 -8 -3 -15 0 -15 7 -1 8 -5 7 -13
-3 -19 -24 -105 -60 -143 -60 -32 0 -34 2 -24 21 16 28 6 49 -23 49 -13 0 -34
9 -47 20 -13 11 -28 20 -33 20 -6 0 -7 3 -4 6 4 4 18 -1 31 -10 30 -19 60 -22
50 -3 -4 6 2 4 13 -5 11 -10 23 -18 28 -18 5 0 16 -7 26 -16 21 -19 49 -12 67
17 16 25 8 34 -37 43 -26 5 -32 3 -27 -9 9 -24 -12 -27 -28 -4 -8 12 -13 25
-11 29 2 3 -26 3 -62 -2 -37 -4 -87 -5 -112 -2 -25 3 -42 2 -37 -3 4 -4 11 -8
14 -8 4 -1 21 -9 39 -18 18 -9 38 -17 46 -17 8 0 18 -7 21 -16 3 -8 2 -12 -4
-9 -5 3 -21 -2 -35 -11 -15 -10 -25 -12 -25 -5 0 6 -7 11 -16 11 -10 0 -14 5
-10 15 4 11 -3 20 -22 28 -15 6 -30 16 -34 22 -5 6 -8 6 -8 -2 0 -6 -9 -9 -21
-6 -12 3 -18 11 -15 19 4 10 -3 14 -23 14 -16 0 -43 3 -60 6 -17 4 -31 3 -32
-2z m106 -57 c11 -2 34 -11 50 -20 l30 -16 -34 6 c-23 4 -32 3 -28 -5 5 -6 0
-8 -13 -5 -11 3 -20 0 -20 -6 0 -6 -4 -11 -8 -11 -4 0 -8 19 -9 41 0 23 2 37
6 31 4 -6 16 -13 26 -15z m390 3 c-3 -5 -12 -10 -18 -10 -7 0 -6 4 3 10 19 12
23 12 15 0z"/>
<path d="M2098 1373 c7 -3 16 -2 19 1 4 3 -2 6 -13 5 -11 0 -14 -3 -6 -6z"/>
<path d="M161 1356 c-39 -14 -75 -56 -48 -56 9 0 19 5 22 10 3 6 18 7 32 4 17
-5 24 -3 19 4 -3 6 -1 14 5 18 7 4 9 3 6 -3 -4 -6 3 -13 14 -16 26 -7 15 -29
-11 -25 -11 2 -18 -1 -17 -7 1 -5 10 -10 20 -9 12 0 16 -5 12 -17 -4 -13 0
-18 17 -21 13 -2 28 -15 36 -30 7 -16 17 -28 22 -28 5 0 7 -6 4 -13 -3 -8 1
-19 9 -25 11 -9 20 -4 46 28 18 22 38 40 46 40 8 0 15 5 15 10 0 13 -4 13 -47
-5 -48 -20 -53 -19 -53 10 0 30 -26 85 -40 85 -5 0 -12 10 -16 23 -12 39 -34
45 -93 23z"/>
<path d="M368 1333 c7 -3 16 -2 19 1 4 3 -2 6 -13 5 -11 0 -14 -3 -6 -6z"/>
<path d="M640 1319 c-20 -8 -22 -12 -10 -19 13 -9 13 -10 0 -10 -12 0 -13 -2
-1 -9 7 -5 22 -6 34 -3 12 3 18 1 14 -5 -4 -6 0 -16 9 -23 12 -11 12 -15 2
-21 -10 -7 -8 -9 5 -9 11 0 15 -4 11 -12 -4 -7 -3 -8 5 -4 6 4 17 3 24 -2 7
-5 21 -12 32 -16 11 -3 -1 -3 -28 -1 -58 6 -108 30 -114 56 -6 23 -19 25 -27
4 -3 -8 -1 -15 4 -15 6 0 10 -9 10 -19 0 -22 35 -51 63 -51 9 0 20 -6 23 -14
5 -12 14 -11 52 6 26 11 52 25 57 31 7 7 5 7 -5 2 -12 -6 -13 -5 -2 6 18 19
15 32 -7 26 -28 -7 -48 8 -33 25 8 11 5 16 -18 26 -32 15 -31 34 3 50 19 9 14
11 -28 11 -27 0 -61 -5 -75 -10z"/>
<path d="M430 1286 c8 -21 6 -23 -13 -19 -22 5 -22 5 -2 -10 27 -22 38 -21 53
3 7 12 23 20 40 20 l27 0 -25 14 c-21 11 -28 11 -42 -1 -12 -11 -18 -12 -24
-2 -4 8 -3 10 4 5 7 -4 12 -2 12 3 0 6 -9 11 -20 11 -16 0 -18 -4 -10 -24z"/>
<path d="M104 1279 c-3 -6 0 -15 7 -20 10 -6 8 -9 -10 -9 -17 0 -22 4 -17 16
3 8 2 12 -4 9 -6 -3 -10 -12 -10 -19 0 -7 -11 -41 -26 -77 -14 -35 -27 -86
-30 -114 -2 -27 -5 -59 -6 -70 -5 -41 15 -215 26 -229 65 -86 136 -158 172
-175 16 -7 35 -16 42 -20 8 -3 12 -9 10 -12 -6 -11 27 -42 59 -55 17 -8 44
-31 60 -53 32 -45 57 -59 119 -68 38 -5 44 -3 38 10 -4 12 -1 14 15 10 12 -3
21 -1 21 6 0 6 5 11 10 11 6 0 10 -7 10 -15 0 -8 5 -15 10 -15 6 0 8 10 5 22
-5 18 0 26 22 35 37 16 124 23 146 12 16 -9 22 -1 18 24 -2 11 24 8 37 -5 9
-9 12 -7 12 10 0 29 28 29 35 0 3 -13 9 -41 14 -63 5 -22 9 -31 10 -20 0 11
-4 40 -10 65 -9 38 -8 46 7 57 10 7 22 13 26 13 16 0 27 -47 29 -128 3 -69 7
-87 30 -120 15 -22 24 -43 21 -47 -4 -4 5 -1 20 5 l27 13 -30 30 c-17 17 -35
42 -40 55 -9 24 -4 188 7 224 8 27 63 63 76 50 14 -14 26 -89 28 -162 1 -52
19 -143 31 -155 9 -8 89 23 131 50 21 14 44 25 53 25 8 0 15 4 15 9 0 5 12 14
28 20 15 6 38 27 51 46 21 32 27 34 60 29 20 -3 57 -1 84 4 l47 9 0 -36 c0
-30 19 -85 20 -57 0 5 7 3 15 -4 13 -11 50 -13 140 -6 44 3 88 24 68 32 -14 6
-6 34 9 34 6 0 19 -11 29 -24 10 -13 35 -33 54 -45 l35 -20 0 23 c0 27 -29 56
-58 59 -11 0 -18 5 -16 9 8 13 67 9 98 -7 16 -9 36 -13 44 -10 10 4 12 0 8
-10 -3 -9 -2 -13 3 -10 5 3 12 1 16 -5 3 -5 -6 -15 -21 -20 -21 -8 -25 -15
-21 -35 6 -32 -12 -44 -30 -20 -7 11 -13 14 -13 9 0 -6 5 -15 11 -21 13 -13 2
-56 -11 -48 -5 3 -7 12 -3 20 4 11 1 13 -11 9 -18 -7 -21 -20 -6 -29 5 -3 7
-12 3 -20 -3 -9 1 -15 9 -15 7 0 19 14 25 30 7 19 18 30 30 30 16 0 19 6 15
30 -5 38 13 40 23 2 4 -15 9 -22 12 -15 2 7 0 21 -6 31 -8 15 -6 23 8 36 10 9
20 14 22 12 4 -4 9 38 12 107 1 15 7 27 13 27 15 0 26 28 15 35 -5 3 -7 15 -3
27 l5 21 17 -20 c14 -18 29 -21 96 -23 114 -3 107 -5 99 38 -8 43 -25 67 -25
34 0 -15 -5 -20 -15 -16 -8 4 -15 1 -15 -5 0 -7 -7 -7 -25 1 -14 6 -25 14 -25
18 0 13 86 27 102 17 23 -15 68 0 68 23 0 11 -5 20 -11 20 -5 0 -8 -4 -4 -9 3
-5 1 -12 -4 -15 -16 -10 -22 12 -9 33 11 18 8 25 -22 56 -19 19 -40 35 -47 35
-7 0 -13 4 -13 9 0 18 -38 26 -144 30 -19 1 -18 2 2 24 12 13 20 26 16 29 -3
3 14 9 37 13 23 4 55 13 70 19 26 11 27 14 16 36 -11 22 -18 25 -62 21 -28 -2
-63 -10 -79 -18 -27 -14 -29 -14 -24 5 5 18 3 19 -26 11 -55 -16 -126 -9 -126
12 0 5 7 9 16 9 8 0 12 5 9 10 -3 6 -15 10 -26 10 -10 0 -19 4 -19 8 0 9 -35
7 -85 -4 -33 -8 -60 -30 -46 -38 5 -3 11 1 15 9 6 17 53 20 58 4 2 -6 19 -12
38 -14 23 -2 39 -10 49 -26 15 -22 15 -23 -1 -11 -13 11 -21 11 -39 2 -32 -18
-5 -30 38 -18 39 11 46 8 37 -16 -6 -15 -23 -21 -53 -17 -7 2 -11 -2 -8 -7 3
-4 -2 -22 -13 -39 -21 -35 -63 -42 -92 -15 -17 14 -18 12 -19 -26 -2 -51 -2
-54 -12 -69 -4 -6 -1 -14 5 -16 10 -4 10 -8 -1 -15 -11 -8 -9 -11 8 -17 28 -9
61 3 55 19 -6 15 15 33 38 33 18 0 14 -23 -5 -30 -7 -2 2 -2 18 1 48 8 69 4
86 -16 12 -15 20 -17 33 -10 25 14 33 1 10 -17 -10 -8 -29 -14 -41 -11 -15 2
-23 -2 -23 -10 0 -11 -4 -12 -18 -3 -14 9 -27 7 -57 -6 l-40 -18 30 -7 c25 -6
27 -8 13 -14 -26 -11 -22 -26 5 -26 32 0 63 -33 45 -47 -7 -6 -22 -13 -33 -16
-18 -4 -17 -5 3 -6 13 0 21 -5 17 -11 -3 -6 -15 -6 -30 0 -24 9 -46 -4 -23
-13 10 -4 10 -6 0 -6 -7 -1 -17 9 -23 22 l-10 22 5 -23 c6 -31 -33 -50 -68
-34 -17 8 -27 7 -35 -1 -9 -9 -11 -8 -6 5 5 13 0 19 -19 24 -14 3 -26 10 -26
16 0 5 -8 7 -17 5 -10 -3 -36 -8 -58 -12 l-40 -7 29 31 c16 17 45 36 65 42 20
7 52 19 71 27 l35 14 -22 18 c-12 10 -21 19 -19 21 2 2 -5 13 -15 23 -11 12
-19 14 -19 7 0 -7 -4 -9 -10 -6 -17 10 -12 38 5 31 13 -5 14 -2 4 16 -9 17 -8
24 5 33 9 7 16 16 16 20 0 5 8 17 18 28 9 11 11 17 5 13 -10 -5 -13 8 -13 53
0 42 -4 61 -12 61 -10 0 -10 2 0 9 17 10 14 22 -7 38 -22 17 -51 16 -51 -2 0
-8 -5 -15 -11 -15 -5 0 -7 -4 -4 -10 3 -5 -1 -10 -9 -10 -9 0 -16 -4 -16 -9 0
-13 -66 -50 -77 -42 -5 3 -17 22 -26 42 -21 46 -47 59 -47 24 0 -14 -4 -25 -9
-25 -5 0 -12 -10 -14 -22 l-4 -23 -8 23 c-9 26 -9 26 -40 6 -24 -16 -51 -11
-40 7 4 5 1 9 -5 9 -6 0 -15 11 -21 24 -6 13 -18 23 -27 22 -9 -2 -26 9 -38
23 -12 14 -26 22 -30 18 -5 -4 -2 -12 6 -17 8 -5 15 -23 16 -41 2 -41 23 -79
40 -72 10 3 12 0 8 -10 -3 -8 2 -29 11 -46 11 -23 13 -36 6 -49 -6 -9 -11 -12
-11 -7 -1 6 -7 -5 -14 -24 -13 -37 -36 -54 -36 -27 0 10 -6 13 -16 9 -13 -5
-15 -16 -11 -54 5 -41 3 -50 -13 -59 -15 -8 -21 -6 -30 9 -13 25 -13 58 0 66
15 9 12 25 -5 25 -8 0 -15 7 -15 16 0 14 -1 14 -16 0 -18 -19 -46 -20 -77 -5
-22 10 -22 10 -2 -6 19 -16 19 -16 -14 -11 -50 7 -58 20 -37 62 14 31 15 36 2
31 -11 -4 -18 1 -21 16 -8 28 -59 64 -107 72 l-37 7 51 49 c32 33 48 55 44 65
-3 9 -6 20 -6 26 0 7 -4 7 -13 0 -11 -9 -13 -4 -10 28 1 21 -2 42 -7 45 -6 3
-10 2 -10 -3 0 -12 -35 -52 -46 -52 -5 0 -16 -13 -26 -29 -35 -62 -105 -82
-156 -44 l-28 20 -26 -21 c-20 -15 -24 -25 -18 -37 12 -21 -18 -22 -43 -1 -24
22 -21 38 11 51 15 7 40 23 55 36 25 22 26 27 15 47 -7 13 -11 26 -10 30 1 4
-15 15 -34 24 -36 17 -38 17 -78 -4 -22 -12 -55 -22 -73 -22 -39 0 -63 -9 -63
-24 0 -6 -14 -21 -31 -33 -41 -28 -85 -16 -94 28 -4 16 -11 29 -16 29 -6 0 -8
-8 -5 -17 6 -21 -2 -37 -24 -46 -11 -5 -9 -6 5 -6 35 2 46 -1 41 -10 -3 -5 2
-12 11 -15 14 -6 13 -9 -6 -30 l-22 -23 23 -6 c17 -5 20 -9 11 -18 -9 -9 -6
-20 13 -48 21 -32 22 -37 9 -47 -26 -19 0 -22 118 -15 14 1 7 21 -8 21 -8 0
-12 6 -9 14 4 10 19 14 52 11 86 -6 162 -18 162 -25 0 -14 -80 -30 -119 -24
-27 4 -41 3 -41 -5 0 -15 -67 -41 -88 -35 -13 5 -14 4 -3 -4 7 -5 9 -12 5 -14
-5 -3 -3 -3 5 -1 14 4 109 -32 176 -67 51 -26 79 -27 45 0 -14 11 -20 20 -13
20 6 0 17 2 25 5 14 6 78 -47 78 -64 0 -6 -17 -8 -40 -6 -27 3 -40 0 -40 -8 0
-7 -5 -4 -11 6 -7 12 -15 15 -26 8 -10 -5 -23 -5 -32 0 -31 17 -96 42 -111 43
-8 0 -23 11 -33 24 -16 19 -25 22 -57 17 -22 -3 -41 -1 -45 5 -3 5 -11 10 -16
10 -6 0 -7 -5 -4 -10 4 -6 -5 -5 -19 2 -14 6 -26 15 -26 20 0 5 -5 6 -10 3 -6
-4 -7 -11 -4 -17 4 -6 2 -8 -3 -5 -6 4 -8 18 -5 32 3 19 0 25 -13 25 -11 0
-15 5 -12 14 3 8 -1 17 -9 20 -8 3 -14 -1 -14 -9 0 -22 -33 -18 -48 6 -11 16
-11 24 -1 36 10 12 10 16 -2 24 -10 7 -8 9 11 7 14 -2 24 -9 23 -16 -2 -6 2
-12 7 -12 23 0 8 27 -25 44 -40 22 -44 32 -14 41 11 4 19 8 17 10 -6 7 -79
-21 -97 -37 -34 -29 -40 -28 -23 2 9 16 23 28 30 25 17 -6 15 10 -4 29 -19 19
-26 20 -43 4 -8 -7 -6 1 4 19 10 17 27 34 37 36 10 3 18 12 18 21 0 9 4 16 9
16 15 0 6 -32 -13 -46 -10 -7 -15 -18 -11 -25 6 -8 10 -7 17 5 5 9 13 14 19
11 5 -4 9 3 9 14 0 11 5 23 10 26 6 3 10 1 10 -5 0 -6 5 -8 12 -4 7 5 5 11 -7
21 -18 13 -18 13 1 28 10 8 14 15 9 15 -6 0 -16 -5 -22 -11 -6 -6 -17 -8 -23
-4 -9 6 -6 12 11 21 15 8 18 13 9 14 -8 0 -28 -14 -44 -30 -16 -17 -31 -28
-34 -25 -4 3 0 10 7 14 10 7 8 10 -8 16 -18 5 -20 9 -10 21 6 8 17 14 25 14
16 0 36 34 27 44 -4 4 3 9 15 13 12 3 19 10 16 15 -3 5 2 18 12 29 16 18 16
19 -9 19 -14 0 -29 -5 -33 -11z m526 -179 c0 -5 9 -10 20 -10 11 0 20 -5 20
-11 0 -7 -7 -8 -17 -4 -10 5 -25 8 -34 9 -9 0 -15 6 -12 13 6 15 23 17 23 3z
m-90 -67 c0 -15 -16 -17 -25 -3 -3 5 -13 6 -22 3 -11 -4 -14 -2 -11 8 3 8 12
13 21 11 12 -2 15 2 11 15 -5 16 -4 16 10 -1 9 -11 16 -26 16 -33z m150 39 c0
-5 -11 -14 -25 -20 -39 -18 -44 -14 -10 7 36 23 35 23 35 13z m-75 -32 c-3 -5
-16 -10 -28 -10 -18 0 -19 2 -7 10 20 13 43 13 35 0z m-200 -61 c-4 -5 -12 -9
-18 -8 -9 0 -8 2 1 6 6 2 9 10 6 15 -4 7 -2 8 5 4 6 -4 9 -12 6 -17z m941 -18
c1 -6 0 -7 -2 -2 -3 5 -14 7 -24 4 -11 -3 -20 -1 -20 4 0 14 43 9 46 -6z
m-933 -6 c-3 -9 -8 -14 -10 -11 -3 3 -2 9 2 15 9 16 15 13 8 -4z m177 0 c11
-13 10 -14 -4 -9 -9 3 -16 10 -16 15 0 13 6 11 20 -6z m750 -16 c13 -9 13 -10
-2 -6 -9 3 -19 1 -22 -6 -2 -7 -5 -4 -5 6 -1 20 7 21 29 6z m390 1 c0 -5 -7
-10 -15 -10 -8 0 -15 5 -15 10 0 6 7 10 15 10 8 0 15 -4 15 -10z m410 -44 c0
-17 -14 -29 -23 -20 -8 8 3 34 14 34 5 0 9 -6 9 -14z m-593 -38 c-3 -7 -5 -2
-5 12 0 14 2 19 5 13 2 -7 2 -19 0 -25z m-717 6 c0 -18 52 -128 64 -136 10 -7
6 -9 -34 -21 -18 -5 -80 56 -80 79 0 32 -29 42 -76 28 -36 -11 -43 -10 -48 2
-7 17 23 34 89 50 61 14 85 14 85 -2z m133 -23 c51 -20 39 -88 -12 -74 -22 6
-43 47 -35 68 7 18 14 18 47 6z m-733 -31 c8 -5 12 -11 9 -14 -3 -3 -14 1 -25
9 -21 16 -8 20 16 5z m520 -15 c0 -9 -9 -15 -22 -14 -17 1 -19 2 -5 6 9 2 17
9 17 14 0 5 2 9 5 9 3 0 5 -7 5 -15z m963 -10 c-5 -13 -23 -22 -23 -11 0 15
14 35 21 31 4 -3 6 -12 2 -20z m487 -27 c0 -5 0 -11 -1 -14 0 -4 5 -11 13 -15
9 -6 7 -9 -8 -9 -24 0 -66 -40 -43 -41 8 0 5 -4 -6 -8 -25 -10 -50 5 -52 30
-2 17 18 35 40 38 4 1 6 4 5 9 -1 4 -8 6 -15 4 -7 -2 -13 1 -13 6 0 5 18 9 40
8 22 0 40 -4 40 -8z m-1830 -28 c-20 -13 -33 -13 -25 0 3 6 14 10 23 10 15 0
15 -2 2 -10z m1910 -24 c0 -3 -4 -8 -10 -11 -5 -3 -10 -1 -10 4 0 6 5 11 10
11 6 0 10 -2 10 -4z m-1840 -16 c0 -5 -2 -10 -4 -10 -3 0 -8 5 -11 10 -3 6 -1
10 4 10 6 0 11 -4 11 -10z m84 -13 c11 -10 11 -15 0 -25 -18 -17 -25 -15 -17
4 4 12 2 15 -8 12 -8 -3 -13 -10 -12 -16 1 -5 -6 -8 -17 -5 -24 6 -15 30 13
36 12 2 23 5 25 6 2 0 9 -5 16 -12z m291 2 c2 -3 -5 -11 -17 -18 -16 -10 -19
-10 -12 1 4 7 -5 2 -21 -10 -30 -24 -48 -14 -26 12 9 11 9 15 -1 20 -7 3 6 4
30 2 23 -2 44 -5 47 -7z m375 -16 c0 -43 11 -73 25 -73 17 0 29 -69 20 -110
-8 -37 -29 -49 -72 -43 -31 5 -34 9 -58 88 -14 46 -25 93 -25 106 0 36 28 59
72 59 35 0 38 -2 38 -27z m-780 7 c-8 -5 -19 -10 -25 -10 -5 0 -3 5 5 10 8 5
20 10 25 10 6 0 3 -5 -5 -10z m850 -65 c-7 -8 -17 -12 -23 -8 -6 4 -3 9 9 14
27 11 28 11 14 -6z m-704 -30 c-3 -8 0 -15 7 -15 15 0 -13 -20 -30 -20 -8 0
-8 6 0 25 13 26 33 35 23 10z m24 -74 c0 -5 -7 -12 -16 -15 -22 -9 -24 -8 -24
9 0 8 9 15 20 15 11 0 20 -4 20 -9z m1131 -11 c11 0 17 -5 14 -10 -4 -6 7 -15
24 -21 17 -6 31 -15 31 -21 0 -6 -7 -8 -15 -4 -8 3 -15 1 -15 -4 0 -6 -7 -10
-15 -10 -9 0 -12 6 -8 17 5 12 3 14 -7 8 -8 -5 -11 -4 -6 3 4 6 -6 18 -24 27
-31 16 -42 32 -14 21 9 -3 25 -6 35 -6z m274 0 c-3 -5 -11 -10 -16 -10 -6 0
-7 5 -4 10 3 6 11 10 16 10 6 0 7 -4 4 -10z m-1495 -20 c0 -5 -2 -10 -4 -10
-3 0 -8 5 -11 10 -3 6 -1 10 4 10 6 0 11 -4 11 -10z"/>
<path d="M2130 705 c0 -9 6 -12 15 -9 8 4 15 10 15 15 0 5 -7 9 -15 9 -8 0
-15 -7 -15 -15z"/>
<path d="M2930 1281 c0 -6 9 -9 20 -8 11 1 20 5 20 9 0 4 -9 8 -20 8 -11 0
-20 -4 -20 -9z"/>
<path d="M2980 1267 c0 -8 9 -22 20 -32 12 -11 20 -13 20 -6 0 9 5 9 20 1 11
-6 38 -11 60 -13 22 -1 42 -8 45 -14 2 -7 12 -13 22 -13 14 0 15 2 4 9 -7 5
-11 13 -7 19 12 20 -23 35 -70 29 -26 -3 -42 -2 -36 2 16 10 -9 26 -45 29 -23
2 -33 -1 -33 -11z"/>
<path d="M1177 1263 c-4 -3 -7 -15 -7 -26 0 -16 3 -17 15 -7 8 7 15 19 15 26
0 15 -12 19 -23 7z"/>
<path d="M1858 1263 c33 -13 -20 -62 -70 -64 -14 0 -18 -3 -8 -6 8 -3 22 -11
30 -18 8 -7 29 -16 45 -19 17 -3 41 -8 54 -12 17 -5 22 -4 17 4 -4 7 -14 12
-23 12 -9 0 -13 3 -10 7 4 3 -1 12 -11 20 -16 14 -16 14 3 8 11 -3 16 -3 12 1
-4 4 0 15 9 25 24 27 11 49 -28 48 -18 0 -27 -3 -20 -6z"/>
<path d="M1999 1224 c-13 -14 -22 -29 -20 -32 2 -4 -7 -13 -20 -19 -13 -7 -18
-13 -11 -13 7 0 1 -10 -14 -23 l-27 -23 58 6 c53 6 64 3 134 -32 84 -41 97
-44 124 -23 25 18 14 55 -16 55 -26 0 -49 13 -47 26 1 5 -16 13 -37 17 -92 21
-123 30 -123 38 0 5 12 9 26 9 20 0 25 4 20 16 -3 9 -6 18 -6 20 0 11 -19 1
-41 -22z m21 -74 c-20 -13 -50 -13 -50 0 0 6 15 10 33 10 24 0 28 -3 17 -10z
m165 -80 c3 -5 1 -10 -4 -10 -6 0 -11 5 -11 10 0 6 2 10 4 10 3 0 8 -4 11 -10z"/>
<path d="M125 1210 c-3 -6 1 -7 9 -4 18 7 21 14 7 14 -6 0 -13 -4 -16 -10z"/>
<path d="M2840 1211 c0 -10 61 -21 74 -14 13 8 -16 23 -46 23 -16 0 -28 -4
-28 -9z"/>
<path d="M3026 1179 c-10 -6 -36 -9 -58 -6 -43 6 -138 -17 -138 -33 0 -6 7
-10 15 -10 8 0 15 -8 14 -17 0 -10 -3 -13 -5 -7 -6 13 -44 7 -44 -7 0 -5 -7
-9 -15 -9 -20 0 -19 -18 2 -22 9 -2 17 -13 18 -26 2 -22 1 -22 -19 -3 -12 10
-44 21 -74 25 -29 4 -60 10 -70 13 -14 6 -15 4 -4 -9 11 -14 7 -16 -32 -22
-24 -4 -55 -4 -69 -1 -14 4 -28 2 -31 -4 -4 -5 -23 -8 -44 -6 -20 3 -29 2 -19
-1 9 -3 15 -10 11 -15 -3 -6 22 -7 65 -3 82 8 90 -2 31 -35 -65 -36 -99 -69
-95 -92 3 -12 0 -17 -7 -13 -6 4 -9 1 -7 -5 3 -7 8 -12 12 -12 4 1 14 1 23 1
8 0 13 4 9 9 -3 5 0 13 6 17 8 4 9 3 5 -4 -5 -8 0 -12 12 -12 11 0 22 -8 26
-17 3 -10 9 -24 12 -30 8 -19 -32 -16 -64 4 l-27 17 29 -28 c29 -27 60 -31
109 -11 14 6 17 2 18 -21 0 -16 3 -24 5 -18 4 8 20 6 55 -7 28 -11 60 -17 71
-13 18 5 18 7 -7 20 -15 8 -36 14 -46 14 -40 0 -26 20 27 35 41 12 54 20 50
31 -4 10 3 14 25 14 35 0 99 25 99 38 0 18 -26 31 -48 25 -12 -3 -37 -2 -56 1
-26 5 -35 12 -38 31 -4 19 -1 25 13 26 27 2 33 3 47 13 9 5 24 -4 46 -27 18
-19 43 -38 56 -42 30 -10 51 -30 48 -47 -2 -8 4 -12 15 -10 9 2 17 -2 17 -8 0
-5 -5 -10 -12 -10 -25 0 4 -14 37 -17 22 -2 35 1 35 8 0 8 4 9 13 0 8 -6 18
-7 22 -3 5 4 5 1 0 -7 -6 -10 -2 -12 16 -7 l24 7 -24 -15 c-14 -7 -31 -12 -38
-9 -22 9 -15 -1 34 -47 26 -25 40 -36 31 -25 -16 19 -15 21 13 44 33 26 37 41
12 41 -12 0 -14 3 -7 8 9 5 8 11 -2 20 -8 7 -14 8 -14 2 0 -5 -5 -10 -11 -10
-5 0 -7 4 -4 10 3 5 0 8 -7 5 -7 -3 -26 4 -43 15 -22 15 -30 27 -30 50 0 16 1
30 1 30 1 0 26 5 55 10 30 6 70 13 89 16 50 7 62 12 55 24 -3 5 -1 10 4 10 15
0 14 32 -1 53 -11 14 -19 15 -51 6 -25 -6 -35 -14 -31 -22 4 -7 -2 -3 -14 7
-27 24 -29 40 -3 26 26 -13 34 -13 25 2 -4 6 -3 8 4 4 6 -3 13 -2 17 4 4 6 -7
13 -25 16 -35 7 -51 24 -23 24 22 0 73 -22 73 -31 0 -3 12 -4 27 -1 21 4 25 2
20 -12 -7 -17 8 -22 18 -6 11 18 -6 51 -33 61 -39 15 -115 22 -107 9 9 -15
-22 -12 -56 5 -16 9 -27 20 -24 25 8 13 -15 12 -39 -1z m-129 -55 c-3 -3 -12
-4 -19 -1 -8 3 -5 6 6 6 11 1 17 -2 13 -5z m193 -7 c0 -5 4 -6 9 -3 5 3 11 -3
14 -14 3 -12 1 -18 -5 -14 -6 4 -14 1 -18 -6 -5 -9 -13 -9 -25 -3 -11 7 -25 6
-41 -1 -23 -11 -23 -11 9 -22 18 -6 33 -16 33 -22 3 -25 5 -27 13 -14 6 11 11
10 25 -3 10 -11 25 -15 39 -11 12 3 29 1 37 -4 20 -12 -32 -25 -57 -13 -10 5
-29 8 -43 7 -32 -2 -60 12 -60 31 0 14 -17 15 -50 2 -8 -3 -24 -8 -35 -10 -15
-3 -13 -5 8 -6 31 -1 38 -21 7 -21 -11 0 -20 -4 -20 -10 0 -5 -11 -10 -25 -10
-14 0 -25 5 -25 10 0 6 -7 10 -15 10 -11 0 -12 5 -5 24 5 13 6 27 2 31 -4 4 2
5 13 2 78 -23 93 -20 53 12 -20 16 -20 18 -2 18 24 0 42 -18 36 -37 -4 -12 -2
-13 9 -3 7 7 13 22 14 33 2 20 -10 24 -47 21 -10 -1 -18 3 -18 9 0 7 6 10 12
8 7 -3 18 0 24 6 12 13 134 15 134 3z m-220 -47 c0 -5 -2 -10 -4 -10 -3 0 -8
5 -11 10 -3 6 -1 10 4 10 6 0 11 -4 11 -10z m265 -10 c3 -5 -1 -10 -10 -10 -9
0 -13 5 -10 10 3 6 8 10 10 10 2 0 7 -4 10 -10z m80 -10 c-3 -5 -14 -10 -23
-9 -14 0 -13 2 3 9 27 11 27 11 20 0z m-464 -43 c-20 -20 -22 -21 -15 -2 8 21
25 37 33 29 3 -2 -5 -15 -18 -27z m456 7 c-3 -3 -12 -4 -19 -1 -8 3 -5 6 6 6
11 1 17 -2 13 -5z m-389 -105 c13 0 13 -2 -3 -8 -23 -9 -45 -4 -45 11 0 6 7 7
16 4 9 -3 23 -6 32 -7z m175 -6 c-4 -10 -9 -11 -19 -2 -19 15 -18 18 5 16 11
-1 17 -6 14 -14z m-283 -74 c0 -6 -4 -7 -10 -4 -5 3 -10 11 -10 16 0 6 5 7 10
4 6 -3 10 -11 10 -16z"/>
<path d="M72 1151 c-11 -7 -11 -9 1 -14 16 -6 27 0 27 15 0 10 -11 10 -28 -1z"/>
<path d="M2608 1132 c-15 -28 -15 -32 0 -44 13 -11 15 -10 9 5 -3 9 -5 17 -4
17 1 0 23 -7 49 -14 45 -14 93 -12 83 4 -3 5 -14 6 -25 3 -12 -3 -20 0 -20 6
0 7 -5 9 -10 6 -17 -10 -46 4 -57 27 -9 21 -10 21 -25 -10z"/>
<path d="M1646 1143 c-9 -9 -8 -53 2 -52 4 0 15 3 24 7 15 6 15 9 -2 29 -9 12
-20 19 -24 16z"/>
<path d="M2713 1135 c-9 -25 4 -29 17 -6 7 15 7 21 0 21 -6 0 -13 -7 -17 -15z"/>
<path d="M405 1130 c-3 -5 -2 -10 4 -10 5 0 13 5 16 10 3 6 2 10 -4 10 -5 0
-13 -4 -16 -10z"/>
<path d="M740 1100 c-12 -17 -20 -33 -18 -35 2 -3 15 9 27 26 13 17 21 33 18
35 -3 3 -15 -9 -27 -26z"/>
<path d="M1020 1118 c0 -4 16 -8 35 -8 19 0 35 2 35 4 0 2 -16 6 -35 8 -19 2
-35 0 -35 -4z"/>
<path d="M2740 1126 c0 -2 8 -10 18 -17 15 -13 16 -12 3 4 -13 16 -21 21 -21
13z"/>
<path d="M1180 1050 c0 -5 9 -10 21 -10 11 0 17 5 14 10 -3 6 -13 10 -21 10
-8 0 -14 -4 -14 -10z"/>
<path d="M1446 1035 c4 -8 10 -15 15 -15 5 0 9 7 9 15 0 8 -7 15 -15 15 -9 0
-12 -6 -9 -15z"/>
<path d="M2380 1030 c0 -5 7 -10 16 -10 8 0 12 5 9 10 -3 6 -10 10 -16 10 -5
0 -9 -4 -9 -10z"/>
<path d="M2053 1023 c-18 -2 -33 -9 -33 -15 0 -6 10 -7 28 -2 15 4 44 8 65 7
20 -1 37 3 37 8 0 9 -35 10 -97 2z"/>
<path d="M106 1011 c-8 -12 20 -22 40 -14 13 5 13 7 2 14 -17 11 -35 11 -42 0z"/>
<path d="M225 1010 c-16 -7 -17 -9 -3 -9 9 -1 20 4 23 9 7 11 7 11 -20 0z"/>
<path d="M1098 992 c15 -12 35 -16 63 -14 39 4 40 5 17 16 -16 9 -28 9 -40 2
-13 -8 -21 -7 -30 2 -6 6 -17 12 -22 12 -6 0 -1 -8 12 -18z"/>
<path d="M220 971 c0 -6 -8 -11 -17 -12 -14 0 -15 -2 -3 -6 8 -3 18 -10 21
-16 4 -5 9 -5 13 2 4 6 1 11 -6 11 -10 0 -10 2 1 9 9 6 10 11 2 15 -6 4 -11 2
-11 -3z"/>
<path d="M1061 970 c-9 -5 -3 -9 16 -13 34 -6 37 -5 14 10 -10 6 -23 8 -30 3z"/>
<path d="M3213 940 c-18 -11 -33 -27 -33 -35 0 -9 4 -14 9 -10 5 3 12 1 16 -5
9 -15 28 -12 22 4 -7 17 19 29 44 21 15 -5 19 -1 19 19 0 33 -30 35 -77 6z"/>
<path d="M280 910 c0 -6 7 -10 15 -10 8 0 15 2 15 4 0 2 -7 6 -15 10 -8 3 -15
1 -15 -4z"/>
<path d="M2293 886 c-26 -12 -31 -29 -6 -19 11 5 14 3 8 -6 -5 -10 -2 -11 14
-6 15 5 21 2 21 -9 0 -9 5 -16 11 -16 18 0 4 24 -21 37 -20 10 -21 11 -4 15
11 2 15 6 9 9 -5 3 -20 1 -32 -5z"/>
<path d="M3226 872 c-3 -5 1 -15 9 -22 8 -7 15 -19 15 -26 0 -8 4 -14 10 -14
6 0 6 -9 0 -24 -8 -22 2 -36 24 -36 2 0 4 27 5 60 2 47 -1 60 -13 60 -8 0 -21
3 -29 6 -8 3 -18 1 -21 -4z"/>
<path d="M2932 810 c-11 -18 -10 -22 10 -30 13 -5 18 -9 12 -9 -6 -1 -11 -14
-12 -30 -1 -27 -42 -109 -42 -83 0 6 -7 12 -15 12 -8 0 -16 7 -16 15 -4 43 -2
41 -41 37 -7 -1 -4 -11 8 -24 33 -40 45 -66 32 -74 -6 -4 -8 -3 -5 3 4 6 0 13
-8 17 -8 3 -15 1 -15 -4 0 -6 -7 -10 -15 -10 -9 0 -30 -7 -48 -17 -31 -16 -32
-16 -9 -26 12 -6 22 -16 22 -22 0 -14 34 -25 100 -31 33 -4 41 -2 30 5 -12 8
-9 11 15 11 35 0 49 -8 58 -32 7 -19 57 -26 57 -8 0 6 5 10 10 10 19 0 10 -21
-12 -30 -13 -5 -17 -9 -10 -9 7 -1 23 4 35 10 16 9 22 9 25 0 7 -20 22 -12 22
12 0 42 -43 70 -64 42 -9 -13 -17 -14 -40 -6 -15 6 -33 17 -40 24 -7 6 -30 25
-50 41 l-37 29 31 14 c38 15 43 16 35 4 -3 -6 27 -20 67 -33 40 -12 77 -29 81
-36 7 -10 12 -10 23 -1 8 6 14 7 14 2 0 -6 12 -8 28 -5 45 8 93 4 108 -9 11
-9 14 -8 14 9 0 12 -5 24 -10 27 -6 4 -7 12 -3 18 4 7 9 21 10 32 2 15 1 16
-6 6 -5 -7 -14 -10 -20 -7 -6 4 -11 3 -11 -2 0 -5 -10 -12 -22 -15 -13 -2 -32
-8 -43 -11 -11 -4 -8 0 8 9 15 8 27 17 27 19 0 1 -23 2 -51 2 -43 -1 -54 3
-68 23 -9 13 -26 34 -38 47 -13 14 -22 28 -21 32 0 4 -12 13 -28 21 -16 8 -35
23 -42 33 -17 23 -24 23 -40 -2z m88 -124 c0 -19 -14 -28 -34 -20 -13 5 -14 9
-5 20 15 18 39 18 39 0z m125 -54 c-3 -3 -11 0 -18 7 -9 10 -8 11 6 5 10 -3
15 -9 12 -12z m80 -12 c-3 -5 -12 -10 -18 -10 -7 0 -6 4 3 10 19 12 23 12 15
0z m-409 -45 c-9 -9 -16 -13 -16 -8 0 12 22 34 28 28 2 -2 -3 -11 -12 -20z"/>
<path d="M3010 819 c0 -5 9 -9 20 -9 11 0 20 2 20 4 0 2 -9 6 -20 9 -11 3 -20
1 -20 -4z"/>
<path d="M2835 755 l-50 -13 41 -1 c22 -1 49 6 60 14 22 17 16 17 -51 0z"/>
<path d="M457 749 c7 -7 15 -10 18 -7 3 3 -2 9 -12 12 -14 6 -15 5 -6 -5z"/>
<path d="M2495 750 c-11 -4 -33 -22 -49 -39 -23 -24 -27 -34 -18 -43 31 -31
183 -55 166 -25 -6 10 -4 10 7 0 7 -7 18 -13 24 -13 5 0 3 5 -5 10 -12 7 -12
12 -3 21 18 18 46 -8 40 -38 -4 -21 -2 -22 42 -16 25 3 53 10 61 14 9 5 2 6
-18 3 -27 -6 -37 -2 -60 23 -15 16 -32 38 -38 49 -11 21 -89 64 -114 63 -8 0
-24 -4 -35 -9z m79 -51 c14 -7 23 -16 20 -20 -12 -21 -94 -2 -94 21 0 14 44
13 74 -1z"/>
<path d="M3158 753 c6 -2 18 -2 25 0 6 3 1 5 -13 5 -14 0 -19 -2 -12 -5z"/>
<path d="M3236 725 c-3 -9 -11 -15 -18 -14 -30 4 -49 -2 -43 -12 4 -6 13 -8
21 -5 8 3 14 -1 14 -11 0 -11 3 -13 13 -5 6 6 15 11 19 12 37 9 48 14 48 21 0
12 -7 11 -30 -1 -16 -8 -18 -7 -14 4 3 8 15 17 27 19 19 4 18 4 -4 6 -16 0
-29 -5 -33 -14z"/>
<path d="M1940 550 c-23 -7 -23 -8 -3 -9 12 -1 25 4 28 9 3 6 5 10 3 9 -2 -1
-14 -5 -28 -9z"/>
<path d="M2725 500 c3 -5 11 -10 17 -10 6 0 20 -7 30 -17 10 -9 21 -14 24 -11
3 3 -10 15 -29 27 -37 23 -52 27 -42 11z"/>
<path d="M2185 491 c-3 -7 0 -8 9 -5 9 3 16 2 16 -3 0 -5 -9 -9 -20 -10 -11
-1 -20 2 -20 8 0 5 -4 9 -10 9 -5 0 -10 -12 -10 -26 0 -21 4 -25 20 -21 13 3
20 0 20 -9 0 -21 21 -17 27 6 3 11 14 20 24 20 10 0 20 4 24 9 5 9 -3 12 -57
27 -9 3 -19 0 -23 -5z"/>
<path d="M2693 484 c0 -8 6 -13 14 -10 7 3 13 -1 13 -9 0 -8 7 -15 15 -15 24
0 17 18 -13 34 -25 13 -29 13 -29 0z"/>
<path d="M2597 476 c-7 -17 41 -56 68 -56 15 0 15 3 5 16 -8 8 -9 14 -4 12 5
-2 10 1 12 6 1 6 -10 12 -25 14 -15 2 -33 8 -39 13 -8 6 -14 5 -17 -5z"/>
<path d="M2696 452 c-7 -12 3 -42 14 -42 5 0 7 10 5 21 -5 27 -11 33 -19 21z"/>
<path d="M2825 450 c3 -5 10 -10 16 -10 5 0 9 5 9 10 0 6 -7 10 -16 10 -8 0
-12 -4 -9 -10z"/>
<path d="M2770 441 c0 -6 4 -13 10 -16 6 -3 7 1 4 9 -7 18 -14 21 -14 7z"/>
<path d="M3061 424 c-7 -9 -22 -13 -32 -11 -15 4 -19 0 -19 -19 0 -25 -6 -28
-55 -25 -27 1 -28 1 -11 -12 11 -8 16 -19 12 -25 -5 -8 2 -12 19 -12 18 0 24
-4 19 -12 -4 -7 0 -6 9 2 9 8 22 27 29 41 l14 27 10 -34 c6 -18 7 -31 2 -28
-4 3 -8 0 -8 -5 0 -6 3 -11 8 -12 4 0 24 -2 45 -4 22 -2 37 0 37 7 0 6 10 8
25 4 14 -4 25 -3 25 2 0 14 -24 32 -43 32 -13 0 -17 5 -13 15 3 8 0 15 -6 15
-6 0 -5 6 3 17 12 15 12 16 -3 10 -12 -4 -15 -2 -11 9 3 7 0 14 -7 14 -6 0 -8
5 -5 10 10 16 -29 11 -44 -6z m-66 -84 c-3 -5 -11 -10 -16 -10 -6 0 -7 5 -4
10 3 6 11 10 16 10 6 0 7 -4 4 -10z"/>
<path d="M2500 410 c-1 -8 -2 -18 -1 -22 1 -8 -26 -11 -99 -8 -25 0 -69 -4
-99 -10 -42 -8 -57 -7 -63 2 -5 9 -8 5 -8 -10 0 -38 29 -72 62 -72 17 0 27 -4
23 -10 -3 -6 -25 -8 -48 -5 -44 5 -41 1 5 -9 16 -4 34 -18 42 -34 16 -30 25
-32 38 -8 7 13 13 13 43 -5 19 -12 40 -19 47 -17 7 3 -2 12 -20 22 -43 22 -41
53 3 48 52 -6 79 -25 90 -62 6 -22 17 -36 28 -36 18 -2 23 11 8 20 -5 3 -11
15 -14 26 -5 20 -4 20 24 3 24 -14 31 -15 38 -5 10 17 78 1 112 -27 l22 -18
-21 -21 c-23 -23 -29 -52 -11 -52 5 0 8 -4 5 -9 -3 -5 2 -12 12 -16 26 -10
197 -6 250 6 26 6 52 12 58 13 18 3 44 27 44 40 0 6 -4 18 -10 26 -7 12 -12
12 -29 -4 -16 -15 -18 -22 -10 -33 14 -17 -3 -17 -20 0 -7 6 -12 8 -11 2 4
-21 -1 -30 -9 -16 -7 11 -13 10 -35 -4 -26 -17 -86 -17 -128 0 -13 5 -18 2
-18 -9 0 -14 -4 -15 -20 -6 -11 6 -20 17 -20 25 0 8 -7 15 -16 15 -14 0 -14 3
-4 15 17 20 23 19 65 -9 48 -33 132 -32 167 2 14 12 26 21 29 20 2 -2 -3 3
-11 11 -13 12 -11 12 13 7 19 -5 26 -3 22 4 -3 6 -46 10 -102 10 -94 0 -96 0
-79 19 10 11 15 25 11 30 -3 6 1 11 11 11 10 0 14 3 11 7 -4 3 -2 12 4 20 9 9
8 13 0 13 -6 0 -11 5 -11 11 0 8 4 8 15 -1 8 -6 19 -9 25 -5 18 11 0 25 -35
25 -18 0 -36 6 -38 13 -4 9 -6 8 -6 -2 -1 -8 7 -20 16 -27 26 -18 13 -24 -27
-10 -28 9 -36 17 -40 42 l-5 31 -19 -22 c-22 -25 -27 -24 -131 27 -22 11 -51
24 -65 29 l-25 9 24 -20 c13 -11 20 -20 17 -20 -15 0 -65 30 -69 42 -4 9 -6 9
-7 -2z m315 -140 c8 0 15 -4 15 -10 0 -5 -5 -10 -11 -10 -18 0 -79 32 -79 41
0 5 13 3 30 -6 16 -8 36 -15 45 -15z m117 -113 c-12 -7 -20 -15 -17 -18 2 -3
-10 -3 -28 0 l-32 5 33 7 c18 4 36 9 39 13 4 3 11 6 17 6 6 -1 1 -6 -12 -13z
m128 -18 c0 -12 -19 -21 -30 -14 -6 4 -8 10 -6 14 7 10 36 10 36 0z"/>
<path d="M861 374 c0 -11 3 -14 6 -6 3 7 2 16 -1 19 -3 4 -6 -2 -5 -13z"/>
<path d="M901 364 c0 -11 3 -14 6 -6 3 7 2 16 -1 19 -3 4 -6 -2 -5 -13z"/>
<path d="M1373 363 c-30 -15 -53 -49 -53 -77 0 -20 54 -39 114 -40 42 0 59 5
84 24 44 36 41 53 -15 69 -27 8 -57 20 -68 28 -23 16 -22 16 -62 -4z m125 -62
c-5 -25 -91 -23 -96 3 -6 27 14 35 59 23 29 -7 39 -14 37 -26z"/>
<path d="M1810 366 c0 -17 41 -84 65 -106 22 -20 25 -21 16 -5 -19 33 -81 118
-81 111z"/>
<path d="M2810 366 c0 -9 40 -13 46 -5 3 5 -6 9 -20 9 -14 0 -26 -2 -26 -4z"/>
<path d="M873 323 c4 -37 -15 -45 -32 -15 -6 9 -11 13 -11 9 0 -13 21 -49 42
-71 23 -26 19 -40 -15 -44 -15 -2 -25 -8 -22 -13 4 -5 -6 -9 -20 -9 -17 0 -38
-11 -56 -31 -24 -26 -27 -34 -18 -52 9 -21 9 -21 -5 -4 -12 15 -18 16 -35 7
-12 -6 -26 -8 -33 -4 -7 5 -9 -1 -4 -20 6 -24 4 -26 -24 -26 -16 0 -30 -4 -30
-9 0 -5 -3 -16 -6 -25 -5 -14 10 -16 129 -16 137 0 167 4 167 22 0 6 -6 5 -15
-2 -20 -16 -19 -6 1 14 18 19 46 21 43 3 -4 -35 1 -37 100 -37 l99 0 -11 25
c-12 24 -27 34 -27 16 0 -5 -9 -7 -20 -4 -14 4 -20 0 -20 -11 0 -9 -5 -16 -10
-16 -7 0 -7 6 0 20 6 11 8 21 5 21 -21 5 -32 4 -43 -5 -9 -6 -18 -4 -30 7 -10
11 -12 17 -4 17 7 0 12 5 12 11 0 6 -5 7 -12 2 -35 -21 -98 -10 -98 18 0 15
-5 18 -23 14 -15 -4 -28 -1 -37 10 -11 13 -10 15 6 8 17 -6 17 -5 5 10 -16 20
-16 20 27 7 28 -7 33 -7 28 5 -3 8 -1 15 3 15 5 0 12 -7 15 -16 3 -8 10 -12
16 -9 14 9 12 52 -2 58 -18 7 53 36 71 29 9 -2 -1 11 -21 30 -22 21 -38 46
-39 59 l-1 24 -7 -25 -7 -25 -18 30 -17 30 4 -32z m-90 -190 c-7 -2 -9 -11 -6
-19 3 -8 1 -14 -5 -14 -11 0 -11 18 2 38 4 7 11 10 15 6 3 -4 1 -9 -6 -11z
m27 -47 c0 -11 -19 -15 -25 -6 -3 5 1 10 9 10 9 0 16 -2 16 -4z m35 -6 c3 -5
-1 -10 -9 -10 -9 0 -16 5 -16 10 0 6 4 10 9 10 6 0 13 -4 16 -10z m-121 -35
c3 -8 1 -15 -4 -15 -6 0 -10 7 -10 15 0 8 2 15 4 15 2 0 6 -7 10 -15z m133 -2
c-9 -9 -19 -14 -23 -11 -10 10 6 28 24 28 15 0 15 -1 -1 -17z"/>
<path d="M1695 320 c-3 -5 -1 -18 4 -27 6 -10 11 -12 11 -5 0 6 6 12 14 12 7
0 19 7 26 15 11 13 8 15 -18 15 -17 0 -34 -4 -37 -10z"/>
<path d="M2939 274 c-12 -14 -11 -16 5 -13 11 2 21 10 24 17 5 17 -13 15 -29
-4z"/>
<path d="M2211 244 c-1 -12 6 -28 16 -35 15 -13 15 -12 6 6 -6 11 -13 27 -16
35 -4 10 -6 8 -6 -6z"/>
<path d="M2088 233 c-24 -28 -38 -59 -38 -85 1 -23 1 -23 21 5 22 29 47 35 68
15 10 -11 11 -9 5 6 -6 16 -4 17 14 7 27 -14 35 -14 26 1 -5 8 -2 9 9 5 10 -3
17 -3 17 1 0 12 -22 32 -34 32 -6 0 -4 -5 4 -10 12 -8 9 -10 -12 -10 -20 0
-27 6 -30 22 -4 29 -30 34 -50 11z"/>
<path d="M3085 224 c11 -4 22 -9 25 -13 3 -3 28 -3 55 0 41 5 44 6 15 8 -19 0
-53 3 -75 6 -22 2 -31 2 -20 -1z"/>
<path d="M2327 176 c-4 -10 -24 -14 -74 -13 -37 0 -77 -4 -88 -10 -19 -11 -18
-12 8 -18 27 -7 27 -8 10 -28 -18 -19 -18 -20 5 -6 12 8 22 17 22 21 0 12 44
5 62 -10 10 -8 28 -16 40 -17 41 -4 43 -5 30 -14 -10 -6 -5 -11 19 -20 37 -13
51 -7 25 12 -16 12 -16 13 2 13 15 0 19 -6 17 -23 -2 -25 10 -31 18 -9 5 12
11 12 44 0 21 -7 46 -13 56 -14 24 0 22 -20 -3 -20 -36 0 -21 -15 19 -18 25
-1 43 3 51 13 7 8 21 15 30 15 10 0 20 6 23 13 3 9 8 9 18 -2 9 -9 9 -11 2 -7
-7 4 -13 3 -13 -3 0 -13 71 -2 88 14 11 10 3 12 -42 13 -31 0 -59 -4 -62 -9
-3 -6 -14 5 -24 23 l-17 33 -112 -2 c-110 -2 -111 -2 -100 19 6 11 7 18 2 15
-5 -3 -20 4 -33 15 l-25 19 50 -4 c46 -5 48 -4 25 9 -33 17 -66 18 -73 0z m13
-51 c13 -16 8 -18 -27 -9 -13 4 -23 10 -23 15 0 15 37 10 50 -6z"/>
<path d="M1735 169 c-11 -16 -2 -17 25 -2 24 12 24 13 3 13 -12 0 -25 -5 -28
-11z"/>
<path d="M1850 160 c0 -11 4 -20 9 -20 5 0 7 9 4 20 -3 11 -7 20 -9 20 -2 0
-4 -9 -4 -20z"/>
<path d="M3270 143 c0 -5 -17 -8 -37 -9 -20 0 -39 -6 -41 -12 -2 -7 -19 -12
-38 -12 -22 0 -40 -7 -51 -19 -9 -11 -20 -18 -25 -15 -4 3 -8 0 -8 -6 0 -19
24 -21 75 -5 28 8 65 15 83 15 18 0 40 6 48 14 16 17 19 56 4 56 -5 0 -10 -3
-10 -7z"/>
<path d="M1710 131 c0 -5 7 -14 16 -22 19 -16 145 -19 151 -3 2 6 -7 9 -25 6
-16 -2 -46 3 -66 12 -42 18 -76 21 -76 7z"/>
<path d="M2080 130 c0 -9 39 -25 46 -18 2 3 -7 10 -21 16 -14 6 -25 7 -25 2z"/>
<path d="M2428 123 c7 -3 16 -2 19 1 4 3 -2 6 -13 5 -11 0 -14 -3 -6 -6z"/>
<path d="M1080 110 c0 -5 7 -10 16 -10 8 0 12 5 9 10 -3 6 -10 10 -16 10 -5 0
-9 -4 -9 -10z"/>
<path d="M1028 103 c7 -3 16 -2 19 1 4 3 -2 6 -13 5 -11 0 -14 -3 -6 -6z"/>
<path d="M2065 80 c9 -16 21 -30 28 -29 9 0 9 2 0 6 -7 2 -13 11 -13 19 0 8 6
14 13 14 16 0 -13 20 -31 20 -9 0 -9 -7 3 -30z"/>
<path d="M2130 100 c-12 -8 -11 -10 8 -10 12 0 22 5 22 10 0 13 -11 13 -30 0z"/>
<path d="M1124 88 c-4 -6 1 -17 11 -25 13 -9 21 -10 26 -2 3 6 9 10 13 10 3
-1 18 -1 33 -1 37 0 22 11 -16 12 -18 1 -34 5 -37 10 -7 11 -22 10 -30 -4z"/>
<path d="M1345 60 c3 -6 16 -10 28 -11 12 0 31 -5 42 -10 16 -7 14 -8 -10 -4
l-30 6 25 -21 c22 -18 39 -20 155 -18 l130 1 -60 19 c-99 31 -292 57 -280 38z
m205 -40 c-8 -5 -19 -10 -25 -10 -5 0 -3 5 5 10 8 5 20 10 25 10 6 0 3 -5 -5
-10z"/>
<path d="M1124 29 c-4 -8 -3 -9 4 -5 7 4 12 2 12 -3 0 -6 5 -11 11 -11 13 0 7
22 -8 27 -6 2 -15 -1 -19 -8z"/>
<path d="M2345 28 c11 -6 29 -13 40 -14 11 -1 40 -5 65 -9 l45 -6 -40 15 c-22
7 -60 17 -85 20 -37 5 -42 4 -25 -6z"/>
<path d="M2445 30 c4 -6 11 -8 16 -5 14 9 11 15 -7 15 -8 0 -12 -5 -9 -10z"/>
<path d="M2868 33 c-10 -2 -18 -9 -18 -14 0 -13 13 -11 36 6 19 14 14 17 -18
8z"/>
<path d="M2970 30 c0 -6 -4 -9 -9 -6 -5 3 -11 -1 -15 -9 -4 -12 3 -15 29 -15
39 0 46 14 15 30 -14 8 -20 8 -20 0z"/>
<path d="M1230 20 c0 -5 5 -10 11 -10 5 0 7 5 4 10 -3 6 -8 10 -11 10 -2 0 -4
-4 -4 -10z"/>
<path d="M2139 15 c18 -8 45 -14 60 -14 l26 2 -25 4 c-14 3 -29 9 -34 14 -6 5
-21 9 -35 9 -24 -1 -24 -2 8 -15z"/>
<path d="M2275 10 c-28 -7 -27 -8 12 -9 23 0 44 3 47 7 6 10 -21 11 -59 2z"/>
<path d="M3208 3 c6 -2 18 -2 25 0 6 3 1 5 -13 5 -14 0 -19 -2 -12 -5z"/>
</g>
</svg>
