<?xml version="1.0" standalone="no"?>
<!DOCTYPE svg PUBLIC "-//W3C//DTD SVG 20010904//EN"
 "http://www.w3.org/TR/2001/REC-SVG-20010904/DTD/svg10.dtd">
<svg version="1.0" xmlns="http://www.w3.org/2000/svg"
 width="300.000000pt" height="168.000000pt" viewBox="0 0 300.000000 168.000000"
 preserveAspectRatio="xMidYMid meet">
<metadata>
Created by potrace 1.16, written by Peter Selinger 2001-2019
</metadata>
<g transform="translate(0.000000,168.000000) scale(0.100000,-0.100000)"
fill="#000000" stroke="none">
<path d="M0 1639 c0 -22 3 -39 8 -37 76 39 85 41 234 34 114 -4 162 -2 212 9
53 12 83 13 158 5 150 -16 218 -34 218 -57 0 -21 -83 -63 -126 -63 -21 0 -75
-7 -119 -15 -93 -17 -208 -19 -235 -5 -27 15 -187 23 -195 11 -3 -6 6 -27 21
-46 27 -36 20 -45 -16 -22 -17 10 -22 9 -29 -2 -7 -11 -12 -11 -32 2 -13 8
-36 17 -51 21 -34 8 -36 19 -5 34 21 10 20 11 -11 11 l-32 1 2 -222 3 -221
103 -18 c129 -21 253 -79 378 -174 l88 -67 65 7 c96 9 141 9 188 1 26 -5 57
-3 78 4 41 14 41 19 -3 110 -32 68 -34 77 -15 84 12 5 13 9 3 21 -7 9 -10 19
-6 22 4 4 12 1 17 -7 9 -13 10 -13 8 0 -1 8 3 28 9 43 7 16 12 32 12 36 0 5 7
14 15 21 21 17 19 53 -5 67 -15 10 -22 10 -35 -3 -13 -13 -27 -14 -78 -8 -34
4 -66 6 -72 4 -5 -1 -21 -3 -35 -4 -22 -1 -25 -6 -28 -43 -2 -31 5 -56 28 -99
16 -31 28 -59 26 -62 -9 -8 -38 7 -32 17 8 13 -20 33 -41 29 -10 -2 -17 -10
-16 -16 3 -13 -75 -16 -141 -4 -44 8 -59 30 -27 39 26 7 27 19 4 32 -15 9 -12
10 17 11 34 0 136 32 149 46 3 4 1 9 -6 11 -7 2 -28 15 -47 28 -19 13 -43 26
-55 30 -12 3 -21 9 -21 13 0 4 -4 13 -9 20 -7 11 -12 12 -29 1 -17 -11 -26
-11 -49 1 -43 23 -61 60 -28 60 19 0 19 24 0 40 -16 14 -20 30 -6 30 4 0 20
-11 35 -25 40 -37 76 -52 126 -53 25 0 62 -8 83 -16 28 -13 42 -14 58 -6 11 6
17 15 14 20 -3 4 5 6 17 2 14 -3 19 -1 14 6 -4 8 -2 10 8 6 8 -3 20 -2 27 2 7
4 26 8 43 10 50 4 146 27 146 34 0 13 -24 27 -58 33 -27 6 -92 56 -92 72 0 3
11 5 24 5 14 0 33 11 44 25 20 26 46 33 57 15 3 -5 12 -10 20 -10 15 0 80 -40
106 -65 11 -10 37 -17 72 -18 41 -2 53 -5 46 -14 -11 -12 7 -30 18 -19 4 3 0
6 -8 6 -8 1 4 7 26 15 36 13 42 12 70 -5 27 -16 34 -17 62 -5 18 8 50 14 72
13 47 0 61 7 61 33 0 24 -20 26 -21 2 0 -13 -4 -12 -12 7 -7 14 -19 26 -27 28
-8 2 -17 7 -20 11 -18 26 -60 41 -115 42 -33 0 -68 4 -79 8 -17 7 -17 8 5 22
13 8 41 24 62 35 21 10 57 29 80 41 l42 22 -707 1 -708 0 0 -41z"/>
<path d="M2573 1641 c-33 -16 -39 -37 -9 -35 22 2 20 -23 -4 -43 -25 -21 -26
-43 -2 -44 13 0 14 -2 2 -6 -8 -2 -24 -8 -35 -13 -11 -4 -28 -11 -38 -14 -18
-6 -21 -12 -31 -57 -7 -33 -36 -48 -36 -19 0 11 7 20 15 20 8 0 15 5 15 11 0
5 -4 8 -9 5 -5 -3 -12 1 -15 10 -8 20 -11 16 42 43 23 12 42 26 42 32 0 6 -8
6 -21 -2 -13 -6 -39 -8 -64 -4 -29 4 -46 2 -51 -6 -4 -7 -3 -9 4 -5 6 3 13 2
16 -3 7 -10 -16 -21 -44 -21 -22 0 -72 -25 -64 -32 3 -3 -11 -9 -31 -12 -19
-4 -35 -10 -35 -14 0 -4 -13 -13 -29 -20 -20 -9 -28 -18 -24 -28 3 -8 11 -13
19 -10 7 3 15 0 18 -7 3 -8 5 -8 5 2 1 8 10 3 22 -13 21 -26 22 -27 41 -9 20
17 20 17 14 -3 -5 -17 0 -23 32 -33 34 -12 41 -11 77 11 22 12 47 30 57 40 11
11 26 15 45 11 54 -11 78 -9 76 7 -2 10 6 16 23 17 15 0 30 6 34 13 5 9 9 9
14 1 4 -6 16 -11 27 -11 11 0 18 4 15 8 -3 5 22 17 55 28 65 20 88 44 64 64
-8 7 -22 10 -30 6 -19 -7 -55 14 -55 31 0 7 6 13 13 13 11 0 15 29 8 61 -2 10
-61 17 -61 7 0 -4 -7 -8 -15 -8 -18 0 -20 26 -2 34 6 3 2 3 -10 0 -13 -3 -23
-1 -23 5 0 14 -18 12 -57 -8z"/>
<path d="M2170 1502 c-8 -2 -29 -19 -46 -38 -28 -31 -32 -32 -56 -20 -15 8
-39 13 -55 12 -75 -7 -126 -20 -141 -36 -9 -10 -30 -22 -46 -26 -26 -6 -28 -5
-22 17 3 13 3 18 0 12 -8 -18 -24 -16 -24 1 0 8 -5 18 -12 22 -7 5 -9 2 -5 -9
4 -11 2 -14 -9 -10 -7 3 -14 9 -14 14 0 5 -5 9 -11 9 -6 0 -9 -7 -5 -15 8 -21
-4 -19 -29 5 -21 20 -55 19 -55 -2 0 -5 -4 -7 -9 -4 -5 4 -16 3 -25 0 -13 -5
-10 -13 19 -45 19 -22 35 -48 35 -59 0 -11 7 -20 15 -20 8 0 15 -6 15 -14 0
-9 19 -15 58 -20 31 -4 74 -9 95 -12 30 -5 43 -2 60 14 19 18 27 20 62 11 22
-6 58 -12 80 -15 22 -3 48 -6 58 -8 10 -3 17 2 17 10 0 8 8 14 18 15 10 0 12
3 4 6 -6 2 -10 9 -6 14 3 5 -4 9 -15 9 -11 0 -23 5 -27 11 -3 6 -19 9 -35 5
-15 -3 -31 -2 -33 3 -7 11 -158 1 -173 -11 -7 -5 -14 -5 -18 2 -3 5 -19 10
-34 10 -34 0 -91 19 -91 30 0 17 19 19 74 8 37 -8 60 -9 64 -3 4 6 23 11 42
12 19 2 50 4 68 5 17 1 32 6 32 11 0 5 9 7 20 4 11 -3 20 -2 20 2 0 3 18 5 40
3 42 -4 120 20 159 50 l24 18 -26 0 c-14 0 -30 6 -34 14 -4 7 -15 11 -23 8z"/>
<path d="M1173 1260 c-2 -22 -25 -50 -42 -50 -6 0 -11 -6 -11 -14 0 -8 -12
-17 -27 -21 -33 -8 -53 -23 -53 -39 0 -6 20 -32 45 -57 41 -43 47 -46 92 -44
99 4 94 2 91 38 -1 17 -9 50 -18 72 -14 36 -16 46 -11 73 1 4 6 0 12 -8 9 -12
10 -12 5 3 -3 10 -6 26 -6 35 0 15 -2 15 -10 2 -8 -12 -10 -10 -11 10 -1 17
-3 19 -6 8 -5 -22 -22 -23 -29 -3 -9 21 -19 19 -21 -5z"/>
<path d="M2880 1245 c-1 -11 -2 -23 -1 -27 0 -5 -10 -8 -24 -8 -14 0 -25 -5
-25 -11 0 -5 -4 -7 -10 -4 -5 3 -10 1 -10 -5 0 -13 -39 6 -55 26 -18 23 -77
22 -69 -1 4 -8 1 -15 -5 -15 -6 0 -11 4 -11 9 0 6 -11 6 -29 0 -20 -7 -28 -15
-24 -25 3 -8 0 -14 -6 -14 -6 0 -11 11 -11 24 0 13 -6 23 -12 23 -7 -1 -35 2
-61 6 -40 7 -52 5 -67 -8 -10 -9 -23 -14 -29 -10 -6 3 -21 -3 -33 -14 -12 -12
-28 -21 -35 -21 -7 0 -13 -4 -13 -10 0 -5 -14 -10 -30 -10 -26 0 -31 5 -37 30
-4 24 -9 29 -25 25 -10 -4 -17 -2 -16 3 2 6 0 10 -4 11 -9 1 -10 -3 -1 -24 9
-24 -2 -28 -78 -32 -48 -2 -81 2 -100 11 -18 9 -31 11 -35 5 -4 -6 -11 -6 -20
2 -8 7 -14 7 -14 1 0 -5 -9 -12 -19 -15 -16 -4 -19 0 -18 21 1 15 -4 27 -13
30 -8 3 -12 1 -8 -3 4 -4 3 -18 -3 -32 -9 -25 6 -53 30 -53 13 0 15 -47 2 -55
-5 -3 -13 0 -17 7 -5 7 -12 -2 -21 -26 -15 -44 -11 -56 19 -56 17 0 18 2 8 15
-7 8 -9 15 -4 15 5 0 2 5 -6 10 -10 7 -11 10 -2 10 7 0 15 -6 18 -14 8 -20 77
-46 123 -46 49 0 98 17 105 37 4 10 14 13 31 9 19 -5 25 -2 25 10 0 14 3 14
15 4 13 -10 19 -10 33 2 9 9 26 16 37 16 27 1 65 -19 65 -33 0 -6 11 -18 25
-25 19 -10 30 -11 50 -2 14 7 43 12 63 12 20 0 46 7 56 15 11 8 28 13 38 9 10
-3 18 0 18 6 0 7 8 9 20 5 15 -5 23 0 30 17 9 20 18 23 59 22 47 -1 50 1 75
38 14 22 26 46 26 54 0 21 18 17 25 -6 3 -11 10 -20 15 -20 12 0 23 52 12 59
-5 3 -12 15 -15 26 l-5 20 -2 -20z"/>
<path d="M1639 1219 c-4 -44 14 -84 32 -73 5 3 9 0 9 -6 0 -7 11 -25 25 -41
13 -16 22 -36 19 -43 -7 -19 29 -30 96 -27 34 1 59 8 66 17 6 8 16 14 23 14
19 0 12 29 -10 41 -20 10 -21 20 -4 62 6 14 2 17 -29 17 -34 0 -36 -2 -36 -31
0 -29 -2 -31 -30 -27 -16 2 -31 2 -33 -1 -2 -3 -2 -1 -1 6 2 6 -8 19 -22 28
-14 9 -30 27 -36 41 -7 15 -17 23 -26 19 -8 -3 -21 0 -28 6 -11 9 -14 8 -15
-2z"/>
<path d="M1336 1178 c-7 -18 -16 -59 -19 -91 l-6 -59 68 4 c58 2 70 0 91 -20
13 -12 27 -22 31 -22 4 0 15 -3 24 -7 16 -6 16 -4 0 21 -10 14 -25 25 -34 24
-8 -2 -16 2 -17 7 -5 57 -21 91 -61 130 -25 25 -49 45 -54 45 -6 0 -16 -15
-23 -32z"/>
<path d="M0 901 l0 -99 47 -10 c37 -8 51 -7 67 4 11 8 40 14 63 14 39 0 43 -2
43 -24 0 -14 -5 -28 -12 -32 -17 -11 -160 -6 -171 5 -13 13 -37 2 -37 -16 0
-10 6 -12 20 -8 11 3 20 2 20 -2 0 -5 35 -10 77 -11 42 -1 81 -6 87 -12 7 -7
6 -10 -2 -10 -7 0 -12 -8 -12 -17 0 -10 -13 -30 -28 -44 -42 -40 -49 -41 -44
-9 4 27 2 29 -42 35 -59 9 -76 2 -74 -29 2 -19 10 -27 33 -32 16 -3 37 -12 45
-19 40 -33 130 -42 130 -12 0 19 64 58 89 54 25 -4 43 -26 34 -41 -4 -5 1 -7
10 -3 8 3 21 0 27 -8 6 -7 23 -18 39 -25 16 -6 33 -21 38 -33 12 -26 69 -38
59 -12 -3 8 -1 15 5 15 7 0 9 13 5 38 -17 94 -15 92 -57 98 -37 6 -57 19 -46
30 2 2 16 0 30 -5 14 -5 27 -7 30 -4 10 10 -5 33 -22 33 -9 0 -21 8 -28 19 -8
12 -19 17 -36 14 -18 -4 -30 3 -50 26 -14 17 -35 31 -46 31 -11 0 -23 5 -26
11 -4 6 -13 8 -21 5 -8 -3 -14 -2 -14 2 1 10 24 39 33 40 4 1 8 2 10 3 16 5
46 10 64 11 30 1 19 18 -12 18 -36 0 -55 10 -55 30 0 23 -14 32 -56 36 -19 2
-64 10 -101 19 -127 30 -113 39 -113 -74z"/>
<path d="M2451 775 c-23 -91 -5 -181 47 -241 26 -31 30 -32 133 -38 99 -5 108
-4 125 15 22 24 30 128 17 223 -10 72 -7 71 -185 79 l-126 6 -11 -44z"/>
<path d="M2877 708 c-12 -29 -40 -209 -33 -215 6 -7 87 -9 97 -3 9 6 16 25 36
106 6 27 -15 104 -29 104 -7 0 -22 10 -34 21 l-23 21 -14 -34z"/>
<path d="M808 641 c-16 -10 -26 -20 -23 -23 16 -16 -51 -11 -135 9 -94 22
-120 23 -120 3 0 -19 40 -50 65 -50 14 0 34 -5 45 -12 15 -9 30 -9 68 1 27 6
62 9 77 5 23 -6 27 -4 22 8 -4 11 2 17 22 21 32 7 49 36 29 49 -17 10 -18 10
-50 -11z"/>
<path d="M1171 551 c-7 -5 -15 -27 -17 -50 -2 -26 0 -40 6 -36 6 3 10 0 11 -7
0 -7 2 -26 3 -41 2 -27 0 -28 -31 -22 -18 3 -33 2 -33 -4 0 -12 -96 -35 -110
-26 -5 3 -10 13 -10 21 0 10 -8 14 -22 12 -13 -2 -22 -9 -21 -16 2 -7 -8 -12
-26 -12 -33 0 -84 -36 -75 -52 4 -7 2 -8 -4 -4 -16 10 -15 -7 1 -23 6 -7 8
-12 2 -11 -5 2 -12 1 -15 0 -19 -7 -100 -8 -105 0 -9 15 17 24 27 9 8 -11 9
-10 4 3 -4 14 7 24 48 43 29 14 61 34 71 45 10 11 28 20 39 20 27 1 54 21 49
38 -11 31 -112 -6 -105 -39 2 -12 -6 -18 -27 -21 -22 -3 -28 -1 -21 7 6 7 1
11 -18 10 -31 0 -42 -11 -42 -42 0 -13 -5 -23 -10 -23 -6 0 -8 11 -4 25 5 20
3 24 -9 19 -10 -3 -13 -12 -9 -22 4 -12 -1 -11 -23 6 -27 22 -30 22 -42 6 -11
-15 -8 -21 22 -41 42 -29 46 -45 8 -33 -48 15 -143 21 -143 9 0 -5 5 -7 10 -4
6 3 10 2 10 -4 0 -13 -71 -71 -88 -71 -7 0 -17 -12 -22 -26 -7 -19 -16 -24
-33 -22 -12 2 -21 9 -20 15 2 7 -9 24 -23 38 -14 15 -25 28 -23 30 2 1 29 5
59 8 31 3 68 9 84 13 l28 7 -27 23 c-21 18 -32 21 -46 13 -11 -5 -19 -15 -19
-21 0 -6 -11 -8 -25 -6 -13 3 -26 0 -29 -6 -2 -6 -10 -3 -20 9 -15 20 -15 20
-16 -6 0 -29 -17 -49 -42 -49 -11 0 -18 -7 -18 -20 0 -13 -7 -20 -20 -20 -11
0 -20 -5 -20 -12 0 -6 -8 -4 -19 6 -23 21 -67 7 -80 -26 -12 -32 3 -45 33 -28
31 16 195 7 260 -15 24 -8 51 -12 60 -9 11 4 16 1 16 -11 0 -17 1 -17 20 0 11
10 20 13 20 7 0 -28 46 -11 70 26 33 50 42 54 58 31 7 -10 24 -19 38 -19 13 0
24 -4 24 -10 0 -5 -7 -10 -16 -10 -16 0 -16 -2 3 -46 3 -8 -10 -10 -41 -7
l-46 6 0 -35 c0 -32 3 -36 31 -42 49 -9 168 61 196 116 16 30 19 46 11 55 -12
14 -71 33 -108 33 -14 1 -43 10 -65 21 l-40 20 50 -7 c28 -3 92 -9 144 -13 91
-6 94 -7 122 -40 16 -19 31 -32 35 -29 3 4 -4 16 -16 28 -14 14 -18 26 -13 31
6 6 15 4 23 -6 7 -8 20 -15 29 -15 13 0 13 2 2 9 -16 10 1 24 21 16 7 -3 23
10 37 30 19 28 27 33 41 25 13 -7 17 -18 14 -35 -5 -28 7 -33 25 -11 9 11 9
15 -1 18 -11 4 -11 8 0 21 17 21 68 4 75 -24 4 -16 10 -18 24 -11 23 11 60 9
96 -6 47 -20 75 -24 81 -13 5 7 -2 11 -16 11 -22 1 -22 1 -4 15 11 8 14 15 8
15 -7 0 -12 5 -12 10 0 18 31 10 55 -15 14 -13 25 -36 25 -50 0 -29 -1 -29 47
-10 68 27 192 33 209 10 6 -8 19 -15 28 -15 9 0 16 -4 16 -9 0 -5 16 -18 36
-30 27 -16 40 -19 55 -11 10 6 19 15 19 20 0 5 12 13 26 16 16 4 23 12 20 20
-7 19 2 18 21 -2 17 -17 52 -15 145 8 38 9 44 14 32 23 -13 9 -12 13 8 31 57
52 359 184 421 184 16 0 18 3 9 9 -8 4 -77 9 -154 10 -77 1 -151 6 -164 11
-13 5 -24 6 -24 1 0 -5 -17 -8 -37 -8 -171 1 -200 -2 -231 -30 -59 -55 -109
-79 -132 -66 -8 5 -24 7 -34 5 -16 -3 -13 -7 15 -19 34 -15 34 -15 9 -22 -14
-4 -47 -5 -73 -3 -48 4 -48 4 -25 21 l23 16 -35 6 c-19 3 -39 2 -45 -1 -12 -7
-22 -7 -54 4 -30 10 -40 -5 -34 -49 3 -26 0 -33 -16 -38 -12 -3 -24 -1 -27 5
-3 5 -14 8 -24 5 -11 -3 -21 2 -24 10 -5 12 -9 12 -28 -1 -27 -19 -49 -21 -43
-3 6 15 -46 14 -86 -1 -18 -7 -30 -7 -37 0 -6 6 -12 6 -16 -1 -12 -18 -24 -12
-19 9 6 21 -7 25 -71 20 -26 -2 -45 12 -46 34 0 4 9 6 20 3 12 -3 33 1 48 9
l27 14 -25 1 c-24 0 -24 0 -3 9 27 11 43 39 34 63 -6 16 -9 16 -30 -7 -22 -23
-49 -27 -36 -5 4 5 2 9 -2 9 -12 0 -14 38 -2 45 5 4 9 11 9 16 0 6 -5 7 -11 3
-8 -4 -9 0 -4 15 7 22 -1 26 -24 12z"/>
<path d="M145 499 c-22 -9 -51 -18 -66 -18 -14 -1 -37 -7 -52 -13 -26 -12 -27
-17 -27 -86 0 -86 5 -90 111 -88 50 1 72 6 87 20 20 17 45 22 86 14 13 -2 20
4 22 20 2 13 -1 22 -9 22 -7 0 -24 21 -37 47 -14 26 -31 54 -37 61 -7 7 -13
17 -13 22 0 17 -26 17 -65 -1z"/>
<path d="M2704 439 c-2 -4 18 -15 46 -24 27 -9 50 -19 50 -21 0 -3 -9 -3 -20
1 -11 3 -41 3 -67 -1 -37 -5 -44 -9 -28 -15 17 -6 15 -8 -10 -9 -16 -1 -37 -2
-47 -1 -9 1 -19 -3 -23 -8 -3 -6 0 -8 9 -5 8 3 29 -2 48 -12 18 -9 47 -19 63
-20 17 -2 39 -6 50 -8 11 -3 27 0 35 5 12 9 11 10 -5 5 -20 -6 -20 -6 -1 9 13
10 23 12 30 5 5 -5 14 -10 20 -10 5 0 7 3 3 6 -3 4 0 13 8 21 13 13 22 11 71
-11 31 -14 58 -26 60 -26 2 0 4 18 4 40 0 34 -4 42 -26 50 -15 6 -43 11 -63
11 -20 0 -51 0 -69 0 -18 0 -30 5 -27 10 4 5 -9 9 -27 10 -18 0 -43 2 -56 3
-13 2 -25 -1 -28 -5z"/>
<path d="M2757 175 c-38 -30 -88 -81 -112 -112 l-43 -58 101 -3 c56 -1 103 1
105 5 10 31 22 38 42 26 28 -18 30 -17 25 18 -3 26 -1 29 13 23 9 -4 38 -9 65
-12 46 -4 47 -4 47 25 l0 30 -61 -2 c-65 -2 -79 8 -79 57 -1 20 -21 58 -31 58
-2 0 -35 -25 -72 -55z"/>
<path d="M1093 142 c17 -7 17 -9 3 -21 -16 -13 -23 -57 -8 -47 4 2 14 0 22 -5
13 -8 13 -10 0 -19 -24 -16 -55 -8 -56 15 -1 11 -2 34 -3 50 l-1 30 -13 -24
c-6 -13 -50 -46 -97 -72 l-85 -49 103 0 c84 0 102 3 102 15 0 10 10 15 33 15
18 0 38 5 45 12 9 9 15 9 24 0 18 -18 36 -15 43 8 10 32 -4 60 -30 60 -13 0
-28 6 -32 14 -4 8 -21 17 -38 20 -20 4 -24 3 -12 -2z"/>
</g>
</svg>
