<?xml version="1.0" standalone="no"?>
<!DOCTYPE svg PUBLIC "-//W3C//DTD SVG 20010904//EN"
 "http://www.w3.org/TR/2001/REC-SVG-20010904/DTD/svg10.dtd">
<svg version="1.0" xmlns="http://www.w3.org/2000/svg"
 width="284.000000pt" height="177.000000pt" viewBox="0 0 284.000000 177.000000"
 preserveAspectRatio="xMidYMid meet">

<g transform="translate(0.000000,177.000000) scale(0.100000,-0.100000)"
fill="#000000" stroke="none">
<path d="M10 1756 c0 -33 13 -46 45 -46 49 0 65 9 65 36 0 22 -4 24 -55 24
-41 0 -55 -4 -55 -14z"/>
<path d="M161 1754 c0 -11 3 -14 6 -6 3 7 2 16 -1 19 -3 4 -6 -2 -5 -13z"/>
<path d="M179 1719 c-7 -28 -19 -53 -26 -56 -9 -4 -9 -8 0 -18 6 -7 17 -11 23
-8 8 3 84 -60 84 -71 0 -1 -52 -3 -115 -3 -63 0 -115 2 -115 6 1 12 28 41 39
41 6 0 11 4 11 8 0 5 10 13 22 19 18 8 10 10 -39 10 l-61 0 -1 -91 -1 -91 42
3 c51 4 98 -25 95 -59 -2 -25 -23 -35 -89 -44 l-48 -6 0 -155 c0 -85 4 -154 8
-154 5 0 17 9 26 19 10 11 43 35 74 53 30 18 69 45 85 61 15 15 32 27 36 27 4
0 18 12 32 26 25 27 97 64 123 64 8 0 18 5 21 10 3 6 23 10 43 10 20 0 55 9
77 19 50 22 91 30 180 32 39 1 80 7 93 12 17 8 29 8 42 -1 12 -7 21 -8 25 -2
3 6 0 10 -8 10 -17 0 -40 42 -35 65 11 56 94 34 92 -25 -2 -38 14 -39 56 -3
29 24 35 25 62 15 16 -6 36 -8 43 -6 7 3 18 -3 23 -13 9 -16 25 -18 169 -17
102 0 166 5 181 13 14 8 43 9 85 5 56 -6 65 -4 71 12 5 12 1 23 -8 30 -9 6
-16 16 -16 21 0 6 -7 16 -15 23 -25 21 -17 42 32 92 45 46 46 47 29 72 -9 14
-29 29 -44 32 -15 4 -40 13 -55 21 -23 12 -26 17 -16 29 10 12 -76 14 -654 14
l-665 0 -13 -51z m682 -79 c33 -18 23 -46 -24 -69 -24 -12 -50 -21 -58 -21 -8
0 -25 -9 -39 -20 -14 -11 -34 -20 -46 -20 -23 0 -60 -37 -93 -92 -26 -44 -39
-49 -97 -41 -74 10 -72 52 5 132 51 52 84 71 128 71 15 0 41 14 64 35 34 30
46 35 90 35 28 0 59 -5 70 -10z"/>
<path d="M1730 1755 c0 -8 7 -35 16 -61 15 -46 15 -48 -10 -98 -21 -41 -26
-64 -24 -114 1 -45 5 -62 15 -62 15 0 55 19 63 30 13 17 57 40 77 40 12 0 27
-9 33 -20 6 -10 17 -17 24 -14 8 3 17 1 21 -5 3 -6 23 -11 43 -11 40 1 81 23
63 35 -27 16 -9 27 33 22 43 -6 45 -5 64 31 26 51 54 63 121 50 30 -5 65 -17
80 -26 16 -11 47 -17 90 -18 55 -1 68 3 83 20 9 12 17 28 18 37 0 18 30 35 30
18 0 -6 5 -7 11 -3 8 5 6 10 -5 16 -25 14 -19 25 22 39 20 6 41 18 46 26 14
24 108 63 154 63 23 0 42 5 42 10 0 14 -93 13 -108 -2 -6 -6 -29 -11 -50 -10
-41 2 -92 -27 -92 -53 0 -18 -37 -26 -50 -10 -7 8 -8 28 -4 49 l6 36 -406 0
c-350 0 -406 -2 -406 -15z m280 -75 c19 -9 36 -24 38 -32 3 -14 -8 -15 -215
-9 -26 1 -30 22 -9 40 18 15 94 30 126 24 14 -3 41 -13 60 -23z"/>
<path d="M2742 1695 c-19 -8 -36 -24 -39 -36 -5 -16 -11 -19 -31 -14 -24 6
-23 4 11 -32 45 -46 46 -57 7 -48 -44 10 -62 -9 -54 -54 4 -20 13 -44 20 -55
7 -10 10 -24 8 -31 -3 -6 6 -19 20 -29 16 -10 23 -22 20 -31 -4 -8 -2 -15 3
-15 4 0 13 -8 20 -18 9 -16 8 -18 -10 -18 -11 1 -22 -6 -25 -14 -3 -8 -1 -12
3 -8 4 4 14 1 22 -7 8 -8 23 -15 33 -15 16 0 32 -20 34 -43 1 -4 7 -12 15 -16
17 -11 6 -45 -11 -36 -7 4 -5 0 5 -8 23 -19 22 -31 -3 -24 -17 4 -18 2 -9 -16
11 -19 13 -19 24 -4 7 9 18 17 24 17 7 0 11 6 8 13 -2 6 -10 11 -16 9 -16 -3
-14 13 4 28 12 10 15 36 15 112 l0 100 -27 -17 c-25 -17 -27 -17 -39 0 -7 9
-17 14 -23 10 -6 -3 -18 -2 -27 3 -14 8 -14 10 0 21 21 18 20 31 -1 32 -10 0
-13 3 -7 5 7 3 32 -7 57 -21 25 -14 51 -25 56 -25 7 0 11 51 11 150 l0 150
-32 0 c-18 -1 -48 -7 -66 -15z m48 -125 c0 -5 -4 -10 -10 -10 -5 0 -10 5 -10
10 0 6 5 10 10 10 6 0 10 -4 10 -10z m-25 -30 c3 -5 2 -10 -4 -10 -5 0 -13 5
-16 10 -3 6 -2 10 4 10 5 0 13 -4 16 -10z m-2 -195 c-3 -9 -8 -14 -10 -11 -3
3 -2 9 2 15 9 16 15 13 8 -4z"/>
<path d="M2550 1494 c-6 -14 -10 -30 -10 -35 0 -16 -31 -10 -57 11 -31 24 -41
25 -92 4 -39 -15 -61 -52 -40 -65 7 -4 5 -9 -5 -12 -9 -4 -16 -14 -16 -24 0
-10 -15 -30 -32 -45 -23 -19 -29 -31 -22 -38 15 -15 44 -1 44 21 0 17 5 18 39
13 33 -5 41 -3 50 14 6 11 25 24 43 27 18 4 36 13 40 19 4 6 31 15 59 21 44 8
54 14 62 37 7 23 4 31 -19 53 -15 14 -29 25 -31 25 -2 0 -8 -12 -13 -26z"/>
<path d="M1783 1419 c-24 -24 50 -99 97 -99 27 0 5 28 -32 42 -24 9 -42 21
-40 27 1 6 3 16 5 22 3 16 -17 21 -30 8z"/>
<path d="M2262 1397 c-16 -45 -15 -49 8 -37 11 6 20 17 20 25 0 8 4 15 10 15
5 0 7 7 4 15 -10 25 -29 17 -42 -18z"/>
<path d="M2177 1413 c-4 -3 -7 -17 -7 -30 0 -37 -18 -63 -38 -56 -13 5 -14 3
-6 -6 17 -19 57 -9 70 16 18 37 3 98 -19 76z"/>
<path d="M1580 1390 c0 -17 -7 -20 -39 -20 -25 0 -41 -5 -45 -15 -3 -9 -18
-15 -40 -15 -25 0 -38 -6 -46 -19 -14 -28 -14 -28 27 -36 31 -6 34 -8 20 -16
-9 -6 -17 -18 -17 -29 0 -10 -8 -21 -17 -23 -11 -3 -7 -5 10 -6 15 0 30 -8 33
-16 4 -10 14 -13 33 -8 14 3 28 9 31 12 3 3 21 14 42 23 20 9 39 26 43 37 3
12 11 21 16 21 6 0 16 15 24 34 8 19 22 42 32 52 16 16 16 17 1 12 -10 -4 -23
1 -34 13 -24 26 -74 26 -74 -1z"/>
<path d="M2642 1361 c-18 -11 12 -36 34 -27 14 5 14 8 0 21 -17 17 -17 17 -34
6z"/>
<path d="M857 1353 c-13 -12 -7 -23 14 -23 25 0 59 -17 59 -30 0 -5 -16 -7
-36 -5 -38 5 -74 -8 -74 -28 0 -16 -56 -41 -75 -33 -8 3 -15 12 -15 21 0 20
-20 18 -49 -5 -37 -32 -21 -54 34 -47 38 6 45 4 45 -11 0 -13 -8 -17 -34 -17
-19 0 -38 3 -42 8 -11 11 -44 9 -44 -3 0 -5 5 -10 10 -10 6 0 10 -7 10 -16 0
-11 6 -14 20 -9 12 4 20 2 20 -5 0 -6 -4 -9 -9 -5 -5 3 -12 1 -16 -5 -14 -22
52 -9 75 15 19 20 33 25 70 25 26 0 50 3 53 7 4 3 26 7 49 7 36 1 43 4 48 26
3 15 15 26 30 30 22 5 20 8 -28 44 -29 21 -50 42 -47 46 11 18 -53 39 -68 23z"/>
<path d="M2058 1348 c-4 -40 -20 -90 -25 -84 -9 9 -63 -16 -63 -29 0 -8 -8
-19 -17 -24 -14 -8 -9 -10 21 -6 31 4 43 0 58 -17 17 -19 22 -33 16 -41 -2 -2
3 -11 11 -20 7 -10 10 -17 5 -17 -14 0 29 -27 56 -35 l25 -7 -24 26 c-14 14
-19 26 -13 26 6 0 14 -4 17 -10 3 -5 13 -10 21 -10 8 0 12 5 9 10 -4 6 -2 16
3 23 5 7 13 23 17 35 6 21 4 23 -14 17 -24 -7 -30 19 -7 32 7 4 15 14 17 21 3
9 10 7 26 -8 25 -23 46 -26 61 -7 15 17 -22 40 -49 32 -11 -4 -26 -2 -32 4 -8
6 -18 6 -27 1 -9 -5 -25 0 -47 17 -29 22 -33 30 -28 55 4 17 2 28 -4 28 -6 0
-12 -6 -13 -12z m2 -123 c-9 -11 -9 -15 -1 -15 7 0 9 -5 6 -10 -11 -18 -24 -1
-21 28 5 38 5 37 18 24 8 -8 8 -15 -2 -27z"/>
<path d="M999 1330 c13 -11 29 -20 36 -20 7 0 34 -12 59 -26 58 -33 60 -60 3
-57 -49 3 -47 -13 3 -27 30 -8 44 -18 51 -38 6 -15 16 -30 22 -34 9 -6 9 -8
-1 -8 -9 0 -8 -7 4 -25 10 -15 12 -25 5 -25 -6 0 -11 -12 -11 -28 0 -19 11
-36 36 -57 20 -17 40 -40 45 -52 5 -13 13 -23 19 -23 6 0 3 11 -6 25 -9 13
-14 30 -11 37 3 8 10 0 17 -17 l12 -30 9 24 c9 23 10 23 29 6 11 -10 26 -15
35 -11 11 4 15 2 12 -6 -2 -7 -11 -12 -18 -10 -10 3 -11 0 -3 -8 12 -12 6 -70
-7 -70 -5 0 -9 4 -9 8 0 5 -6 9 -12 10 -7 1 -28 4 -47 7 -33 5 -34 5 -16 -15
10 -11 21 -17 25 -15 4 3 13 -2 20 -10 7 -8 9 -15 5 -15 -4 0 -2 -7 5 -15 6
-8 9 -23 6 -33 -8 -23 16 -36 32 -20 12 12 42 4 42 -12 0 -7 -6 -8 -19 -1 -16
9 -18 8 -14 -9 3 -11 9 -20 14 -20 5 0 9 -4 9 -10 0 -5 -11 -10 -25 -10 -31 0
-33 -20 -2 -21 15 0 10 -5 -18 -14 -36 -12 -36 -16 2 -19 6 -1 22 -11 35 -22
13 -12 33 -25 46 -29 17 -5 21 -12 17 -26 -5 -14 -2 -19 10 -19 14 0 16 6 11
35 -8 40 8 77 29 69 11 -5 14 2 12 31 -1 24 3 40 11 42 7 3 11 0 10 -5 -5 -17
6 -17 30 0 20 14 22 19 12 38 -6 12 -18 19 -25 16 -9 -3 -12 0 -9 8 4 10 20 5
62 -20 51 -31 56 -37 56 -69 0 -33 2 -35 33 -35 27 0 34 5 39 26 8 33 -9 52
-31 34 -10 -8 -15 -9 -15 -1 0 14 -14 13 182 15 156 2 169 3 187 23 11 11 17
23 14 26 -3 3 4 18 16 33 23 29 28 25 9 -9 -31 -56 -20 -62 114 -66 57 -2 70
1 88 19 17 17 29 20 54 16 17 -3 83 0 146 8 98 12 117 12 134 0 11 -8 28 -14
38 -14 10 0 18 -7 18 -15 0 -8 5 -15 11 -15 5 0 8 4 4 9 -3 5 -1 12 4 16 6 3
17 -7 25 -22 11 -21 15 -23 16 -10 0 11 5 15 11 11 6 -4 9 -19 5 -36 -3 -16
-2 -27 3 -24 26 17 28 -95 3 -162 -37 -98 -144 -212 -197 -212 -11 0 -27 5
-35 10 -13 9 -11 13 10 30 24 20 25 21 6 35 -18 14 -39 19 -58 16 -5 0 -8 7
-8 18 0 14 -13 23 -49 35 -28 9 -55 16 -62 16 -6 0 -22 12 -35 27 -19 22 -25
24 -38 14 -11 -9 -20 -10 -35 -1 -15 7 -21 8 -21 0 0 -6 -6 -10 -12 -9 -29 4
-38 -2 -38 -26 0 -31 17 -33 23 -3 3 14 5 7 6 -16 1 -37 0 -38 -28 -33 -24 5
-30 2 -34 -15 -5 -16 -11 -19 -31 -14 -15 4 -26 2 -26 -4 0 -17 -21 -11 -40
12 -17 21 -18 21 -43 5 -35 -23 -50 -22 -42 3 3 11 2 20 -4 20 -13 0 -21 -14
-27 -48 -8 -45 -11 -50 -38 -45 -19 4 -26 1 -26 -11 0 -9 7 -16 15 -16 28 0
15 -28 -15 -32 -16 -3 -30 -1 -30 4 0 4 -25 8 -55 8 -40 0 -56 -4 -63 -17 -9
-15 -11 -14 -21 5 -9 18 -14 19 -41 9 -20 -8 -31 -20 -36 -40 -7 -35 -26 -22
-28 20 -1 17 -7 29 -17 31 -13 2 -15 -3 -11 -25 5 -25 4 -27 -11 -14 -9 7 -24
10 -33 7 -9 -4 -48 -11 -86 -16 -38 -6 -79 -16 -91 -24 -12 -8 -48 -18 -80
-21 -46 -6 -60 -12 -66 -28 -6 -15 -19 -21 -54 -24 -43 -3 -48 -1 -57 21 -11
29 -57 56 -95 56 -30 0 -32 -11 -5 -35 11 -10 17 -22 13 -28 -4 -6 -14 -1 -25
12 -10 13 -18 18 -18 12 0 -6 -13 -11 -30 -11 -34 0 -41 19 -10 27 21 6 27 37
10 48 -6 4 -22 -1 -36 -10 -25 -16 -44 -13 -44 9 0 18 -21 35 -36 29 -8 -3
-14 -11 -14 -19 0 -8 -6 -11 -16 -7 -10 4 -22 0 -28 -9 -14 -19 -46 -19 -68
-1 -21 19 -40 8 -36 -20 3 -19 -2 -22 -32 -23 -42 -1 -142 28 -147 43 -2 6 4
37 15 69 16 49 23 59 50 68 17 6 39 20 49 30 16 16 16 18 1 13 -10 -4 -18 1
-21 14 -3 10 -13 22 -24 25 -10 3 -26 10 -36 15 -10 5 -22 7 -26 4 -5 -3 -7 4
-4 15 4 14 0 20 -11 20 -14 0 -13 -6 4 -51 24 -60 19 -85 -18 -94 -53 -13 -74
-33 -67 -66 7 -33 -13 -41 -35 -14 -7 8 -25 15 -40 15 -16 0 -35 3 -44 6 -18
7 -22 39 -6 49 6 3 10 14 10 24 0 9 7 26 15 37 14 19 14 19 30 -3 10 -14 27
-23 44 -23 15 0 32 -5 38 -11 7 -7 18 -3 37 14 14 13 26 27 26 30 0 9 -44 5
-57 -6 -9 -6 -15 -4 -19 7 -3 9 -12 16 -20 16 -17 0 -19 36 -1 43 7 3 5 6 -5
6 -10 1 -18 -3 -18 -8 0 -13 -39 -21 -46 -9 -3 5 -14 2 -26 -9 -22 -20 -59
-19 -71 3 -10 18 -37 6 -37 -17 0 -10 -5 -19 -11 -19 -6 0 -8 -7 -5 -16 5 -12
2 -15 -10 -10 -8 3 -18 6 -20 6 -2 0 -4 7 -4 15 0 7 -7 18 -16 23 -11 6 -17
24 -18 51 0 22 -4 41 -8 41 -5 0 -8 -7 -8 -16 0 -17 -40 -16 -52 1 -4 6 -8 0
-8 -11 0 -12 7 -27 16 -35 8 -7 13 -21 11 -31 -3 -10 -2 -18 1 -18 7 0 47 -31
83 -63 24 -21 182 -117 193 -117 5 0 17 -6 25 -13 9 -7 50 -26 91 -42 41 -16
80 -32 85 -36 6 -5 49 -20 95 -35 47 -14 92 -32 100 -39 8 -6 24 -15 34 -19
12 -4 16 -10 10 -16 -6 -6 -40 -6 -94 1 -47 6 -94 12 -105 14 -31 3 -65 17
-65 25 0 4 -19 10 -43 13 -24 3 -70 19 -103 35 -32 16 -89 39 -126 51 -36 12
-72 29 -78 37 -7 8 -20 14 -29 14 -9 0 -21 8 -28 19 -6 10 -26 29 -42 41 l-31
21 0 -61 c0 -59 1 -61 30 -67 17 -3 33 -10 36 -14 3 -5 9 -7 14 -4 4 3 13 -2
20 -10 7 -8 18 -15 26 -15 7 0 17 -6 21 -13 11 -16 49 -37 69 -37 9 0 30 -6
47 -14 29 -13 151 -51 247 -76 42 -11 2211 -13 2193 -2 -6 4 -13 35 -16 69 -3
54 -1 63 15 69 10 3 18 15 18 28 0 30 25 51 78 67 l42 12 0 349 c0 198 -4 348
-9 348 -5 0 -5 16 0 38 12 50 11 72 -2 72 -5 0 -7 -5 -4 -10 12 -19 -8 -10
-29 13 -11 12 -21 29 -21 36 0 23 -23 24 -30 2 -5 -17 -15 -21 -55 -21 -54 0
-72 -14 -44 -35 18 -14 18 -14 -2 -15 -11 0 -25 5 -32 12 -14 14 -27 -13 -19
-42 4 -14 0 -20 -11 -21 -11 0 -12 -2 -4 -6 6 -2 12 -11 12 -19 0 -8 5 -14 10
-14 6 0 10 -8 10 -18 0 -25 36 -59 43 -40 6 17 13 9 21 -24 4 -17 2 -28 -4
-28 -5 0 -10 7 -10 16 0 14 -3 14 -15 4 -13 -10 -30 -11 -83 -2 -37 6 -87 14
-112 18 -36 4 -49 11 -62 34 -15 26 -15 29 5 49 12 12 16 21 9 21 -6 0 -12 7
-12 15 0 8 -4 15 -9 15 -5 0 -14 -7 -21 -15 -7 -8 -19 -15 -26 -15 -8 0 -14
-6 -14 -14 0 -16 -49 -19 -68 -3 -9 7 -21 4 -43 -12 -18 -13 -39 -21 -50 -18
-12 3 -18 1 -17 -6 2 -7 -8 -23 -21 -36 -16 -16 -22 -19 -18 -8 4 10 1 17 -6
18 -45 3 -61 7 -65 18 -2 6 -13 16 -24 22 -25 14 -48 -4 -40 -33 4 -15 1 -19
-9 -16 -8 3 -13 11 -11 18 1 7 -2 18 -9 26 -6 7 -8 18 -4 25 4 6 1 15 -6 20
-7 4 -11 11 -7 14 7 7 96 -21 115 -36 7 -6 21 -8 32 -4 11 3 25 0 32 -8 11
-12 19 -9 47 17 32 29 39 31 115 31 55 0 82 4 84 13 3 6 10 12 17 12 6 0 12 9
13 20 1 16 -3 20 -16 15 -14 -4 -21 4 -31 35 -9 27 -19 40 -31 40 -13 0 -17 5
-12 18 5 14 3 13 -10 -3 -12 -16 -20 -18 -33 -9 -10 5 -18 18 -20 27 -2 15 3
17 34 11 55 -10 111 -36 90 -41 -22 -5 -23 -29 -3 -37 24 -9 215 54 215 71 0
4 -3 4 -6 0 -4 -3 -13 0 -21 8 -12 12 -18 10 -45 -16 -17 -16 -36 -28 -42 -26
-11 4 -11 12 1 70 4 19 0 34 -12 47 -17 19 -17 20 1 26 59 18 69 42 17 40 -30
-1 -37 -5 -35 -18 3 -22 -31 -32 -58 -18 -23 12 -50 -1 -50 -25 0 -7 -8 -16
-17 -20 -16 -7 -15 -9 5 -14 37 -10 26 -26 -20 -29 -24 -1 -53 -5 -66 -7 l-23
-6 21 -26 c14 -18 17 -30 10 -38 -5 -6 -7 -15 -3 -18 3 -4 1 -7 -6 -7 -8 0
-10 -11 -5 -35 7 -38 -2 -43 -38 -24 -25 13 -35 5 -18 -16 7 -9 11 -17 9 -18
-2 -1 -13 -9 -23 -17 -13 -10 -17 -10 -12 -2 4 6 3 12 -3 12 -5 0 -11 -5 -13
-12 -2 -6 -10 -8 -17 -4 -7 5 -10 15 -7 23 5 11 2 13 -11 8 -31 -12 -35 -11
-44 12 -5 14 -4 25 3 29 7 5 8 2 3 -6 -5 -8 -3 -11 6 -8 8 3 13 11 11 18 -2 8
3 10 13 7 19 -8 19 0 1 19 -18 17 -33 18 -39 2 -3 -7 -6 -2 -6 11 -1 24 -1 24
-17 5 -13 -16 -15 -16 -10 -1 3 11 0 17 -9 17 -8 0 -15 6 -15 13 0 7 -9 23
-20 35 -11 12 -20 25 -20 29 0 4 -23 9 -50 10 -44 2 -50 0 -50 -17 0 -11 -3
-19 -7 -18 -5 1 -24 -8 -43 -20 -35 -22 -35 -31 1 -12 14 8 25 6 45 -7 25 -16
25 -17 8 -30 -15 -11 -11 -15 12 -12 4 0 10 -5 15 -12 6 -10 11 -10 26 1 13
10 15 10 6 1 -6 -7 -9 -19 -6 -27 3 -9 -4 -12 -26 -9 -17 2 -31 0 -31 -5 0
-14 23 -25 48 -21 16 2 22 -3 22 -18 0 -11 4 -22 9 -25 8 -6 7 -54 -2 -63 -3
-2 -14 0 -25 6 -31 17 -39 14 -45 -19 -5 -21 -12 -30 -27 -30 -13 0 -20 7 -20
18 0 23 -50 25 -67 3 -7 -10 -12 -11 -13 -4 0 12 -55 29 -80 24 -8 -2 -18 -7
-21 -13 -3 -5 -10 -8 -15 -6 -5 2 -20 -7 -34 -19 -33 -32 -50 -29 -50 7 0 27
-3 30 -30 30 -16 0 -30 -5 -30 -11 0 -5 4 -8 9 -5 14 9 41 -4 41 -20 0 -8 -4
-14 -10 -14 -5 0 -10 5 -10 10 0 6 -9 10 -19 10 -11 0 -22 6 -24 13 -3 6 -6 4
-6 -7 -1 -10 -9 -24 -18 -31 -14 -10 -9 -14 35 -24 28 -7 53 -19 56 -27 3 -9
1 -12 -4 -9 -6 3 -13 -1 -16 -9 -4 -11 -11 -13 -31 -5 -29 11 -47 3 -39 -17 3
-8 1 -14 -3 -14 -14 0 -20 25 -10 41 12 19 11 32 -1 24 -5 -3 -10 -1 -10 5 0
6 -11 15 -24 21 -22 10 -23 13 -9 40 17 33 27 39 18 9 -5 -14 -2 -20 9 -20 11
0 16 10 16 34 0 19 4 36 10 38 5 2 11 26 12 54 2 29 6 50 11 47 4 -2 7 8 7 24
l-1 28 -19 -23 c-18 -22 -21 -22 -36 -8 -8 9 -28 16 -44 16 -35 0 -49 -29 -23
-48 17 -13 17 -14 -2 -9 -11 3 -36 8 -56 11 -35 6 -37 9 -44 51 -3 25 -10 45
-14 45 -11 0 -2 83 10 95 7 7 15 4 23 -7 13 -18 36 -24 36 -10 0 10 -49 62
-58 62 -5 0 -13 -5 -20 -12 -8 -8 -14 -5 -22 16 -5 15 -10 33 -10 40 0 21 -25
37 -63 41 -19 1 -54 6 -78 9 l-44 7 24 -21z m886 -220 c-3 -5 -12 -10 -18 -10
-7 0 -6 4 3 10 19 12 23 12 15 0z m65 0 c0 -5 -4 -10 -10 -10 -5 0 -10 5 -10
10 0 6 5 10 10 10 6 0 10 -4 10 -10z m-25 -19 c3 -5 2 -12 -3 -15 -5 -3 -9 1
-9 9 0 17 3 19 12 6z m839 -37 c10 -25 7 -34 -9 -34 -18 0 -20 20 -2 21 10 0
10 2 0 6 -15 5 -17 23 -4 23 5 0 12 -7 15 -16z m-497 0 c-3 -3 -12 -4 -19 -1
-8 3 -5 6 6 6 11 1 17 -2 13 -5z m-877 -80 c0 -8 -19 -13 -24 -6 -3 5 1 9 9 9
8 0 15 -2 15 -3z m35 -303 c3 -5 1 -12 -5 -16 -5 -3 -10 1 -10 9 0 18 6 21 15
7z m-1185 -288 c0 -5 -12 -16 -25 -26 -24 -17 -25 -17 -25 1 0 10 3 22 7 25 9
9 43 9 43 0z m215 -53 c3 -5 1 -10 -4 -10 -6 0 -11 5 -11 10 0 6 2 10 4 10 3
0 8 -4 11 -10z m1505 -35 c0 -8 -4 -15 -10 -15 -5 0 -10 7 -10 15 0 8 5 15 10
15 6 0 10 -7 10 -15z m564 -14 c3 -5 -1 -14 -9 -21 -13 -10 -15 -9 -15 9 0 21
14 28 24 12z m169 -85 c16 -13 16 -15 -11 -44 -15 -16 -26 -35 -24 -41 5 -16
-34 -13 -48 4 -7 8 -16 12 -21 9 -25 -15 -4 18 31 50 45 40 48 41 73 22z
m-1838 -146 c3 -6 15 -10 26 -10 30 0 22 -17 -8 -18 -36 -1 -93 17 -93 29 0
12 67 12 75 -1z m233 -37 c-10 -2 -26 -2 -35 0 -10 3 -2 5 17 5 19 0 27 -2 18
-5z"/>
<path d="M1237 1344 c-16 -17 -6 -34 21 -34 29 0 60 15 51 24 -10 10 -64 18
-72 10z"/>
<path d="M2430 1340 c0 -13 11 -13 30 0 12 8 11 10 -7 10 -13 0 -23 -4 -23
-10z"/>
<path d="M2527 1332 c-24 -27 -21 -32 13 -19 17 6 29 16 27 21 -6 18 -23 17
-40 -2z"/>
<path d="M741 1323 c7 -10 15 -20 16 -22 2 -2 3 5 3 17 0 14 -6 22 -16 22 -14
0 -15 -3 -3 -17z"/>
<path d="M1736 1294 c-9 -22 -8 -26 5 -19 6 4 26 7 45 7 36 0 45 12 18 22 -29
11 -62 6 -68 -10z"/>
<path d="M437 1279 c-10 -6 -27 -9 -38 -6 -10 3 -22 1 -25 -5 -8 -13 35 -58
51 -52 7 3 16 1 19 -4 10 -16 -58 -45 -93 -40 -20 3 -30 1 -28 -6 2 -6 21 -10
41 -10 27 1 34 -2 27 -9 -6 -6 -11 -21 -11 -34 0 -12 -9 -37 -20 -55 -11 -18
-20 -36 -20 -40 0 -9 177 -4 186 5 7 6 33 -21 34 -35 0 -3 -13 -1 -30 5 -22 8
-33 8 -41 0 -9 -9 -6 -10 12 -6 13 3 21 2 16 -2 -8 -9 43 -35 56 -28 4 2 7 13
7 23 0 13 5 17 15 14 8 -4 12 -10 9 -15 -3 -5 3 -9 14 -9 11 0 32 -10 48 -22
33 -26 62 -25 86 3 13 15 28 20 55 19 57 -3 60 -2 66 21 3 11 15 23 26 26 12
3 21 9 21 15 0 5 10 -1 22 -12 26 -24 66 -36 78 -24 5 5 10 26 12 47 2 30 -3
41 -22 55 -37 26 -83 34 -96 16 -6 -7 -24 -14 -40 -14 -22 0 -26 -3 -14 -10 8
-5 25 -10 38 -10 26 0 27 -8 7 -38 -14 -19 -22 -21 -63 -16 -28 4 -54 14 -64
25 -19 23 -34 24 -41 5 -4 -10 -1 -13 7 -10 10 4 12 -2 8 -21 -4 -26 -5 -26
-26 -8 -11 10 -36 18 -53 18 -18 0 -33 2 -33 6 0 11 -35 45 -53 52 -11 4 -21
16 -24 27 -4 13 -14 20 -30 20 -13 0 -22 -4 -18 -9 8 -14 -9 -21 -24 -11 -8 4
-11 15 -8 24 7 19 57 22 75 4 9 -9 13 -7 18 6 4 10 2 22 -4 28 -9 9 -8 15 0
25 8 10 8 17 -1 26 -19 19 -83 -20 -76 -47 3 -12 2 -15 -1 -8 -3 6 -12 12 -20
12 -18 0 -18 24 1 40 8 7 15 23 15 36 0 26 -21 31 -53 13z m-11 -151 c-1 -27
-26 -37 -26 -10 0 11 6 23 13 25 6 3 13 6 13 6 1 1 1 -9 0 -21z m434 -142 c0
-3 -4 -8 -10 -11 -5 -3 -10 -1 -10 4 0 6 5 11 10 11 6 0 10 -2 10 -4z"/>
<path d="M785 1280 c-3 -5 -1 -10 4 -10 6 0 11 5 11 10 0 6 -2 10 -4 10 -3 0
-8 -4 -11 -10z"/>
<path d="M2365 1280 c3 -5 14 -10 23 -10 15 0 15 2 2 10 -20 13 -33 13 -25 0z"/>
<path d="M1707 1273 c-10 -9 -9 -23 1 -23 5 0 9 7 9 15 0 17 -1 18 -10 8z"/>
<path d="M1291 1259 c-18 -7 -21 -13 -13 -21 8 -8 20 -5 44 10 26 17 29 22 13
21 -11 0 -31 -5 -44 -10z"/>
<path d="M1800 1248 c11 -12 20 -27 20 -34 0 -9 10 -10 36 -4 47 11 52 18 21
25 -15 4 -31 13 -38 21 -6 8 -22 14 -36 14 l-24 0 21 -22z"/>
<path d="M2548 1263 c6 -2 18 -2 25 0 6 3 1 5 -13 5 -14 0 -19 -2 -12 -5z"/>
<path d="M1744 1251 c5 -8 -74 -31 -105 -31 -14 0 -40 -26 -33 -33 3 -3 29 -3
57 0 52 6 52 5 34 -15 -23 -26 -101 -46 -126 -33 -10 6 -27 7 -39 4 -17 -4
-20 -9 -12 -23 16 -29 12 -39 -12 -35 -29 6 -38 -10 -39 -70 0 -27 -4 -59 -9
-70 l-9 -20 -1 20 c-1 13 -5 9 -11 -14 -12 -39 -8 -46 19 -32 12 6 30 11 41
11 12 0 21 5 21 10 0 6 9 10 20 10 17 0 20 7 20 40 0 29 -4 40 -15 40 -8 0
-15 5 -15 10 0 6 4 10 10 10 5 0 16 12 24 28 8 15 15 21 16 15 0 -7 7 -13 15
-13 9 0 12 -6 9 -15 -7 -17 6 -19 55 -9 17 4 31 12 30 18 -3 24 2 36 28 66 22
26 24 33 12 41 -12 8 -11 12 5 24 11 8 26 15 33 15 7 0 13 6 13 14 0 26 -12
46 -27 46 -8 0 -12 -4 -9 -9z m-69 -141 c3 -5 1 -10 -4 -10 -6 0 -11 5 -11 10
0 6 2 10 4 10 3 0 8 -4 11 -10z"/>
<path d="M1938 1253 c7 -3 16 -2 19 1 4 3 -2 6 -13 5 -11 0 -14 -3 -6 -6z"/>
<path d="M1360 1240 c0 -5 5 -10 11 -10 5 0 7 5 4 10 -3 6 -8 10 -11 10 -2 0
-4 -4 -4 -10z"/>
<path d="M2548 1213 c7 -3 16 -2 19 1 4 3 -2 6 -13 5 -11 0 -14 -3 -6 -6z"/>
<path d="M1293 1169 c-49 -15 -42 -33 11 -27 25 3 48 2 53 -1 4 -4 33 -2 63 4
35 7 49 13 38 17 -32 13 -133 17 -165 7z"/>
<path d="M221 1124 c-25 -42 -25 -44 -5 -44 24 0 45 32 32 47 -8 10 -5 13 11
13 12 0 19 5 16 10 -12 20 -33 9 -54 -26z"/>
<path d="M187 1133 c-4 -3 -7 -11 -7 -17 0 -6 5 -5 12 2 6 6 9 14 7 17 -3 3
-9 2 -12 -2z"/>
<path d="M615 1131 c-6 -11 13 -26 22 -17 4 3 0 6 -8 6 -11 0 -11 2 1 10 9 6
10 10 3 10 -6 0 -14 -4 -18 -9z"/>
<path d="M1328 1123 c7 -3 16 -2 19 1 4 3 -2 6 -13 5 -11 0 -14 -3 -6 -6z"/>
<path d="M795 1110 c-3 -5 3 -10 14 -10 11 0 23 5 26 10 3 6 -3 10 -14 10 -11
0 -23 -4 -26 -10z"/>
<path d="M1390 1110 c0 -5 6 -10 14 -10 8 0 18 5 21 10 3 6 -3 10 -14 10 -12
0 -21 -4 -21 -10z"/>
<path d="M1723 1098 c-23 -29 -10 -47 39 -59 27 -6 52 -8 55 -5 4 3 1 6 -6 6
-7 0 -9 5 -5 11 4 7 -3 10 -17 8 -37 -3 -60 11 -54 32 7 22 2 25 -12 7z"/>
<path d="M2480 1092 c0 -7 -7 -12 -15 -12 -8 0 -19 -9 -25 -21 -10 -18 -10
-19 8 -10 25 13 46 40 38 48 -3 3 -6 1 -6 -5z"/>
<path d="M2795 1080 c3 -5 14 -10 23 -10 15 0 15 2 2 10 -20 13 -33 13 -25 0z"/>
<path d="M214 1041 c6 -10 -18 -34 -26 -26 -3 3 -11 -1 -18 -10 -8 -10 -9 -15
-1 -15 6 0 11 -11 11 -25 0 -14 5 -25 11 -25 5 0 7 -4 4 -10 -3 -5 -15 -10
-25 -10 -10 0 -20 -6 -23 -12 -3 -9 -12 -6 -29 10 -28 26 -38 28 -38 7 0 -8 5
-15 10 -15 6 0 16 -4 23 -10 73 -59 70 -54 47 -68 -17 -11 -20 -10 -20 6 0 22
-30 52 -52 52 -8 0 -24 -11 -34 -25 -11 -15 -21 -20 -25 -13 -4 6 -12 7 -20 2
-9 -5 -2 -11 22 -19 30 -11 34 -15 31 -43 -3 -26 0 -32 17 -33 33 -2 39 -4 46
-10 3 -4 -5 -9 -18 -13 -13 -3 -29 -16 -36 -30 -11 -21 -11 -28 5 -55 10 -17
22 -31 26 -31 13 0 52 24 61 38 4 6 15 12 23 12 9 0 23 18 32 41 13 34 18 38
27 26 10 -14 47 -22 88 -19 21 2 23 32 2 32 -8 0 -15 7 -15 15 0 18 0 18 36 0
29 -14 74 -11 74 6 0 5 -8 9 -18 9 -19 0 -42 18 -42 32 0 4 9 8 21 8 11 0 18
-4 15 -9 -3 -5 1 -12 10 -15 11 -4 18 1 21 14 3 11 13 20 23 20 10 0 20 5 22
11 3 9 9 9 24 1 11 -6 32 -9 47 -8 18 2 27 -2 27 -10 0 -8 7 -14 16 -14 9 0
12 -5 8 -12 -5 -7 -2 -9 9 -5 9 3 17 1 19 -4 2 -6 11 -7 21 -4 22 9 23 55 1
55 -10 0 -14 5 -10 16 3 8 2 13 -3 9 -5 -3 -11 -1 -13 5 -1 5 -24 13 -51 16
-38 5 -51 3 -68 -11 -16 -15 -36 -19 -105 -18 -58 0 -83 -3 -81 -11 2 -6 21
-10 43 -8 l39 2 -40 -15 c-48 -18 -65 -19 -65 -4 0 6 7 8 16 5 14 -5 15 -4 4
9 -7 8 -19 15 -26 15 -8 0 -14 7 -14 15 0 12 -7 14 -27 9 -16 -4 -35 -11 -44
-15 -12 -6 -21 -3 -30 8 -12 15 -12 16 4 10 18 -7 61 26 49 37 -3 3 1 6 9 6 8
0 20 -5 26 -11 5 -5 22 -7 37 -3 27 6 33 18 16 29 -6 4 -10 16 -8 27 2 12 -5
25 -17 32 -11 6 -23 16 -27 21 -4 6 -8 6 -8 1 0 -5 7 -17 16 -27 15 -16 14
-17 -3 -13 -10 3 -27 17 -37 31 -17 23 -17 26 -3 20 9 -3 17 -2 17 2 0 5 -7
12 -16 15 -21 8 -26 8 -20 -3z m-133 -208 c13 -17 13 -17 -6 -3 -11 8 -22 16
-24 17 -2 2 0 3 6 3 6 0 17 -8 24 -17z m47 -41 c2 -7 -2 -10 -12 -6 -9 3 -16
11 -16 16 0 13 23 5 28 -10z m257 -12 c3 -5 2 -10 -4 -10 -5 0 -13 5 -16 10
-3 6 -2 10 4 10 5 0 13 -4 16 -10z m-185 -19 c-8 -5 -25 -12 -37 -15 -18 -6
-22 -4 -17 8 4 10 18 16 38 16 22 -1 27 -3 16 -9z m90 -21 c0 -5 -4 -10 -9
-10 -6 0 -13 5 -16 10 -3 6 1 10 9 10 9 0 16 -4 16 -10z m-169 -49 c-7 -5 -11
-14 -7 -20 5 -7 1 -9 -8 -5 -26 10 -17 34 13 34 13 0 13 -2 2 -9z"/>
<path d="M2391 1034 c0 -11 3 -14 6 -6 3 7 2 16 -1 19 -3 4 -6 -2 -5 -13z"/>
<path d="M1110 1015 c-7 -9 -10 -18 -6 -22 3 -4 12 0 19 9 6 9 19 18 27 21 10
4 8 6 -6 6 -12 1 -27 -6 -34 -14z"/>
<path d="M1775 980 c3 -5 8 -10 11 -10 2 0 4 5 4 10 0 6 -5 10 -11 10 -5 0 -7
-4 -4 -10z"/>
<path d="M2480 981 c0 -11 39 -41 52 -41 14 0 8 23 -9 36 -21 16 -43 18 -43 5z"/>
<path d="M966 967 c3 -10 9 -15 12 -12 3 3 0 11 -7 18 -10 9 -11 8 -5 -6z"/>
<path d="M998 959 c-2 -7 -20 -12 -38 -13 -19 -1 -35 -5 -35 -11 0 -5 5 -9 13
-7 7 2 12 -3 11 -10 -4 -31 1 -39 19 -29 23 12 47 -2 39 -23 -5 -13 2 -16 44
-16 35 0 51 -4 55 -15 4 -8 17 -15 30 -15 25 0 32 14 14 25 -6 4 -8 11 -4 16
3 5 -9 8 -28 7 -27 -3 -33 0 -33 17 0 11 -8 22 -18 25 -16 5 -15 6 4 18 12 8
18 9 14 3 -3 -6 -2 -11 3 -11 6 0 12 6 15 14 6 16 -19 30 -28 16 -4 -6 -18 -4
-35 5 -35 18 -37 18 -42 4z m-22 -56 c-10 -10 -19 5 -10 18 6 11 8 11 12 0 2
-7 1 -15 -2 -18z"/>
<path d="M370 956 c0 -2 9 -6 20 -9 11 -3 18 -1 14 4 -5 9 -34 13 -34 5z"/>
<path d="M618 943 c7 -3 16 -2 19 1 4 3 -2 6 -13 5 -11 0 -14 -3 -6 -6z"/>
<path d="M1143 913 c9 -9 20 -13 24 -9 4 4 1 11 -7 16 -25 16 -35 11 -17 -7z"/>
<path d="M655 890 c3 -5 11 -10 16 -10 6 0 7 5 4 10 -3 6 -11 10 -16 10 -6 0
-7 -4 -4 -10z"/>
<path d="M706 873 c-13 -14 16 -43 44 -43 17 0 30 -5 30 -11 0 -5 4 -7 10 -4
6 4 3 13 -8 23 -21 21 -68 43 -76 35z"/>
<path d="M976 835 c-3 -8 -1 -15 4 -15 6 0 10 7 10 15 0 8 -2 15 -4 15 -2 0
-6 -7 -10 -15z"/>
<path d="M1043 833 c9 -2 23 -2 30 0 6 3 -1 5 -18 5 -16 0 -22 -2 -12 -5z"/>
<path d="M1233 822 c1 -12 6 -18 14 -15 16 6 13 25 -5 31 -6 2 -10 -6 -9 -16z"/>
<path d="M485 811 c-3 -11 -15 -23 -26 -26 -16 -5 -18 -10 -8 -21 6 -7 9 -20
6 -29 -8 -19 39 -10 102 21 38 18 43 23 27 30 -11 4 -21 2 -26 -6 -5 -8 -17
-10 -33 -6 -16 4 -27 1 -30 -7 -2 -6 -8 -9 -12 -4 -12 10 -1 18 36 26 18 4 35
13 37 20 3 10 -2 12 -22 7 -15 -4 -26 -2 -26 4 0 18 -18 11 -25 -9z"/>
<path d="M1120 790 c-25 -11 -38 -20 -30 -21 51 -6 62 -5 77 7 34 24 2 34 -47
14z"/>
<path d="M967 776 c-3 -8 1 -20 9 -27 9 -7 13 -21 11 -30 -3 -13 2 -19 17 -21
15 -2 20 -9 19 -26 -3 -28 20 -29 64 -3 32 20 41 21 83 4 14 -6 39 -13 56 -16
27 -5 33 -3 38 15 3 12 1 27 -4 33 -6 7 -4 19 5 33 9 12 11 23 6 27 -5 3 -12
1 -15 -4 -3 -5 -22 -12 -41 -15 -20 -4 -33 -11 -30 -17 4 -5 -4 -7 -17 -5 -13
3 -27 5 -31 5 -5 1 -5 6 -1 13 4 6 -3 4 -17 -5 -27 -20 -40 -22 -36 -6 1 6 -4
14 -11 16 -9 4 -11 -2 -6 -21 4 -16 2 -26 -5 -26 -6 0 -11 7 -11 15 0 9 -9 15
-21 15 -18 0 -19 2 -9 15 15 18 7 29 -26 39 -14 4 -24 2 -27 -8z"/>
<path d="M880 771 c0 -7 -4 -9 -10 -6 -5 3 -10 1 -10 -4 0 -6 4 -11 9 -11 13
0 25 20 17 27 -3 4 -6 1 -6 -6z"/>
<path d="M552 742 c-37 -18 -40 -46 -4 -48 35 -2 58 20 47 44 -10 19 -12 19
-43 4z"/>
<path d="M778 750 c-28 -8 -101 -60 -95 -67 8 -7 56 16 98 47 43 31 43 34 -3
20z"/>
<path d="M793 700 c-34 -14 -57 -54 -44 -79 18 -33 13 -49 -19 -56 -17 -4 -28
-10 -26 -14 3 -4 -8 -15 -25 -25 -28 -17 -29 -17 -29 4 0 13 -5 20 -12 17 -7
-2 -12 -14 -10 -25 2 -12 -2 -22 -7 -22 -6 0 -11 7 -11 15 0 8 -6 15 -12 15
-7 0 -13 11 -13 25 0 17 6 25 17 25 11 0 15 6 11 20 -4 14 -14 20 -34 20 -18
0 -28 5 -26 12 3 19 -42 22 -49 4 -3 -9 -13 -16 -21 -16 -18 0 -9 -36 18 -65
10 -11 17 -24 17 -30 -1 -10 130 -105 146 -105 4 0 6 7 3 15 -4 8 -2 17 3 20
6 4 10 -1 10 -9 0 -12 9 -15 39 -13 43 4 111 44 111 66 0 9 7 11 21 8 32 -8
69 9 69 33 0 24 -4 25 -34 5 -21 -14 -26 -14 -52 0 -16 8 -35 15 -42 15 -19 0
-26 28 -12 45 7 8 9 22 6 31 -3 8 1 22 10 31 17 18 24 14 27 -16 1 -17 8 -21
34 -21 18 0 33 4 33 10 0 23 -24 59 -44 64 -25 7 -26 7 -53 -4z m-191 -203 c4
-6 5 -13 3 -15 -4 -4 -65 26 -65 33 0 9 55 -7 62 -18z"/>
<path d="M350 659 c-14 -6 -52 -9 -85 -8 -56 3 -60 1 -63 -21 -3 -21 -2 -22
12 -11 13 11 16 11 16 -2 0 -12 6 -13 38 -5 20 6 47 11 60 12 12 0 22 7 22 14
0 7 7 12 16 10 10 -2 19 3 21 10 5 14 -3 14 -37 1z"/>
<path d="M1850 656 c0 -7 -7 -27 -16 -42 l-16 -29 5 27 c2 16 0 26 -7 25 -17
-3 -26 -20 -20 -39 3 -10 1 -18 -5 -18 -6 0 -11 -4 -11 -10 0 -6 29 -10 66
-10 51 0 73 5 95 21 38 27 37 46 -2 47 -19 0 -37 9 -46 21 -16 24 -43 28 -43
7z m100 -56 c0 -5 -7 -10 -16 -10 -8 0 -12 5 -9 10 3 6 10 10 16 10 5 0 9 -4
9 -10z"/>
<path d="M1534 646 c-4 -11 -1 -21 7 -27 17 -11 26 18 10 34 -7 7 -12 5 -17
-7z"/>
<path d="M1224 625 c-8 -19 42 -67 64 -63 28 5 24 25 -8 36 -16 6 -30 18 -30
26 0 20 -19 21 -26 1z"/>
<path d="M683 608 c-13 -6 -23 -15 -23 -20 0 -5 4 -7 9 -4 5 4 11 1 13 -5 2
-7 12 -7 31 0 18 7 25 15 21 26 -7 17 -20 18 -51 3z"/>
<path d="M45 600 c4 -6 11 -8 16 -5 14 9 11 15 -7 15 -8 0 -12 -5 -9 -10z"/>
<path d="M1005 600 c3 -5 8 -10 11 -10 2 0 4 5 4 10 0 6 -5 10 -11 10 -5 0 -7
-4 -4 -10z"/>
<path d="M1098 578 c5 -19 24 -22 56 -9 16 6 17 9 5 17 -8 5 -26 9 -40 9 -20
0 -25 -4 -21 -17z"/>
<path d="M88 582 c-16 -2 -28 -9 -28 -18 0 -16 27 -19 49 -5 21 13 9 26 -21
23z"/>
<path d="M148 573 c-22 -5 -24 -33 -3 -33 8 0 19 9 25 20 11 20 9 21 -22 13z"/>
<path d="M918 573 c7 -3 16 -2 19 1 4 3 -2 6 -13 5 -11 0 -14 -3 -6 -6z"/>
<path d="M2007 566 c-8 -8 -31 -18 -51 -21 -68 -13 -54 -46 26 -59 31 -5 44
-3 50 7 4 8 25 18 45 23 21 4 41 8 46 9 4 2 34 3 67 4 38 1 60 5 60 13 0 6 -3
8 -7 5 -3 -4 -14 0 -24 9 -16 15 -20 14 -46 -1 -28 -16 -31 -16 -68 4 -46 25
-78 27 -98 7z"/>
<path d="M1650 551 c0 -7 18 -20 40 -30 22 -10 37 -21 34 -24 -12 -12 26 -19
40 -8 8 7 18 11 22 9 5 -1 23 5 39 15 l30 16 -35 2 c-19 1 -58 3 -86 3 -28 1
-59 7 -68 15 -11 9 -16 10 -16 2z"/>
<path d="M157 523 c-24 -6 -16 -27 11 -31 13 -2 25 4 32 17 11 22 1 25 -43 14z"/>
<path d="M930 520 c0 -5 5 -10 11 -10 5 0 7 5 4 10 -3 6 -8 10 -11 10 -2 0 -4
-4 -4 -10z"/>
<path d="M1277 516 c-9 -22 -1 -39 24 -54 17 -11 25 -11 45 2 18 13 22 21 15
39 -10 28 -75 38 -84 13z"/>
<path d="M1495 516 c-11 -8 -16 -16 -12 -16 4 0 3 -9 -3 -20 -11 -21 -40 -28
-40 -10 0 6 -6 10 -14 10 -13 0 -14 -38 -1 -60 4 -6 -12 -19 -39 -31 -36 -15
-50 -17 -66 -9 -17 9 -22 7 -32 -15 -15 -34 3 -47 44 -33 16 6 42 8 58 5 19
-4 36 -1 51 12 19 15 20 20 9 41 -12 22 -11 22 16 16 16 -4 37 -15 46 -23 16
-14 21 -14 57 1 22 8 57 25 78 36 21 11 45 20 54 20 14 0 29 19 29 35 0 2 -20
2 -44 0 -36 -3 -49 1 -71 21 -33 31 -93 41 -120 20z m35 -6 c0 -5 -5 -10 -11
-10 -5 0 -7 5 -4 10 3 6 8 10 11 10 2 0 4 -4 4 -10z m120 -60 c0 -5 -7 -10
-16 -10 -8 0 -12 5 -9 10 3 6 10 10 16 10 5 0 9 -4 9 -10z"/>
<path d="M997 503 c-72 -5 -66 -23 9 -23 41 0 54 4 54 15 0 8 -1 14 -2 13 -2
-1 -29 -3 -61 -5z"/>
<path d="M400 470 c0 -5 7 -10 15 -10 8 0 15 5 15 10 0 6 -7 10 -15 10 -8 0
-15 -4 -15 -10z"/>
<path d="M1073 408 c1 -17 -3 -23 -18 -23 -39 0 -47 -15 -23 -41 23 -23 68
-33 68 -14 0 5 15 16 34 24 28 12 33 18 29 36 -6 22 -39 40 -74 40 -14 0 -18
-6 -16 -22z"/>
<path d="M1751 401 c-9 -6 -5 -8 13 -8 14 0 26 3 26 8 0 11 -21 11 -39 0z"/>
<path d="M1685 390 c-13 -6 -15 -9 -5 -9 8 0 22 4 30 9 18 12 2 12 -25 0z"/>
<path d="M1580 330 c-9 -6 -10 -10 -3 -10 6 0 15 5 18 10 8 12 4 12 -15 0z"/>
<path d="M1680 332 c0 -12 23 -32 37 -32 18 0 16 27 -3 34 -21 8 -34 8 -34 -2z"/>
<path d="M689 278 c-8 -7 -12 -12 -10 -11 2 1 12 -2 23 -8 24 -13 31 -8 22 15
-7 19 -15 20 -35 4z"/>
<path d="M1329 275 c-13 -8 -48 -17 -76 -21 -34 -4 -53 -11 -53 -20 0 -22 18
-26 46 -8 17 12 28 14 32 7 5 -7 24 -1 55 17 49 28 45 51 -4 25z"/>
</g>
</svg>
